G04 #@! TF.GenerationSoftware,KiCad,Pcbnew,(5.1.10-1-10_14)*
G04 #@! TF.CreationDate,2022-01-06T13:36:13+01:00*
G04 #@! TF.ProjectId,TrainSpeedo,54726169-6e53-4706-9565-646f2e6b6963,1.0a*
G04 #@! TF.SameCoordinates,Original*
G04 #@! TF.FileFunction,Copper,L2,Bot*
G04 #@! TF.FilePolarity,Positive*
%FSLAX46Y46*%
G04 Gerber Fmt 4.6, Leading zero omitted, Abs format (unit mm)*
G04 Created by KiCad (PCBNEW (5.1.10-1-10_14)) date 2022-01-06 13:36:13*
%MOMM*%
%LPD*%
G01*
G04 APERTURE LIST*
G04 #@! TA.AperFunction,ComponentPad*
%ADD10C,1.800000*%
G04 #@! TD*
G04 #@! TA.AperFunction,ComponentPad*
%ADD11R,1.800000X1.800000*%
G04 #@! TD*
G04 #@! TA.AperFunction,ComponentPad*
%ADD12R,3.500000X3.500000*%
G04 #@! TD*
G04 #@! TA.AperFunction,ComponentPad*
%ADD13O,1.700000X1.700000*%
G04 #@! TD*
G04 #@! TA.AperFunction,ComponentPad*
%ADD14R,1.700000X1.700000*%
G04 #@! TD*
G04 #@! TA.AperFunction,ComponentPad*
%ADD15C,2.000000*%
G04 #@! TD*
G04 #@! TA.AperFunction,ComponentPad*
%ADD16C,1.500000*%
G04 #@! TD*
G04 #@! TA.AperFunction,ComponentPad*
%ADD17R,1.520000X1.520000*%
G04 #@! TD*
G04 #@! TA.AperFunction,ComponentPad*
%ADD18C,1.520000*%
G04 #@! TD*
G04 #@! TA.AperFunction,ComponentPad*
%ADD19C,3.000000*%
G04 #@! TD*
G04 #@! TA.AperFunction,ComponentPad*
%ADD20O,1.800000X2.600000*%
G04 #@! TD*
G04 #@! TA.AperFunction,ComponentPad*
%ADD21R,1.800000X2.600000*%
G04 #@! TD*
G04 #@! TA.AperFunction,ComponentPad*
%ADD22C,2.500000*%
G04 #@! TD*
G04 #@! TA.AperFunction,ViaPad*
%ADD23C,0.400000*%
G04 #@! TD*
G04 #@! TA.AperFunction,Conductor*
%ADD24C,0.635000*%
G04 #@! TD*
G04 #@! TA.AperFunction,Conductor*
%ADD25C,0.254000*%
G04 #@! TD*
G04 #@! TA.AperFunction,Conductor*
%ADD26C,0.250000*%
G04 #@! TD*
G04 #@! TA.AperFunction,Conductor*
%ADD27C,0.150000*%
G04 #@! TD*
G04 APERTURE END LIST*
D10*
X151130000Y-68580000D03*
D11*
X148590000Y-68580000D03*
X157480000Y-68580000D03*
D10*
X160020000Y-68580000D03*
X115570000Y-68580000D03*
D11*
X113030000Y-68580000D03*
X123190000Y-68580000D03*
D10*
X125730000Y-68580000D03*
X135890000Y-68580000D03*
D11*
X133350000Y-68580000D03*
D12*
X173180000Y-65150000D03*
X176180000Y-69850000D03*
X170180000Y-69850000D03*
D13*
X149860000Y-57150000D03*
X149860000Y-59690000D03*
X147320000Y-57150000D03*
X147320000Y-59690000D03*
X144780000Y-57150000D03*
X144780000Y-59690000D03*
X142240000Y-57150000D03*
X142240000Y-59690000D03*
X139700000Y-57150000D03*
D14*
X139700000Y-59690000D03*
D13*
X180340000Y-102870000D03*
X177800000Y-102870000D03*
X180340000Y-100330000D03*
X177800000Y-100330000D03*
X180340000Y-97790000D03*
D14*
X177800000Y-97790000D03*
D13*
X176530000Y-87630000D03*
D14*
X179070000Y-87630000D03*
D15*
X111760000Y-124405000D03*
X111760000Y-128905000D03*
X105260000Y-124405000D03*
X105260000Y-128905000D03*
X119230000Y-128905000D03*
X119230000Y-124405000D03*
X125730000Y-128905000D03*
X125730000Y-124405000D03*
X139700000Y-124405000D03*
X139700000Y-128905000D03*
X133200000Y-124405000D03*
X133200000Y-128905000D03*
X161140000Y-128905000D03*
X161140000Y-124405000D03*
X167640000Y-128905000D03*
X167640000Y-124405000D03*
X153670000Y-124405000D03*
X153670000Y-128905000D03*
X147170000Y-124405000D03*
X147170000Y-128905000D03*
X182395000Y-124460000D03*
X182395000Y-128960000D03*
X175895000Y-124460000D03*
X175895000Y-128960000D03*
D16*
X164900000Y-86360000D03*
X160020000Y-86360000D03*
D17*
X127000000Y-87630000D03*
D18*
X127000000Y-92710000D03*
X127000000Y-90170000D03*
D17*
X139700000Y-87630000D03*
D18*
X139700000Y-92710000D03*
X139700000Y-90170000D03*
X128270000Y-104140000D03*
X130810000Y-104140000D03*
D17*
X125730000Y-104140000D03*
D18*
X138430000Y-104140000D03*
X140970000Y-104140000D03*
D17*
X135890000Y-104140000D03*
D19*
X181260000Y-81280000D03*
X181259480Y-112280700D03*
X106260900Y-112280700D03*
X106260900Y-81280000D03*
D20*
X149860000Y-81280000D03*
X147320000Y-81280000D03*
X144780000Y-81280000D03*
X142240000Y-81280000D03*
X139700000Y-81280000D03*
X137160000Y-81280000D03*
X134620000Y-81280000D03*
X132080000Y-81280000D03*
X129540000Y-81280000D03*
X127000000Y-81280000D03*
X124460000Y-81280000D03*
X121920000Y-81280000D03*
X119380000Y-81280000D03*
X116840000Y-81280000D03*
X114300000Y-81280000D03*
D21*
X111760000Y-81280000D03*
D22*
X113030000Y-88900000D03*
X108030000Y-88900000D03*
X110530000Y-93940000D03*
D23*
X135128000Y-87122000D03*
X122174000Y-86868000D03*
X150622000Y-63246000D03*
X170815000Y-57785000D03*
X116205000Y-57150000D03*
X127635000Y-57150000D03*
X114300000Y-117475000D03*
X180975000Y-117475000D03*
X152400000Y-117475000D03*
X132715000Y-117475000D03*
X170180000Y-100330000D03*
X176784000Y-93980000D03*
X172085000Y-92583000D03*
X161690000Y-93540000D03*
X140335000Y-74930000D03*
X148590000Y-74930000D03*
X157480000Y-74930000D03*
X172466012Y-102616000D03*
X155226000Y-99790000D03*
X158971998Y-99790000D03*
X155200000Y-100590000D03*
X158502000Y-100590000D03*
X161290000Y-99060000D03*
X163068000Y-73152000D03*
X153416000Y-71882000D03*
X130810000Y-109220000D03*
X153162000Y-98806000D03*
X140970000Y-109220000D03*
X153162000Y-99822004D03*
X159004000Y-104140000D03*
X135890000Y-76962000D03*
X174244000Y-100330000D03*
X159766000Y-96012000D03*
X123110000Y-74930000D03*
X161036000Y-96012000D03*
X133270000Y-74930000D03*
X163575998Y-98044004D03*
X163576000Y-98806004D03*
X163576000Y-99568000D03*
X163576000Y-100330000D03*
D24*
X169740000Y-93540000D02*
X169858000Y-93540000D01*
X161690000Y-93540000D02*
X169740000Y-93540000D01*
X170815000Y-92583000D02*
X172085000Y-92583000D01*
X169858000Y-93540000D02*
X170815000Y-92583000D01*
X166370000Y-74930000D02*
X157480000Y-74930000D01*
X154432000Y-74930000D02*
X148590000Y-74930000D01*
X157480000Y-74930000D02*
X154432000Y-74930000D01*
X148590000Y-74930000D02*
X146304000Y-74930000D01*
X146304000Y-74930000D02*
X139446000Y-74930000D01*
X114300000Y-77724000D02*
X114300000Y-81280000D01*
X119126000Y-72898000D02*
X114300000Y-77724000D01*
X137414000Y-72898000D02*
X119126000Y-72898000D01*
X139446000Y-74930000D02*
X137414000Y-72898000D01*
X144780000Y-73406000D02*
X144780000Y-60960000D01*
X146304000Y-74930000D02*
X144780000Y-73406000D01*
X144780000Y-60960000D02*
X144780000Y-59690000D01*
X144780000Y-59690000D02*
X144780000Y-57150000D01*
X142240000Y-57150000D02*
X144780000Y-57150000D01*
X144780000Y-57150000D02*
X147320000Y-57150000D01*
X142240000Y-59690000D02*
X144780000Y-59690000D01*
X144780000Y-59690000D02*
X147320000Y-59690000D01*
X176530000Y-87630000D02*
X176530000Y-85090000D01*
X176530000Y-85090000D02*
X166370000Y-74930000D01*
D25*
X141478000Y-84328000D02*
X127508000Y-84328000D01*
X154686000Y-97536000D02*
X141478000Y-84328000D01*
X154686000Y-99250000D02*
X154686000Y-97536000D01*
X127508000Y-84328000D02*
X124460000Y-81280000D01*
X155226000Y-99790000D02*
X154686000Y-99250000D01*
X158972000Y-99790000D02*
X158971998Y-99790000D01*
X162306000Y-103124000D02*
X158972000Y-99790000D01*
X171958012Y-103124000D02*
X162306000Y-103124000D01*
X172466012Y-102616000D02*
X171958012Y-103124000D01*
X122936000Y-84836000D02*
X119380000Y-81280000D01*
X141224000Y-84836000D02*
X122936000Y-84836000D01*
X154178000Y-97790000D02*
X141224000Y-84836000D01*
X154178000Y-99568000D02*
X154178000Y-97790000D01*
X155200000Y-100590000D02*
X154178000Y-99568000D01*
X159010000Y-100590000D02*
X158502000Y-100590000D01*
X162052000Y-103632000D02*
X159010000Y-100590000D01*
X172466000Y-103632000D02*
X162052000Y-103632000D01*
X177800000Y-98298000D02*
X172466000Y-103632000D01*
X177800000Y-97790000D02*
X177800000Y-98298000D01*
X115515000Y-120650000D02*
X111760000Y-124405000D01*
X136906000Y-120650000D02*
X115515000Y-120650000D01*
X158496000Y-99060000D02*
X136906000Y-120650000D01*
X161290000Y-99060000D02*
X158496000Y-99060000D01*
X153162000Y-73152000D02*
X163068000Y-73152000D01*
X148590000Y-68580000D02*
X153162000Y-73152000D01*
X154940000Y-70358000D02*
X153416000Y-71882000D01*
X156718000Y-68580000D02*
X154940000Y-70358000D01*
X157480000Y-68580000D02*
X156718000Y-68580000D01*
X144272000Y-107696000D02*
X153162000Y-98806000D01*
X132334000Y-107696000D02*
X144272000Y-107696000D01*
X130810000Y-109220000D02*
X132334000Y-107696000D01*
X143764004Y-109220000D02*
X153162000Y-99822004D01*
X140970000Y-109220000D02*
X143764004Y-109220000D01*
X176530000Y-100330000D02*
X177800000Y-100330000D01*
X172720000Y-104140000D02*
X176530000Y-100330000D01*
X159004000Y-104140000D02*
X172720000Y-104140000D01*
D26*
X163900000Y-96590000D02*
X170504000Y-96590000D01*
X170504000Y-96590000D02*
X174244000Y-100330000D01*
D25*
X153870010Y-79956010D02*
X150876000Y-76962000D01*
X153870010Y-87576010D02*
X153870010Y-79956010D01*
X162884000Y-96590000D02*
X153870010Y-87576010D01*
X150876000Y-76962000D02*
X135890000Y-76962000D01*
X163900000Y-96590000D02*
X162884000Y-96590000D01*
X123190000Y-77216000D02*
X123190000Y-75010000D01*
X123190000Y-75010000D02*
X123110000Y-74930000D01*
X124152010Y-78178010D02*
X123190000Y-77216000D01*
X150568010Y-78178010D02*
X124152010Y-78178010D01*
X152908000Y-88138000D02*
X152908000Y-80518000D01*
X152908000Y-80518000D02*
X150568010Y-78178010D01*
X159766000Y-94996000D02*
X152908000Y-88138000D01*
X159766000Y-96012000D02*
X159766000Y-94996000D01*
X133350000Y-75010000D02*
X133270000Y-74930000D01*
X133350000Y-76454000D02*
X133350000Y-75010000D01*
X134620000Y-77724000D02*
X133350000Y-76454000D01*
X153416000Y-87884000D02*
X153416000Y-80264000D01*
X150876000Y-77724000D02*
X134620000Y-77724000D01*
X153416000Y-80264000D02*
X150876000Y-77724000D01*
X161036000Y-95504000D02*
X153416000Y-87884000D01*
X161036000Y-96012000D02*
X161036000Y-95504000D01*
X162305994Y-96774000D02*
X163575998Y-98044004D01*
X157480000Y-96774000D02*
X162305994Y-96774000D01*
X144780000Y-84074000D02*
X157480000Y-96774000D01*
X144780000Y-81280000D02*
X144780000Y-84074000D01*
X157084000Y-97282000D02*
X162051996Y-97282000D01*
X142240000Y-82438000D02*
X157084000Y-97282000D01*
X162051996Y-97282000D02*
X163576000Y-98806004D01*
X142240000Y-81280000D02*
X142240000Y-82438000D01*
X139700000Y-82042000D02*
X139700000Y-81280000D01*
X142240000Y-83312000D02*
X140970000Y-83312000D01*
X140970000Y-83312000D02*
X139700000Y-82042000D01*
X156718000Y-97790000D02*
X142240000Y-83312000D01*
X161798000Y-97790000D02*
X156718000Y-97790000D01*
X163576000Y-99568000D02*
X161798000Y-97790000D01*
X139700000Y-83820000D02*
X137160000Y-81280000D01*
X141859000Y-83820000D02*
X139700000Y-83820000D01*
X156337000Y-98298000D02*
X141859000Y-83820000D01*
X161544000Y-98298000D02*
X156337000Y-98298000D01*
X163576000Y-100330000D02*
X161544000Y-98298000D01*
X185293000Y-137668000D02*
X102362000Y-137668000D01*
X102362000Y-134399872D01*
X103175000Y-134399872D01*
X103175000Y-134840128D01*
X103260890Y-135271925D01*
X103429369Y-135678669D01*
X103673962Y-136044729D01*
X103985271Y-136356038D01*
X104351331Y-136600631D01*
X104758075Y-136769110D01*
X105189872Y-136855000D01*
X105630128Y-136855000D01*
X106061925Y-136769110D01*
X106468669Y-136600631D01*
X106834729Y-136356038D01*
X107146038Y-136044729D01*
X107390631Y-135678669D01*
X107559110Y-135271925D01*
X107645000Y-134840128D01*
X107645000Y-134399872D01*
X180010000Y-134399872D01*
X180010000Y-134840128D01*
X180095890Y-135271925D01*
X180264369Y-135678669D01*
X180508962Y-136044729D01*
X180820271Y-136356038D01*
X181186331Y-136600631D01*
X181593075Y-136769110D01*
X182024872Y-136855000D01*
X182465128Y-136855000D01*
X182896925Y-136769110D01*
X183303669Y-136600631D01*
X183669729Y-136356038D01*
X183981038Y-136044729D01*
X184225631Y-135678669D01*
X184394110Y-135271925D01*
X184480000Y-134840128D01*
X184480000Y-134399872D01*
X184394110Y-133968075D01*
X184225631Y-133561331D01*
X183981038Y-133195271D01*
X183669729Y-132883962D01*
X183303669Y-132639369D01*
X182896925Y-132470890D01*
X182465128Y-132385000D01*
X182024872Y-132385000D01*
X181593075Y-132470890D01*
X181186331Y-132639369D01*
X180820271Y-132883962D01*
X180508962Y-133195271D01*
X180264369Y-133561331D01*
X180095890Y-133968075D01*
X180010000Y-134399872D01*
X107645000Y-134399872D01*
X107559110Y-133968075D01*
X107390631Y-133561331D01*
X107146038Y-133195271D01*
X106834729Y-132883962D01*
X106468669Y-132639369D01*
X106061925Y-132470890D01*
X105630128Y-132385000D01*
X105189872Y-132385000D01*
X104758075Y-132470890D01*
X104351331Y-132639369D01*
X103985271Y-132883962D01*
X103673962Y-133195271D01*
X103429369Y-133561331D01*
X103260890Y-133968075D01*
X103175000Y-134399872D01*
X102362000Y-134399872D01*
X102362000Y-130040413D01*
X104304192Y-130040413D01*
X104399956Y-130304814D01*
X104689571Y-130445704D01*
X105001108Y-130527384D01*
X105322595Y-130546718D01*
X105641675Y-130502961D01*
X105946088Y-130397795D01*
X106120044Y-130304814D01*
X106215808Y-130040413D01*
X110804192Y-130040413D01*
X110899956Y-130304814D01*
X111189571Y-130445704D01*
X111501108Y-130527384D01*
X111822595Y-130546718D01*
X112141675Y-130502961D01*
X112446088Y-130397795D01*
X112620044Y-130304814D01*
X112715808Y-130040413D01*
X118274192Y-130040413D01*
X118369956Y-130304814D01*
X118659571Y-130445704D01*
X118971108Y-130527384D01*
X119292595Y-130546718D01*
X119611675Y-130502961D01*
X119916088Y-130397795D01*
X120090044Y-130304814D01*
X120185808Y-130040413D01*
X124774192Y-130040413D01*
X124869956Y-130304814D01*
X125159571Y-130445704D01*
X125471108Y-130527384D01*
X125792595Y-130546718D01*
X126111675Y-130502961D01*
X126416088Y-130397795D01*
X126590044Y-130304814D01*
X126685808Y-130040413D01*
X132244192Y-130040413D01*
X132339956Y-130304814D01*
X132629571Y-130445704D01*
X132941108Y-130527384D01*
X133262595Y-130546718D01*
X133581675Y-130502961D01*
X133886088Y-130397795D01*
X134060044Y-130304814D01*
X134155808Y-130040413D01*
X138744192Y-130040413D01*
X138839956Y-130304814D01*
X139129571Y-130445704D01*
X139441108Y-130527384D01*
X139762595Y-130546718D01*
X140081675Y-130502961D01*
X140386088Y-130397795D01*
X140560044Y-130304814D01*
X140655808Y-130040413D01*
X146214192Y-130040413D01*
X146309956Y-130304814D01*
X146599571Y-130445704D01*
X146911108Y-130527384D01*
X147232595Y-130546718D01*
X147551675Y-130502961D01*
X147856088Y-130397795D01*
X148030044Y-130304814D01*
X148125808Y-130040413D01*
X152714192Y-130040413D01*
X152809956Y-130304814D01*
X153099571Y-130445704D01*
X153411108Y-130527384D01*
X153732595Y-130546718D01*
X154051675Y-130502961D01*
X154356088Y-130397795D01*
X154530044Y-130304814D01*
X154625808Y-130040413D01*
X160184192Y-130040413D01*
X160279956Y-130304814D01*
X160569571Y-130445704D01*
X160881108Y-130527384D01*
X161202595Y-130546718D01*
X161521675Y-130502961D01*
X161826088Y-130397795D01*
X162000044Y-130304814D01*
X162095808Y-130040413D01*
X166684192Y-130040413D01*
X166779956Y-130304814D01*
X167069571Y-130445704D01*
X167381108Y-130527384D01*
X167702595Y-130546718D01*
X168021675Y-130502961D01*
X168326088Y-130397795D01*
X168500044Y-130304814D01*
X168575887Y-130095413D01*
X174939192Y-130095413D01*
X175034956Y-130359814D01*
X175324571Y-130500704D01*
X175636108Y-130582384D01*
X175957595Y-130601718D01*
X176276675Y-130557961D01*
X176581088Y-130452795D01*
X176755044Y-130359814D01*
X176850808Y-130095413D01*
X181439192Y-130095413D01*
X181534956Y-130359814D01*
X181824571Y-130500704D01*
X182136108Y-130582384D01*
X182457595Y-130601718D01*
X182776675Y-130557961D01*
X183081088Y-130452795D01*
X183255044Y-130359814D01*
X183350808Y-130095413D01*
X182395000Y-129139605D01*
X181439192Y-130095413D01*
X176850808Y-130095413D01*
X175895000Y-129139605D01*
X174939192Y-130095413D01*
X168575887Y-130095413D01*
X168595808Y-130040413D01*
X167640000Y-129084605D01*
X166684192Y-130040413D01*
X162095808Y-130040413D01*
X161140000Y-129084605D01*
X160184192Y-130040413D01*
X154625808Y-130040413D01*
X153670000Y-129084605D01*
X152714192Y-130040413D01*
X148125808Y-130040413D01*
X147170000Y-129084605D01*
X146214192Y-130040413D01*
X140655808Y-130040413D01*
X139700000Y-129084605D01*
X138744192Y-130040413D01*
X134155808Y-130040413D01*
X133200000Y-129084605D01*
X132244192Y-130040413D01*
X126685808Y-130040413D01*
X125730000Y-129084605D01*
X124774192Y-130040413D01*
X120185808Y-130040413D01*
X119230000Y-129084605D01*
X118274192Y-130040413D01*
X112715808Y-130040413D01*
X111760000Y-129084605D01*
X110804192Y-130040413D01*
X106215808Y-130040413D01*
X105260000Y-129084605D01*
X104304192Y-130040413D01*
X102362000Y-130040413D01*
X102362000Y-128967595D01*
X103618282Y-128967595D01*
X103662039Y-129286675D01*
X103767205Y-129591088D01*
X103860186Y-129765044D01*
X104124587Y-129860808D01*
X105080395Y-128905000D01*
X105439605Y-128905000D01*
X106395413Y-129860808D01*
X106659814Y-129765044D01*
X106800704Y-129475429D01*
X106882384Y-129163892D01*
X106894189Y-128967595D01*
X110118282Y-128967595D01*
X110162039Y-129286675D01*
X110267205Y-129591088D01*
X110360186Y-129765044D01*
X110624587Y-129860808D01*
X111580395Y-128905000D01*
X111939605Y-128905000D01*
X112895413Y-129860808D01*
X113159814Y-129765044D01*
X113300704Y-129475429D01*
X113382384Y-129163892D01*
X113394189Y-128967595D01*
X117588282Y-128967595D01*
X117632039Y-129286675D01*
X117737205Y-129591088D01*
X117830186Y-129765044D01*
X118094587Y-129860808D01*
X119050395Y-128905000D01*
X119409605Y-128905000D01*
X120365413Y-129860808D01*
X120629814Y-129765044D01*
X120770704Y-129475429D01*
X120852384Y-129163892D01*
X120864189Y-128967595D01*
X124088282Y-128967595D01*
X124132039Y-129286675D01*
X124237205Y-129591088D01*
X124330186Y-129765044D01*
X124594587Y-129860808D01*
X125550395Y-128905000D01*
X125909605Y-128905000D01*
X126865413Y-129860808D01*
X127129814Y-129765044D01*
X127270704Y-129475429D01*
X127352384Y-129163892D01*
X127364189Y-128967595D01*
X131558282Y-128967595D01*
X131602039Y-129286675D01*
X131707205Y-129591088D01*
X131800186Y-129765044D01*
X132064587Y-129860808D01*
X133020395Y-128905000D01*
X133379605Y-128905000D01*
X134335413Y-129860808D01*
X134599814Y-129765044D01*
X134740704Y-129475429D01*
X134822384Y-129163892D01*
X134834189Y-128967595D01*
X138058282Y-128967595D01*
X138102039Y-129286675D01*
X138207205Y-129591088D01*
X138300186Y-129765044D01*
X138564587Y-129860808D01*
X139520395Y-128905000D01*
X139879605Y-128905000D01*
X140835413Y-129860808D01*
X141099814Y-129765044D01*
X141240704Y-129475429D01*
X141322384Y-129163892D01*
X141334189Y-128967595D01*
X145528282Y-128967595D01*
X145572039Y-129286675D01*
X145677205Y-129591088D01*
X145770186Y-129765044D01*
X146034587Y-129860808D01*
X146990395Y-128905000D01*
X147349605Y-128905000D01*
X148305413Y-129860808D01*
X148569814Y-129765044D01*
X148710704Y-129475429D01*
X148792384Y-129163892D01*
X148804189Y-128967595D01*
X152028282Y-128967595D01*
X152072039Y-129286675D01*
X152177205Y-129591088D01*
X152270186Y-129765044D01*
X152534587Y-129860808D01*
X153490395Y-128905000D01*
X153849605Y-128905000D01*
X154805413Y-129860808D01*
X155069814Y-129765044D01*
X155210704Y-129475429D01*
X155292384Y-129163892D01*
X155304189Y-128967595D01*
X159498282Y-128967595D01*
X159542039Y-129286675D01*
X159647205Y-129591088D01*
X159740186Y-129765044D01*
X160004587Y-129860808D01*
X160960395Y-128905000D01*
X161319605Y-128905000D01*
X162275413Y-129860808D01*
X162539814Y-129765044D01*
X162680704Y-129475429D01*
X162762384Y-129163892D01*
X162774189Y-128967595D01*
X165998282Y-128967595D01*
X166042039Y-129286675D01*
X166147205Y-129591088D01*
X166240186Y-129765044D01*
X166504587Y-129860808D01*
X167460395Y-128905000D01*
X167819605Y-128905000D01*
X168775413Y-129860808D01*
X169039814Y-129765044D01*
X169180704Y-129475429D01*
X169262384Y-129163892D01*
X169270881Y-129022595D01*
X174253282Y-129022595D01*
X174297039Y-129341675D01*
X174402205Y-129646088D01*
X174495186Y-129820044D01*
X174759587Y-129915808D01*
X175715395Y-128960000D01*
X176074605Y-128960000D01*
X177030413Y-129915808D01*
X177294814Y-129820044D01*
X177435704Y-129530429D01*
X177517384Y-129218892D01*
X177529189Y-129022595D01*
X180753282Y-129022595D01*
X180797039Y-129341675D01*
X180902205Y-129646088D01*
X180995186Y-129820044D01*
X181259587Y-129915808D01*
X182215395Y-128960000D01*
X182574605Y-128960000D01*
X183530413Y-129915808D01*
X183794814Y-129820044D01*
X183935704Y-129530429D01*
X184017384Y-129218892D01*
X184036718Y-128897405D01*
X183992961Y-128578325D01*
X183887795Y-128273912D01*
X183794814Y-128099956D01*
X183530413Y-128004192D01*
X182574605Y-128960000D01*
X182215395Y-128960000D01*
X181259587Y-128004192D01*
X180995186Y-128099956D01*
X180854296Y-128389571D01*
X180772616Y-128701108D01*
X180753282Y-129022595D01*
X177529189Y-129022595D01*
X177536718Y-128897405D01*
X177492961Y-128578325D01*
X177387795Y-128273912D01*
X177294814Y-128099956D01*
X177030413Y-128004192D01*
X176074605Y-128960000D01*
X175715395Y-128960000D01*
X174759587Y-128004192D01*
X174495186Y-128099956D01*
X174354296Y-128389571D01*
X174272616Y-128701108D01*
X174253282Y-129022595D01*
X169270881Y-129022595D01*
X169281718Y-128842405D01*
X169237961Y-128523325D01*
X169132795Y-128218912D01*
X169039814Y-128044956D01*
X168775413Y-127949192D01*
X167819605Y-128905000D01*
X167460395Y-128905000D01*
X166504587Y-127949192D01*
X166240186Y-128044956D01*
X166099296Y-128334571D01*
X166017616Y-128646108D01*
X165998282Y-128967595D01*
X162774189Y-128967595D01*
X162781718Y-128842405D01*
X162737961Y-128523325D01*
X162632795Y-128218912D01*
X162539814Y-128044956D01*
X162275413Y-127949192D01*
X161319605Y-128905000D01*
X160960395Y-128905000D01*
X160004587Y-127949192D01*
X159740186Y-128044956D01*
X159599296Y-128334571D01*
X159517616Y-128646108D01*
X159498282Y-128967595D01*
X155304189Y-128967595D01*
X155311718Y-128842405D01*
X155267961Y-128523325D01*
X155162795Y-128218912D01*
X155069814Y-128044956D01*
X154805413Y-127949192D01*
X153849605Y-128905000D01*
X153490395Y-128905000D01*
X152534587Y-127949192D01*
X152270186Y-128044956D01*
X152129296Y-128334571D01*
X152047616Y-128646108D01*
X152028282Y-128967595D01*
X148804189Y-128967595D01*
X148811718Y-128842405D01*
X148767961Y-128523325D01*
X148662795Y-128218912D01*
X148569814Y-128044956D01*
X148305413Y-127949192D01*
X147349605Y-128905000D01*
X146990395Y-128905000D01*
X146034587Y-127949192D01*
X145770186Y-128044956D01*
X145629296Y-128334571D01*
X145547616Y-128646108D01*
X145528282Y-128967595D01*
X141334189Y-128967595D01*
X141341718Y-128842405D01*
X141297961Y-128523325D01*
X141192795Y-128218912D01*
X141099814Y-128044956D01*
X140835413Y-127949192D01*
X139879605Y-128905000D01*
X139520395Y-128905000D01*
X138564587Y-127949192D01*
X138300186Y-128044956D01*
X138159296Y-128334571D01*
X138077616Y-128646108D01*
X138058282Y-128967595D01*
X134834189Y-128967595D01*
X134841718Y-128842405D01*
X134797961Y-128523325D01*
X134692795Y-128218912D01*
X134599814Y-128044956D01*
X134335413Y-127949192D01*
X133379605Y-128905000D01*
X133020395Y-128905000D01*
X132064587Y-127949192D01*
X131800186Y-128044956D01*
X131659296Y-128334571D01*
X131577616Y-128646108D01*
X131558282Y-128967595D01*
X127364189Y-128967595D01*
X127371718Y-128842405D01*
X127327961Y-128523325D01*
X127222795Y-128218912D01*
X127129814Y-128044956D01*
X126865413Y-127949192D01*
X125909605Y-128905000D01*
X125550395Y-128905000D01*
X124594587Y-127949192D01*
X124330186Y-128044956D01*
X124189296Y-128334571D01*
X124107616Y-128646108D01*
X124088282Y-128967595D01*
X120864189Y-128967595D01*
X120871718Y-128842405D01*
X120827961Y-128523325D01*
X120722795Y-128218912D01*
X120629814Y-128044956D01*
X120365413Y-127949192D01*
X119409605Y-128905000D01*
X119050395Y-128905000D01*
X118094587Y-127949192D01*
X117830186Y-128044956D01*
X117689296Y-128334571D01*
X117607616Y-128646108D01*
X117588282Y-128967595D01*
X113394189Y-128967595D01*
X113401718Y-128842405D01*
X113357961Y-128523325D01*
X113252795Y-128218912D01*
X113159814Y-128044956D01*
X112895413Y-127949192D01*
X111939605Y-128905000D01*
X111580395Y-128905000D01*
X110624587Y-127949192D01*
X110360186Y-128044956D01*
X110219296Y-128334571D01*
X110137616Y-128646108D01*
X110118282Y-128967595D01*
X106894189Y-128967595D01*
X106901718Y-128842405D01*
X106857961Y-128523325D01*
X106752795Y-128218912D01*
X106659814Y-128044956D01*
X106395413Y-127949192D01*
X105439605Y-128905000D01*
X105080395Y-128905000D01*
X104124587Y-127949192D01*
X103860186Y-128044956D01*
X103719296Y-128334571D01*
X103637616Y-128646108D01*
X103618282Y-128967595D01*
X102362000Y-128967595D01*
X102362000Y-127769587D01*
X104304192Y-127769587D01*
X105260000Y-128725395D01*
X106215808Y-127769587D01*
X110804192Y-127769587D01*
X111760000Y-128725395D01*
X112715808Y-127769587D01*
X118274192Y-127769587D01*
X119230000Y-128725395D01*
X120185808Y-127769587D01*
X124774192Y-127769587D01*
X125730000Y-128725395D01*
X126685808Y-127769587D01*
X132244192Y-127769587D01*
X133200000Y-128725395D01*
X134155808Y-127769587D01*
X138744192Y-127769587D01*
X139700000Y-128725395D01*
X140655808Y-127769587D01*
X146214192Y-127769587D01*
X147170000Y-128725395D01*
X148125808Y-127769587D01*
X152714192Y-127769587D01*
X153670000Y-128725395D01*
X154625808Y-127769587D01*
X160184192Y-127769587D01*
X161140000Y-128725395D01*
X162095808Y-127769587D01*
X166684192Y-127769587D01*
X167640000Y-128725395D01*
X168540808Y-127824587D01*
X174939192Y-127824587D01*
X175895000Y-128780395D01*
X176850808Y-127824587D01*
X181439192Y-127824587D01*
X182395000Y-128780395D01*
X183350808Y-127824587D01*
X183255044Y-127560186D01*
X182965429Y-127419296D01*
X182653892Y-127337616D01*
X182332405Y-127318282D01*
X182013325Y-127362039D01*
X181708912Y-127467205D01*
X181534956Y-127560186D01*
X181439192Y-127824587D01*
X176850808Y-127824587D01*
X176755044Y-127560186D01*
X176465429Y-127419296D01*
X176153892Y-127337616D01*
X175832405Y-127318282D01*
X175513325Y-127362039D01*
X175208912Y-127467205D01*
X175034956Y-127560186D01*
X174939192Y-127824587D01*
X168540808Y-127824587D01*
X168595808Y-127769587D01*
X168500044Y-127505186D01*
X168210429Y-127364296D01*
X167898892Y-127282616D01*
X167577405Y-127263282D01*
X167258325Y-127307039D01*
X166953912Y-127412205D01*
X166779956Y-127505186D01*
X166684192Y-127769587D01*
X162095808Y-127769587D01*
X162000044Y-127505186D01*
X161710429Y-127364296D01*
X161398892Y-127282616D01*
X161077405Y-127263282D01*
X160758325Y-127307039D01*
X160453912Y-127412205D01*
X160279956Y-127505186D01*
X160184192Y-127769587D01*
X154625808Y-127769587D01*
X154530044Y-127505186D01*
X154240429Y-127364296D01*
X153928892Y-127282616D01*
X153607405Y-127263282D01*
X153288325Y-127307039D01*
X152983912Y-127412205D01*
X152809956Y-127505186D01*
X152714192Y-127769587D01*
X148125808Y-127769587D01*
X148030044Y-127505186D01*
X147740429Y-127364296D01*
X147428892Y-127282616D01*
X147107405Y-127263282D01*
X146788325Y-127307039D01*
X146483912Y-127412205D01*
X146309956Y-127505186D01*
X146214192Y-127769587D01*
X140655808Y-127769587D01*
X140560044Y-127505186D01*
X140270429Y-127364296D01*
X139958892Y-127282616D01*
X139637405Y-127263282D01*
X139318325Y-127307039D01*
X139013912Y-127412205D01*
X138839956Y-127505186D01*
X138744192Y-127769587D01*
X134155808Y-127769587D01*
X134060044Y-127505186D01*
X133770429Y-127364296D01*
X133458892Y-127282616D01*
X133137405Y-127263282D01*
X132818325Y-127307039D01*
X132513912Y-127412205D01*
X132339956Y-127505186D01*
X132244192Y-127769587D01*
X126685808Y-127769587D01*
X126590044Y-127505186D01*
X126300429Y-127364296D01*
X125988892Y-127282616D01*
X125667405Y-127263282D01*
X125348325Y-127307039D01*
X125043912Y-127412205D01*
X124869956Y-127505186D01*
X124774192Y-127769587D01*
X120185808Y-127769587D01*
X120090044Y-127505186D01*
X119800429Y-127364296D01*
X119488892Y-127282616D01*
X119167405Y-127263282D01*
X118848325Y-127307039D01*
X118543912Y-127412205D01*
X118369956Y-127505186D01*
X118274192Y-127769587D01*
X112715808Y-127769587D01*
X112620044Y-127505186D01*
X112330429Y-127364296D01*
X112018892Y-127282616D01*
X111697405Y-127263282D01*
X111378325Y-127307039D01*
X111073912Y-127412205D01*
X110899956Y-127505186D01*
X110804192Y-127769587D01*
X106215808Y-127769587D01*
X106120044Y-127505186D01*
X105830429Y-127364296D01*
X105518892Y-127282616D01*
X105197405Y-127263282D01*
X104878325Y-127307039D01*
X104573912Y-127412205D01*
X104399956Y-127505186D01*
X104304192Y-127769587D01*
X102362000Y-127769587D01*
X102362000Y-124243967D01*
X103625000Y-124243967D01*
X103625000Y-124566033D01*
X103687832Y-124881912D01*
X103811082Y-125179463D01*
X103990013Y-125447252D01*
X104217748Y-125674987D01*
X104485537Y-125853918D01*
X104783088Y-125977168D01*
X105098967Y-126040000D01*
X105421033Y-126040000D01*
X105736912Y-125977168D01*
X106034463Y-125853918D01*
X106302252Y-125674987D01*
X106529987Y-125447252D01*
X106708918Y-125179463D01*
X106832168Y-124881912D01*
X106895000Y-124566033D01*
X106895000Y-124243967D01*
X110125000Y-124243967D01*
X110125000Y-124566033D01*
X110187832Y-124881912D01*
X110311082Y-125179463D01*
X110490013Y-125447252D01*
X110717748Y-125674987D01*
X110985537Y-125853918D01*
X111283088Y-125977168D01*
X111598967Y-126040000D01*
X111921033Y-126040000D01*
X112236912Y-125977168D01*
X112534463Y-125853918D01*
X112802252Y-125674987D01*
X113029987Y-125447252D01*
X113208918Y-125179463D01*
X113332168Y-124881912D01*
X113395000Y-124566033D01*
X113395000Y-124243967D01*
X117595000Y-124243967D01*
X117595000Y-124566033D01*
X117657832Y-124881912D01*
X117781082Y-125179463D01*
X117960013Y-125447252D01*
X118187748Y-125674987D01*
X118455537Y-125853918D01*
X118753088Y-125977168D01*
X119068967Y-126040000D01*
X119391033Y-126040000D01*
X119706912Y-125977168D01*
X120004463Y-125853918D01*
X120272252Y-125674987D01*
X120499987Y-125447252D01*
X120678918Y-125179463D01*
X120802168Y-124881912D01*
X120865000Y-124566033D01*
X120865000Y-124243967D01*
X124095000Y-124243967D01*
X124095000Y-124566033D01*
X124157832Y-124881912D01*
X124281082Y-125179463D01*
X124460013Y-125447252D01*
X124687748Y-125674987D01*
X124955537Y-125853918D01*
X125253088Y-125977168D01*
X125568967Y-126040000D01*
X125891033Y-126040000D01*
X126206912Y-125977168D01*
X126504463Y-125853918D01*
X126772252Y-125674987D01*
X126999987Y-125447252D01*
X127178918Y-125179463D01*
X127302168Y-124881912D01*
X127365000Y-124566033D01*
X127365000Y-124243967D01*
X131565000Y-124243967D01*
X131565000Y-124566033D01*
X131627832Y-124881912D01*
X131751082Y-125179463D01*
X131930013Y-125447252D01*
X132157748Y-125674987D01*
X132425537Y-125853918D01*
X132723088Y-125977168D01*
X133038967Y-126040000D01*
X133361033Y-126040000D01*
X133676912Y-125977168D01*
X133974463Y-125853918D01*
X134242252Y-125674987D01*
X134469987Y-125447252D01*
X134648918Y-125179463D01*
X134772168Y-124881912D01*
X134835000Y-124566033D01*
X134835000Y-124243967D01*
X138065000Y-124243967D01*
X138065000Y-124566033D01*
X138127832Y-124881912D01*
X138251082Y-125179463D01*
X138430013Y-125447252D01*
X138657748Y-125674987D01*
X138925537Y-125853918D01*
X139223088Y-125977168D01*
X139538967Y-126040000D01*
X139861033Y-126040000D01*
X140176912Y-125977168D01*
X140474463Y-125853918D01*
X140742252Y-125674987D01*
X140969987Y-125447252D01*
X141148918Y-125179463D01*
X141272168Y-124881912D01*
X141335000Y-124566033D01*
X141335000Y-124243967D01*
X145535000Y-124243967D01*
X145535000Y-124566033D01*
X145597832Y-124881912D01*
X145721082Y-125179463D01*
X145900013Y-125447252D01*
X146127748Y-125674987D01*
X146395537Y-125853918D01*
X146693088Y-125977168D01*
X147008967Y-126040000D01*
X147331033Y-126040000D01*
X147646912Y-125977168D01*
X147944463Y-125853918D01*
X148212252Y-125674987D01*
X148439987Y-125447252D01*
X148618918Y-125179463D01*
X148742168Y-124881912D01*
X148805000Y-124566033D01*
X148805000Y-124243967D01*
X152035000Y-124243967D01*
X152035000Y-124566033D01*
X152097832Y-124881912D01*
X152221082Y-125179463D01*
X152400013Y-125447252D01*
X152627748Y-125674987D01*
X152895537Y-125853918D01*
X153193088Y-125977168D01*
X153508967Y-126040000D01*
X153831033Y-126040000D01*
X154146912Y-125977168D01*
X154444463Y-125853918D01*
X154712252Y-125674987D01*
X154939987Y-125447252D01*
X155118918Y-125179463D01*
X155242168Y-124881912D01*
X155305000Y-124566033D01*
X155305000Y-124243967D01*
X159505000Y-124243967D01*
X159505000Y-124566033D01*
X159567832Y-124881912D01*
X159691082Y-125179463D01*
X159870013Y-125447252D01*
X160097748Y-125674987D01*
X160365537Y-125853918D01*
X160663088Y-125977168D01*
X160978967Y-126040000D01*
X161301033Y-126040000D01*
X161616912Y-125977168D01*
X161914463Y-125853918D01*
X162182252Y-125674987D01*
X162409987Y-125447252D01*
X162588918Y-125179463D01*
X162712168Y-124881912D01*
X162775000Y-124566033D01*
X162775000Y-124243967D01*
X166005000Y-124243967D01*
X166005000Y-124566033D01*
X166067832Y-124881912D01*
X166191082Y-125179463D01*
X166370013Y-125447252D01*
X166597748Y-125674987D01*
X166865537Y-125853918D01*
X167163088Y-125977168D01*
X167478967Y-126040000D01*
X167801033Y-126040000D01*
X168116912Y-125977168D01*
X168414463Y-125853918D01*
X168682252Y-125674987D01*
X168909987Y-125447252D01*
X169088918Y-125179463D01*
X169212168Y-124881912D01*
X169275000Y-124566033D01*
X169275000Y-124298967D01*
X174260000Y-124298967D01*
X174260000Y-124621033D01*
X174322832Y-124936912D01*
X174446082Y-125234463D01*
X174625013Y-125502252D01*
X174852748Y-125729987D01*
X175120537Y-125908918D01*
X175418088Y-126032168D01*
X175733967Y-126095000D01*
X176056033Y-126095000D01*
X176371912Y-126032168D01*
X176669463Y-125908918D01*
X176937252Y-125729987D01*
X177164987Y-125502252D01*
X177343918Y-125234463D01*
X177467168Y-124936912D01*
X177530000Y-124621033D01*
X177530000Y-124298967D01*
X180760000Y-124298967D01*
X180760000Y-124621033D01*
X180822832Y-124936912D01*
X180946082Y-125234463D01*
X181125013Y-125502252D01*
X181352748Y-125729987D01*
X181620537Y-125908918D01*
X181918088Y-126032168D01*
X182233967Y-126095000D01*
X182556033Y-126095000D01*
X182871912Y-126032168D01*
X183169463Y-125908918D01*
X183437252Y-125729987D01*
X183664987Y-125502252D01*
X183843918Y-125234463D01*
X183967168Y-124936912D01*
X184030000Y-124621033D01*
X184030000Y-124298967D01*
X183967168Y-123983088D01*
X183843918Y-123685537D01*
X183664987Y-123417748D01*
X183437252Y-123190013D01*
X183169463Y-123011082D01*
X182871912Y-122887832D01*
X182556033Y-122825000D01*
X182233967Y-122825000D01*
X181918088Y-122887832D01*
X181620537Y-123011082D01*
X181352748Y-123190013D01*
X181125013Y-123417748D01*
X180946082Y-123685537D01*
X180822832Y-123983088D01*
X180760000Y-124298967D01*
X177530000Y-124298967D01*
X177467168Y-123983088D01*
X177343918Y-123685537D01*
X177164987Y-123417748D01*
X176937252Y-123190013D01*
X176669463Y-123011082D01*
X176371912Y-122887832D01*
X176056033Y-122825000D01*
X175733967Y-122825000D01*
X175418088Y-122887832D01*
X175120537Y-123011082D01*
X174852748Y-123190013D01*
X174625013Y-123417748D01*
X174446082Y-123685537D01*
X174322832Y-123983088D01*
X174260000Y-124298967D01*
X169275000Y-124298967D01*
X169275000Y-124243967D01*
X169212168Y-123928088D01*
X169088918Y-123630537D01*
X168909987Y-123362748D01*
X168682252Y-123135013D01*
X168414463Y-122956082D01*
X168116912Y-122832832D01*
X167801033Y-122770000D01*
X167478967Y-122770000D01*
X167163088Y-122832832D01*
X166865537Y-122956082D01*
X166597748Y-123135013D01*
X166370013Y-123362748D01*
X166191082Y-123630537D01*
X166067832Y-123928088D01*
X166005000Y-124243967D01*
X162775000Y-124243967D01*
X162712168Y-123928088D01*
X162588918Y-123630537D01*
X162409987Y-123362748D01*
X162182252Y-123135013D01*
X161914463Y-122956082D01*
X161616912Y-122832832D01*
X161301033Y-122770000D01*
X160978967Y-122770000D01*
X160663088Y-122832832D01*
X160365537Y-122956082D01*
X160097748Y-123135013D01*
X159870013Y-123362748D01*
X159691082Y-123630537D01*
X159567832Y-123928088D01*
X159505000Y-124243967D01*
X155305000Y-124243967D01*
X155242168Y-123928088D01*
X155118918Y-123630537D01*
X154939987Y-123362748D01*
X154712252Y-123135013D01*
X154444463Y-122956082D01*
X154146912Y-122832832D01*
X153831033Y-122770000D01*
X153508967Y-122770000D01*
X153193088Y-122832832D01*
X152895537Y-122956082D01*
X152627748Y-123135013D01*
X152400013Y-123362748D01*
X152221082Y-123630537D01*
X152097832Y-123928088D01*
X152035000Y-124243967D01*
X148805000Y-124243967D01*
X148742168Y-123928088D01*
X148618918Y-123630537D01*
X148439987Y-123362748D01*
X148212252Y-123135013D01*
X147944463Y-122956082D01*
X147646912Y-122832832D01*
X147331033Y-122770000D01*
X147008967Y-122770000D01*
X146693088Y-122832832D01*
X146395537Y-122956082D01*
X146127748Y-123135013D01*
X145900013Y-123362748D01*
X145721082Y-123630537D01*
X145597832Y-123928088D01*
X145535000Y-124243967D01*
X141335000Y-124243967D01*
X141272168Y-123928088D01*
X141148918Y-123630537D01*
X140969987Y-123362748D01*
X140742252Y-123135013D01*
X140474463Y-122956082D01*
X140176912Y-122832832D01*
X139861033Y-122770000D01*
X139538967Y-122770000D01*
X139223088Y-122832832D01*
X138925537Y-122956082D01*
X138657748Y-123135013D01*
X138430013Y-123362748D01*
X138251082Y-123630537D01*
X138127832Y-123928088D01*
X138065000Y-124243967D01*
X134835000Y-124243967D01*
X134772168Y-123928088D01*
X134648918Y-123630537D01*
X134469987Y-123362748D01*
X134242252Y-123135013D01*
X133974463Y-122956082D01*
X133676912Y-122832832D01*
X133361033Y-122770000D01*
X133038967Y-122770000D01*
X132723088Y-122832832D01*
X132425537Y-122956082D01*
X132157748Y-123135013D01*
X131930013Y-123362748D01*
X131751082Y-123630537D01*
X131627832Y-123928088D01*
X131565000Y-124243967D01*
X127365000Y-124243967D01*
X127302168Y-123928088D01*
X127178918Y-123630537D01*
X126999987Y-123362748D01*
X126772252Y-123135013D01*
X126504463Y-122956082D01*
X126206912Y-122832832D01*
X125891033Y-122770000D01*
X125568967Y-122770000D01*
X125253088Y-122832832D01*
X124955537Y-122956082D01*
X124687748Y-123135013D01*
X124460013Y-123362748D01*
X124281082Y-123630537D01*
X124157832Y-123928088D01*
X124095000Y-124243967D01*
X120865000Y-124243967D01*
X120802168Y-123928088D01*
X120678918Y-123630537D01*
X120499987Y-123362748D01*
X120272252Y-123135013D01*
X120004463Y-122956082D01*
X119706912Y-122832832D01*
X119391033Y-122770000D01*
X119068967Y-122770000D01*
X118753088Y-122832832D01*
X118455537Y-122956082D01*
X118187748Y-123135013D01*
X117960013Y-123362748D01*
X117781082Y-123630537D01*
X117657832Y-123928088D01*
X117595000Y-124243967D01*
X113395000Y-124243967D01*
X113332168Y-123928088D01*
X113327006Y-123915625D01*
X115830631Y-121412000D01*
X136868577Y-121412000D01*
X136906000Y-121415686D01*
X136943423Y-121412000D01*
X136943426Y-121412000D01*
X137055378Y-121400974D01*
X137199015Y-121357402D01*
X137331392Y-121286645D01*
X137447422Y-121191422D01*
X137471284Y-121162346D01*
X146563209Y-112070421D01*
X179124480Y-112070421D01*
X179124480Y-112490979D01*
X179206527Y-112903456D01*
X179367468Y-113292002D01*
X179601117Y-113641683D01*
X179898497Y-113939063D01*
X180248178Y-114172712D01*
X180636724Y-114333653D01*
X181049201Y-114415700D01*
X181469759Y-114415700D01*
X181882236Y-114333653D01*
X182270782Y-114172712D01*
X182620463Y-113939063D01*
X182917843Y-113641683D01*
X183151492Y-113292002D01*
X183312433Y-112903456D01*
X183394480Y-112490979D01*
X183394480Y-112070421D01*
X183312433Y-111657944D01*
X183151492Y-111269398D01*
X182917843Y-110919717D01*
X182620463Y-110622337D01*
X182270782Y-110388688D01*
X181882236Y-110227747D01*
X181469759Y-110145700D01*
X181049201Y-110145700D01*
X180636724Y-110227747D01*
X180248178Y-110388688D01*
X179898497Y-110622337D01*
X179601117Y-110919717D01*
X179367468Y-111269398D01*
X179206527Y-111657944D01*
X179124480Y-112070421D01*
X146563209Y-112070421D01*
X157728666Y-100904965D01*
X157762033Y-100985521D01*
X157853413Y-101122281D01*
X157969719Y-101238587D01*
X158106479Y-101329967D01*
X158258440Y-101392911D01*
X158419760Y-101425000D01*
X158584240Y-101425000D01*
X158736986Y-101394616D01*
X160720370Y-103378000D01*
X159346328Y-103378000D01*
X159247560Y-103337089D01*
X159086240Y-103305000D01*
X158921760Y-103305000D01*
X158760440Y-103337089D01*
X158608479Y-103400033D01*
X158471719Y-103491413D01*
X158355413Y-103607719D01*
X158264033Y-103744479D01*
X158201089Y-103896440D01*
X158169000Y-104057760D01*
X158169000Y-104222240D01*
X158201089Y-104383560D01*
X158264033Y-104535521D01*
X158355413Y-104672281D01*
X158471719Y-104788587D01*
X158608479Y-104879967D01*
X158760440Y-104942911D01*
X158921760Y-104975000D01*
X159086240Y-104975000D01*
X159247560Y-104942911D01*
X159346328Y-104902000D01*
X172682577Y-104902000D01*
X172720000Y-104905686D01*
X172757423Y-104902000D01*
X172757426Y-104902000D01*
X172869378Y-104890974D01*
X173013015Y-104847402D01*
X173145392Y-104776645D01*
X173261422Y-104681422D01*
X173285284Y-104652346D01*
X176653762Y-101283869D01*
X176853368Y-101483475D01*
X177027760Y-101600000D01*
X176853368Y-101716525D01*
X176646525Y-101923368D01*
X176484010Y-102166589D01*
X176372068Y-102436842D01*
X176315000Y-102723740D01*
X176315000Y-103016260D01*
X176372068Y-103303158D01*
X176484010Y-103573411D01*
X176646525Y-103816632D01*
X176853368Y-104023475D01*
X177096589Y-104185990D01*
X177366842Y-104297932D01*
X177653740Y-104355000D01*
X177946260Y-104355000D01*
X178233158Y-104297932D01*
X178503411Y-104185990D01*
X178746632Y-104023475D01*
X178953475Y-103816632D01*
X179071100Y-103640594D01*
X179242412Y-103870269D01*
X179458645Y-104065178D01*
X179708748Y-104214157D01*
X179983109Y-104311481D01*
X180213000Y-104190814D01*
X180213000Y-102997000D01*
X180467000Y-102997000D01*
X180467000Y-104190814D01*
X180696891Y-104311481D01*
X180971252Y-104214157D01*
X181221355Y-104065178D01*
X181437588Y-103870269D01*
X181611641Y-103636920D01*
X181736825Y-103374099D01*
X181781476Y-103226890D01*
X181660155Y-102997000D01*
X180467000Y-102997000D01*
X180213000Y-102997000D01*
X180193000Y-102997000D01*
X180193000Y-102743000D01*
X180213000Y-102743000D01*
X180213000Y-102723000D01*
X180467000Y-102723000D01*
X180467000Y-102743000D01*
X181660155Y-102743000D01*
X181781476Y-102513110D01*
X181736825Y-102365901D01*
X181611641Y-102103080D01*
X181437588Y-101869731D01*
X181221355Y-101674822D01*
X181104466Y-101605195D01*
X181286632Y-101483475D01*
X181493475Y-101276632D01*
X181655990Y-101033411D01*
X181767932Y-100763158D01*
X181825000Y-100476260D01*
X181825000Y-100183740D01*
X181767932Y-99896842D01*
X181655990Y-99626589D01*
X181493475Y-99383368D01*
X181286632Y-99176525D01*
X181112240Y-99060000D01*
X181286632Y-98943475D01*
X181493475Y-98736632D01*
X181655990Y-98493411D01*
X181767932Y-98223158D01*
X181825000Y-97936260D01*
X181825000Y-97643740D01*
X181767932Y-97356842D01*
X181655990Y-97086589D01*
X181493475Y-96843368D01*
X181286632Y-96636525D01*
X181043411Y-96474010D01*
X180773158Y-96362068D01*
X180486260Y-96305000D01*
X180193740Y-96305000D01*
X179906842Y-96362068D01*
X179636589Y-96474010D01*
X179393368Y-96636525D01*
X179261513Y-96768380D01*
X179239502Y-96695820D01*
X179180537Y-96585506D01*
X179101185Y-96488815D01*
X179004494Y-96409463D01*
X178894180Y-96350498D01*
X178774482Y-96314188D01*
X178650000Y-96301928D01*
X176950000Y-96301928D01*
X176825518Y-96314188D01*
X176705820Y-96350498D01*
X176595506Y-96409463D01*
X176498815Y-96488815D01*
X176419463Y-96585506D01*
X176360498Y-96695820D01*
X176324188Y-96815518D01*
X176311928Y-96940000D01*
X176311928Y-98640000D01*
X176318064Y-98702305D01*
X175013820Y-100006550D01*
X174983967Y-99934479D01*
X174892587Y-99797719D01*
X174776281Y-99681413D01*
X174639521Y-99590033D01*
X174535924Y-99547122D01*
X171067804Y-96079003D01*
X171044001Y-96049999D01*
X170928276Y-95955026D01*
X170796247Y-95884454D01*
X170652986Y-95840997D01*
X170541333Y-95830000D01*
X170541322Y-95830000D01*
X170504000Y-95826324D01*
X170466678Y-95830000D01*
X163957733Y-95830000D01*
X163937426Y-95828000D01*
X163199631Y-95828000D01*
X161864131Y-94492500D01*
X169811215Y-94492500D01*
X169858000Y-94497108D01*
X169904785Y-94492500D01*
X170044723Y-94478717D01*
X170224269Y-94424252D01*
X170389741Y-94335806D01*
X170534778Y-94216778D01*
X170564607Y-94180431D01*
X171209538Y-93535500D01*
X172131785Y-93535500D01*
X172271723Y-93521717D01*
X172451269Y-93467252D01*
X172616741Y-93378806D01*
X172761778Y-93259778D01*
X172880806Y-93114741D01*
X172969252Y-92949269D01*
X173023717Y-92769723D01*
X173042108Y-92583000D01*
X173023717Y-92396277D01*
X172969252Y-92216731D01*
X172880806Y-92051259D01*
X172761778Y-91906222D01*
X172616741Y-91787194D01*
X172451269Y-91698748D01*
X172271723Y-91644283D01*
X172131785Y-91630500D01*
X170861784Y-91630500D01*
X170814999Y-91625892D01*
X170628277Y-91644283D01*
X170448731Y-91698748D01*
X170283259Y-91787194D01*
X170138222Y-91906222D01*
X170108393Y-91942569D01*
X169463462Y-92587500D01*
X161643215Y-92587500D01*
X161503277Y-92601283D01*
X161323731Y-92655748D01*
X161158259Y-92744194D01*
X161013222Y-92863222D01*
X160894194Y-93008259D01*
X160805748Y-93173731D01*
X160751283Y-93353277D01*
X160748918Y-93377287D01*
X154632010Y-87260380D01*
X154632010Y-86223589D01*
X158635000Y-86223589D01*
X158635000Y-86496411D01*
X158688225Y-86763989D01*
X158792629Y-87016043D01*
X158944201Y-87242886D01*
X159137114Y-87435799D01*
X159363957Y-87587371D01*
X159616011Y-87691775D01*
X159883589Y-87745000D01*
X160156411Y-87745000D01*
X160423989Y-87691775D01*
X160676043Y-87587371D01*
X160902886Y-87435799D01*
X161095799Y-87242886D01*
X161247371Y-87016043D01*
X161351775Y-86763989D01*
X161405000Y-86496411D01*
X161405000Y-86223589D01*
X163515000Y-86223589D01*
X163515000Y-86496411D01*
X163568225Y-86763989D01*
X163672629Y-87016043D01*
X163824201Y-87242886D01*
X164017114Y-87435799D01*
X164243957Y-87587371D01*
X164496011Y-87691775D01*
X164763589Y-87745000D01*
X165036411Y-87745000D01*
X165303989Y-87691775D01*
X165556043Y-87587371D01*
X165782886Y-87435799D01*
X165975799Y-87242886D01*
X166127371Y-87016043D01*
X166231775Y-86763989D01*
X166285000Y-86496411D01*
X166285000Y-86223589D01*
X166231775Y-85956011D01*
X166127371Y-85703957D01*
X165975799Y-85477114D01*
X165782886Y-85284201D01*
X165556043Y-85132629D01*
X165303989Y-85028225D01*
X165036411Y-84975000D01*
X164763589Y-84975000D01*
X164496011Y-85028225D01*
X164243957Y-85132629D01*
X164017114Y-85284201D01*
X163824201Y-85477114D01*
X163672629Y-85703957D01*
X163568225Y-85956011D01*
X163515000Y-86223589D01*
X161405000Y-86223589D01*
X161351775Y-85956011D01*
X161247371Y-85703957D01*
X161095799Y-85477114D01*
X160902886Y-85284201D01*
X160676043Y-85132629D01*
X160423989Y-85028225D01*
X160156411Y-84975000D01*
X159883589Y-84975000D01*
X159616011Y-85028225D01*
X159363957Y-85132629D01*
X159137114Y-85284201D01*
X158944201Y-85477114D01*
X158792629Y-85703957D01*
X158688225Y-85956011D01*
X158635000Y-86223589D01*
X154632010Y-86223589D01*
X154632010Y-79993433D01*
X154635696Y-79956010D01*
X154628343Y-79881355D01*
X154620984Y-79806632D01*
X154577412Y-79662995D01*
X154508002Y-79533138D01*
X154506655Y-79530617D01*
X154444583Y-79454983D01*
X154411432Y-79414588D01*
X154382356Y-79390726D01*
X151441284Y-76449654D01*
X151417422Y-76420578D01*
X151301392Y-76325355D01*
X151169015Y-76254598D01*
X151025378Y-76211026D01*
X150913426Y-76200000D01*
X150913423Y-76200000D01*
X150876000Y-76196314D01*
X150838577Y-76200000D01*
X136232328Y-76200000D01*
X136133560Y-76159089D01*
X135972240Y-76127000D01*
X135807760Y-76127000D01*
X135646440Y-76159089D01*
X135494479Y-76222033D01*
X135357719Y-76313413D01*
X135241413Y-76429719D01*
X135150033Y-76566479D01*
X135087089Y-76718440D01*
X135055000Y-76879760D01*
X135055000Y-76962000D01*
X134935631Y-76962000D01*
X134112000Y-76138370D01*
X134112000Y-75047422D01*
X134115686Y-75009999D01*
X134112000Y-74972574D01*
X134105000Y-74901500D01*
X134105000Y-74847760D01*
X134072911Y-74686440D01*
X134009967Y-74534479D01*
X133918587Y-74397719D01*
X133802281Y-74281413D01*
X133665521Y-74190033D01*
X133513560Y-74127089D01*
X133352240Y-74095000D01*
X133187760Y-74095000D01*
X133026440Y-74127089D01*
X132874479Y-74190033D01*
X132737719Y-74281413D01*
X132621413Y-74397719D01*
X132530033Y-74534479D01*
X132467089Y-74686440D01*
X132435000Y-74847760D01*
X132435000Y-75012240D01*
X132467089Y-75173560D01*
X132530033Y-75325521D01*
X132588001Y-75412276D01*
X132588000Y-76416576D01*
X132584314Y-76454000D01*
X132588000Y-76491423D01*
X132588000Y-76491425D01*
X132599026Y-76603377D01*
X132642598Y-76747014D01*
X132675535Y-76808635D01*
X132713355Y-76879392D01*
X132749131Y-76922985D01*
X132808578Y-76995422D01*
X132837654Y-77019284D01*
X133234380Y-77416010D01*
X124467640Y-77416010D01*
X123952000Y-76900370D01*
X123952000Y-75047422D01*
X123955686Y-75009999D01*
X123952000Y-74972574D01*
X123945000Y-74901500D01*
X123945000Y-74847760D01*
X123912911Y-74686440D01*
X123849967Y-74534479D01*
X123758587Y-74397719D01*
X123642281Y-74281413D01*
X123505521Y-74190033D01*
X123353560Y-74127089D01*
X123192240Y-74095000D01*
X123027760Y-74095000D01*
X122866440Y-74127089D01*
X122714479Y-74190033D01*
X122577719Y-74281413D01*
X122461413Y-74397719D01*
X122370033Y-74534479D01*
X122307089Y-74686440D01*
X122275000Y-74847760D01*
X122275000Y-75012240D01*
X122307089Y-75173560D01*
X122370033Y-75325521D01*
X122428001Y-75412276D01*
X122428000Y-77178576D01*
X122424314Y-77216000D01*
X122428000Y-77253423D01*
X122428000Y-77253425D01*
X122439026Y-77365377D01*
X122482598Y-77509014D01*
X122499890Y-77541365D01*
X122553355Y-77641392D01*
X122582755Y-77677216D01*
X122648578Y-77757422D01*
X122677654Y-77781284D01*
X123586726Y-78690356D01*
X123610588Y-78719432D01*
X123684229Y-78779867D01*
X123726617Y-78814655D01*
X123797374Y-78852475D01*
X123858995Y-78885412D01*
X124002632Y-78928984D01*
X124114584Y-78940010D01*
X124114587Y-78940010D01*
X124152010Y-78943696D01*
X124189433Y-78940010D01*
X150252380Y-78940010D01*
X152146001Y-80833631D01*
X152146000Y-88100577D01*
X152142314Y-88138000D01*
X152146000Y-88175423D01*
X152146000Y-88175425D01*
X152157026Y-88287377D01*
X152200598Y-88431014D01*
X152200599Y-88431015D01*
X152271355Y-88563392D01*
X152305077Y-88604482D01*
X152366578Y-88679422D01*
X152395654Y-88703284D01*
X159004001Y-95311631D01*
X159004000Y-95669671D01*
X158963089Y-95768440D01*
X158931000Y-95929760D01*
X158931000Y-96012000D01*
X157795631Y-96012000D01*
X145542000Y-83758370D01*
X145542000Y-83013221D01*
X145636927Y-82962481D01*
X145870661Y-82770661D01*
X146050000Y-82552135D01*
X146229339Y-82770661D01*
X146463074Y-82962481D01*
X146729740Y-83105017D01*
X147019088Y-83192790D01*
X147320000Y-83222427D01*
X147620913Y-83192790D01*
X147910261Y-83105017D01*
X148176927Y-82962481D01*
X148410661Y-82770661D01*
X148594781Y-82546309D01*
X148654252Y-82638396D01*
X148864394Y-82855210D01*
X149112796Y-83026862D01*
X149389913Y-83146755D01*
X149495260Y-83171036D01*
X149733000Y-83050378D01*
X149733000Y-81407000D01*
X149987000Y-81407000D01*
X149987000Y-83050378D01*
X150224740Y-83171036D01*
X150330087Y-83146755D01*
X150607204Y-83026862D01*
X150855606Y-82855210D01*
X151065748Y-82638396D01*
X151229554Y-82384751D01*
X151340729Y-82104023D01*
X151395000Y-81807000D01*
X151395000Y-81407000D01*
X149987000Y-81407000D01*
X149733000Y-81407000D01*
X149713000Y-81407000D01*
X149713000Y-81153000D01*
X149733000Y-81153000D01*
X149733000Y-79509622D01*
X149987000Y-79509622D01*
X149987000Y-81153000D01*
X151395000Y-81153000D01*
X151395000Y-80753000D01*
X151340729Y-80455977D01*
X151229554Y-80175249D01*
X151065748Y-79921604D01*
X150855606Y-79704790D01*
X150607204Y-79533138D01*
X150330087Y-79413245D01*
X150224740Y-79388964D01*
X149987000Y-79509622D01*
X149733000Y-79509622D01*
X149495260Y-79388964D01*
X149389913Y-79413245D01*
X149112796Y-79533138D01*
X148864394Y-79704790D01*
X148654252Y-79921604D01*
X148594781Y-80013691D01*
X148410661Y-79789339D01*
X148176926Y-79597519D01*
X147910260Y-79454983D01*
X147620912Y-79367210D01*
X147320000Y-79337573D01*
X147019087Y-79367210D01*
X146729739Y-79454983D01*
X146463073Y-79597519D01*
X146229339Y-79789339D01*
X146050000Y-80007865D01*
X145870661Y-79789339D01*
X145636926Y-79597519D01*
X145370260Y-79454983D01*
X145080912Y-79367210D01*
X144780000Y-79337573D01*
X144479087Y-79367210D01*
X144189739Y-79454983D01*
X143923073Y-79597519D01*
X143689339Y-79789339D01*
X143510000Y-80007865D01*
X143330661Y-79789339D01*
X143096926Y-79597519D01*
X142830260Y-79454983D01*
X142540912Y-79367210D01*
X142240000Y-79337573D01*
X141939087Y-79367210D01*
X141649739Y-79454983D01*
X141383073Y-79597519D01*
X141149339Y-79789339D01*
X140970000Y-80007865D01*
X140790661Y-79789339D01*
X140556926Y-79597519D01*
X140290260Y-79454983D01*
X140000912Y-79367210D01*
X139700000Y-79337573D01*
X139399087Y-79367210D01*
X139109739Y-79454983D01*
X138843073Y-79597519D01*
X138609339Y-79789339D01*
X138430000Y-80007865D01*
X138250661Y-79789339D01*
X138016926Y-79597519D01*
X137750260Y-79454983D01*
X137460912Y-79367210D01*
X137160000Y-79337573D01*
X136859087Y-79367210D01*
X136569739Y-79454983D01*
X136303073Y-79597519D01*
X136069339Y-79789339D01*
X135890000Y-80007865D01*
X135710661Y-79789339D01*
X135476926Y-79597519D01*
X135210260Y-79454983D01*
X134920912Y-79367210D01*
X134620000Y-79337573D01*
X134319087Y-79367210D01*
X134029739Y-79454983D01*
X133763073Y-79597519D01*
X133529339Y-79789339D01*
X133350000Y-80007865D01*
X133170661Y-79789339D01*
X132936926Y-79597519D01*
X132670260Y-79454983D01*
X132380912Y-79367210D01*
X132080000Y-79337573D01*
X131779087Y-79367210D01*
X131489739Y-79454983D01*
X131223073Y-79597519D01*
X130989339Y-79789339D01*
X130810000Y-80007865D01*
X130630661Y-79789339D01*
X130396926Y-79597519D01*
X130130260Y-79454983D01*
X129840912Y-79367210D01*
X129540000Y-79337573D01*
X129239087Y-79367210D01*
X128949739Y-79454983D01*
X128683073Y-79597519D01*
X128449339Y-79789339D01*
X128270000Y-80007865D01*
X128090661Y-79789339D01*
X127856926Y-79597519D01*
X127590260Y-79454983D01*
X127300912Y-79367210D01*
X127000000Y-79337573D01*
X126699087Y-79367210D01*
X126409739Y-79454983D01*
X126143073Y-79597519D01*
X125909339Y-79789339D01*
X125730000Y-80007865D01*
X125550661Y-79789339D01*
X125316926Y-79597519D01*
X125050260Y-79454983D01*
X124760912Y-79367210D01*
X124460000Y-79337573D01*
X124159087Y-79367210D01*
X123869739Y-79454983D01*
X123603073Y-79597519D01*
X123369339Y-79789339D01*
X123185219Y-80013692D01*
X123125748Y-79921604D01*
X122915606Y-79704790D01*
X122667204Y-79533138D01*
X122390087Y-79413245D01*
X122284740Y-79388964D01*
X122047000Y-79509622D01*
X122047000Y-81153000D01*
X122067000Y-81153000D01*
X122067000Y-81407000D01*
X122047000Y-81407000D01*
X122047000Y-81427000D01*
X121793000Y-81427000D01*
X121793000Y-81407000D01*
X121773000Y-81407000D01*
X121773000Y-81153000D01*
X121793000Y-81153000D01*
X121793000Y-79509622D01*
X121555260Y-79388964D01*
X121449913Y-79413245D01*
X121172796Y-79533138D01*
X120924394Y-79704790D01*
X120714252Y-79921604D01*
X120654781Y-80013691D01*
X120470661Y-79789339D01*
X120236926Y-79597519D01*
X119970260Y-79454983D01*
X119680912Y-79367210D01*
X119380000Y-79337573D01*
X119079087Y-79367210D01*
X118789739Y-79454983D01*
X118523073Y-79597519D01*
X118289339Y-79789339D01*
X118110000Y-80007865D01*
X117930661Y-79789339D01*
X117696926Y-79597519D01*
X117430260Y-79454983D01*
X117140912Y-79367210D01*
X116840000Y-79337573D01*
X116539087Y-79367210D01*
X116249739Y-79454983D01*
X115983073Y-79597519D01*
X115749339Y-79789339D01*
X115570000Y-80007865D01*
X115390661Y-79789339D01*
X115252500Y-79675954D01*
X115252500Y-78118538D01*
X119520538Y-73850500D01*
X137019462Y-73850500D01*
X138739397Y-75570436D01*
X138769222Y-75606778D01*
X138914259Y-75725806D01*
X139079731Y-75814252D01*
X139259277Y-75868717D01*
X139446000Y-75887108D01*
X139492785Y-75882500D01*
X146257214Y-75882500D01*
X146303999Y-75887108D01*
X146350784Y-75882500D01*
X165975462Y-75882500D01*
X175577501Y-85484540D01*
X175577500Y-86482393D01*
X175376525Y-86683368D01*
X175214010Y-86926589D01*
X175102068Y-87196842D01*
X175045000Y-87483740D01*
X175045000Y-87776260D01*
X175102068Y-88063158D01*
X175214010Y-88333411D01*
X175376525Y-88576632D01*
X175583368Y-88783475D01*
X175826589Y-88945990D01*
X176096842Y-89057932D01*
X176383740Y-89115000D01*
X176676260Y-89115000D01*
X176963158Y-89057932D01*
X177233411Y-88945990D01*
X177476632Y-88783475D01*
X177608487Y-88651620D01*
X177630498Y-88724180D01*
X177689463Y-88834494D01*
X177768815Y-88931185D01*
X177865506Y-89010537D01*
X177975820Y-89069502D01*
X178095518Y-89105812D01*
X178220000Y-89118072D01*
X179920000Y-89118072D01*
X180044482Y-89105812D01*
X180164180Y-89069502D01*
X180274494Y-89010537D01*
X180371185Y-88931185D01*
X180450537Y-88834494D01*
X180509502Y-88724180D01*
X180545812Y-88604482D01*
X180558072Y-88480000D01*
X180558072Y-86780000D01*
X180545812Y-86655518D01*
X180509502Y-86535820D01*
X180450537Y-86425506D01*
X180371185Y-86328815D01*
X180274494Y-86249463D01*
X180164180Y-86190498D01*
X180044482Y-86154188D01*
X179920000Y-86141928D01*
X178220000Y-86141928D01*
X178095518Y-86154188D01*
X177975820Y-86190498D01*
X177865506Y-86249463D01*
X177768815Y-86328815D01*
X177689463Y-86425506D01*
X177630498Y-86535820D01*
X177608487Y-86608380D01*
X177482500Y-86482393D01*
X177482500Y-85136785D01*
X177487108Y-85090000D01*
X177468717Y-84903277D01*
X177414252Y-84723730D01*
X177370029Y-84640995D01*
X177325806Y-84558259D01*
X177206778Y-84413222D01*
X177170436Y-84383397D01*
X173856760Y-81069721D01*
X179125000Y-81069721D01*
X179125000Y-81490279D01*
X179207047Y-81902756D01*
X179367988Y-82291302D01*
X179601637Y-82640983D01*
X179899017Y-82938363D01*
X180248698Y-83172012D01*
X180637244Y-83332953D01*
X181049721Y-83415000D01*
X181470279Y-83415000D01*
X181882756Y-83332953D01*
X182271302Y-83172012D01*
X182620983Y-82938363D01*
X182918363Y-82640983D01*
X183152012Y-82291302D01*
X183312953Y-81902756D01*
X183395000Y-81490279D01*
X183395000Y-81069721D01*
X183312953Y-80657244D01*
X183152012Y-80268698D01*
X182918363Y-79919017D01*
X182620983Y-79621637D01*
X182271302Y-79387988D01*
X181882756Y-79227047D01*
X181470279Y-79145000D01*
X181049721Y-79145000D01*
X180637244Y-79227047D01*
X180248698Y-79387988D01*
X179899017Y-79621637D01*
X179601637Y-79919017D01*
X179367988Y-80268698D01*
X179207047Y-80657244D01*
X179125000Y-81069721D01*
X173856760Y-81069721D01*
X167076607Y-74289569D01*
X167046778Y-74253222D01*
X166901741Y-74134194D01*
X166736269Y-74045748D01*
X166556723Y-73991283D01*
X166416785Y-73977500D01*
X166370000Y-73972892D01*
X166323215Y-73977500D01*
X163197999Y-73977500D01*
X163311560Y-73954911D01*
X163463521Y-73891967D01*
X163600281Y-73800587D01*
X163716587Y-73684281D01*
X163807967Y-73547521D01*
X163870911Y-73395560D01*
X163903000Y-73234240D01*
X163903000Y-73069760D01*
X163870911Y-72908440D01*
X163807967Y-72756479D01*
X163716587Y-72619719D01*
X163600281Y-72503413D01*
X163463521Y-72412033D01*
X163311560Y-72349089D01*
X163150240Y-72317000D01*
X162985760Y-72317000D01*
X162824440Y-72349089D01*
X162725672Y-72390000D01*
X154080811Y-72390000D01*
X154155967Y-72277521D01*
X154196878Y-72178752D01*
X155505279Y-70870352D01*
X155505284Y-70870346D01*
X156316471Y-70059159D01*
X156335820Y-70069502D01*
X156455518Y-70105812D01*
X156580000Y-70118072D01*
X158380000Y-70118072D01*
X158504482Y-70105812D01*
X158624180Y-70069502D01*
X158734494Y-70010537D01*
X158831185Y-69931185D01*
X158910537Y-69834494D01*
X158969502Y-69724180D01*
X158975056Y-69705873D01*
X159041495Y-69772312D01*
X159292905Y-69940299D01*
X159572257Y-70056011D01*
X159868816Y-70115000D01*
X160171184Y-70115000D01*
X160467743Y-70056011D01*
X160747095Y-69940299D01*
X160998505Y-69772312D01*
X161212312Y-69558505D01*
X161380299Y-69307095D01*
X161496011Y-69027743D01*
X161555000Y-68731184D01*
X161555000Y-68428816D01*
X161496011Y-68132257D01*
X161482650Y-68100000D01*
X167791928Y-68100000D01*
X167791928Y-71600000D01*
X167804188Y-71724482D01*
X167840498Y-71844180D01*
X167899463Y-71954494D01*
X167978815Y-72051185D01*
X168075506Y-72130537D01*
X168185820Y-72189502D01*
X168305518Y-72225812D01*
X168430000Y-72238072D01*
X171930000Y-72238072D01*
X172054482Y-72225812D01*
X172174180Y-72189502D01*
X172284494Y-72130537D01*
X172381185Y-72051185D01*
X172460537Y-71954494D01*
X172519502Y-71844180D01*
X172555812Y-71724482D01*
X172568072Y-71600000D01*
X173791928Y-71600000D01*
X173804188Y-71724482D01*
X173840498Y-71844180D01*
X173899463Y-71954494D01*
X173978815Y-72051185D01*
X174075506Y-72130537D01*
X174185820Y-72189502D01*
X174305518Y-72225812D01*
X174430000Y-72238072D01*
X175894250Y-72235000D01*
X176053000Y-72076250D01*
X176053000Y-69977000D01*
X176307000Y-69977000D01*
X176307000Y-72076250D01*
X176465750Y-72235000D01*
X177930000Y-72238072D01*
X178054482Y-72225812D01*
X178174180Y-72189502D01*
X178284494Y-72130537D01*
X178381185Y-72051185D01*
X178460537Y-71954494D01*
X178519502Y-71844180D01*
X178555812Y-71724482D01*
X178568072Y-71600000D01*
X178565000Y-70135750D01*
X178406250Y-69977000D01*
X176307000Y-69977000D01*
X176053000Y-69977000D01*
X173953750Y-69977000D01*
X173795000Y-70135750D01*
X173791928Y-71600000D01*
X172568072Y-71600000D01*
X172568072Y-68100000D01*
X172555812Y-67975518D01*
X172519502Y-67855820D01*
X172460537Y-67745506D01*
X172381185Y-67648815D01*
X172284494Y-67569463D01*
X172222655Y-67536409D01*
X172894250Y-67535000D01*
X173053000Y-67376250D01*
X173053000Y-65277000D01*
X173307000Y-65277000D01*
X173307000Y-67376250D01*
X173465750Y-67535000D01*
X174137345Y-67536409D01*
X174075506Y-67569463D01*
X173978815Y-67648815D01*
X173899463Y-67745506D01*
X173840498Y-67855820D01*
X173804188Y-67975518D01*
X173791928Y-68100000D01*
X173795000Y-69564250D01*
X173953750Y-69723000D01*
X176053000Y-69723000D01*
X176053000Y-67623750D01*
X176307000Y-67623750D01*
X176307000Y-69723000D01*
X178406250Y-69723000D01*
X178565000Y-69564250D01*
X178568072Y-68100000D01*
X178555812Y-67975518D01*
X178519502Y-67855820D01*
X178460537Y-67745506D01*
X178381185Y-67648815D01*
X178284494Y-67569463D01*
X178174180Y-67510498D01*
X178054482Y-67474188D01*
X177930000Y-67461928D01*
X176465750Y-67465000D01*
X176307000Y-67623750D01*
X176053000Y-67623750D01*
X175894250Y-67465000D01*
X175222655Y-67463591D01*
X175284494Y-67430537D01*
X175381185Y-67351185D01*
X175460537Y-67254494D01*
X175519502Y-67144180D01*
X175555812Y-67024482D01*
X175568072Y-66900000D01*
X175565000Y-65435750D01*
X175406250Y-65277000D01*
X173307000Y-65277000D01*
X173053000Y-65277000D01*
X170953750Y-65277000D01*
X170795000Y-65435750D01*
X170791928Y-66900000D01*
X170804188Y-67024482D01*
X170840498Y-67144180D01*
X170899463Y-67254494D01*
X170978815Y-67351185D01*
X171075506Y-67430537D01*
X171134233Y-67461928D01*
X168430000Y-67461928D01*
X168305518Y-67474188D01*
X168185820Y-67510498D01*
X168075506Y-67569463D01*
X167978815Y-67648815D01*
X167899463Y-67745506D01*
X167840498Y-67855820D01*
X167804188Y-67975518D01*
X167791928Y-68100000D01*
X161482650Y-68100000D01*
X161380299Y-67852905D01*
X161212312Y-67601495D01*
X160998505Y-67387688D01*
X160747095Y-67219701D01*
X160467743Y-67103989D01*
X160171184Y-67045000D01*
X159868816Y-67045000D01*
X159572257Y-67103989D01*
X159292905Y-67219701D01*
X159041495Y-67387688D01*
X158975056Y-67454127D01*
X158969502Y-67435820D01*
X158910537Y-67325506D01*
X158831185Y-67228815D01*
X158734494Y-67149463D01*
X158624180Y-67090498D01*
X158504482Y-67054188D01*
X158380000Y-67041928D01*
X156580000Y-67041928D01*
X156455518Y-67054188D01*
X156335820Y-67090498D01*
X156225506Y-67149463D01*
X156128815Y-67228815D01*
X156049463Y-67325506D01*
X155990498Y-67435820D01*
X155954188Y-67555518D01*
X155941928Y-67680000D01*
X155941928Y-68278442D01*
X154427654Y-69792716D01*
X154427648Y-69792721D01*
X153119248Y-71101122D01*
X153020479Y-71142033D01*
X152883719Y-71233413D01*
X152767413Y-71349719D01*
X152676033Y-71486479D01*
X152646180Y-71558550D01*
X151202630Y-70115000D01*
X151281184Y-70115000D01*
X151577743Y-70056011D01*
X151857095Y-69940299D01*
X152108505Y-69772312D01*
X152322312Y-69558505D01*
X152490299Y-69307095D01*
X152606011Y-69027743D01*
X152665000Y-68731184D01*
X152665000Y-68428816D01*
X152606011Y-68132257D01*
X152490299Y-67852905D01*
X152322312Y-67601495D01*
X152108505Y-67387688D01*
X151857095Y-67219701D01*
X151577743Y-67103989D01*
X151281184Y-67045000D01*
X150978816Y-67045000D01*
X150682257Y-67103989D01*
X150402905Y-67219701D01*
X150151495Y-67387688D01*
X150085056Y-67454127D01*
X150079502Y-67435820D01*
X150020537Y-67325506D01*
X149941185Y-67228815D01*
X149844494Y-67149463D01*
X149734180Y-67090498D01*
X149614482Y-67054188D01*
X149490000Y-67041928D01*
X147690000Y-67041928D01*
X147565518Y-67054188D01*
X147445820Y-67090498D01*
X147335506Y-67149463D01*
X147238815Y-67228815D01*
X147159463Y-67325506D01*
X147100498Y-67435820D01*
X147064188Y-67555518D01*
X147051928Y-67680000D01*
X147051928Y-69480000D01*
X147064188Y-69604482D01*
X147100498Y-69724180D01*
X147159463Y-69834494D01*
X147238815Y-69931185D01*
X147335506Y-70010537D01*
X147445820Y-70069502D01*
X147565518Y-70105812D01*
X147690000Y-70118072D01*
X149050442Y-70118072D01*
X152596721Y-73664352D01*
X152620578Y-73693422D01*
X152736608Y-73788645D01*
X152868985Y-73859402D01*
X153012622Y-73902974D01*
X153124574Y-73914000D01*
X153124576Y-73914000D01*
X153161999Y-73917686D01*
X153199422Y-73914000D01*
X162725672Y-73914000D01*
X162824440Y-73954911D01*
X162938001Y-73977500D01*
X146698538Y-73977500D01*
X145732500Y-73011462D01*
X145732500Y-63400000D01*
X170791928Y-63400000D01*
X170795000Y-64864250D01*
X170953750Y-65023000D01*
X173053000Y-65023000D01*
X173053000Y-62923750D01*
X173307000Y-62923750D01*
X173307000Y-65023000D01*
X175406250Y-65023000D01*
X175565000Y-64864250D01*
X175568072Y-63400000D01*
X175555812Y-63275518D01*
X175519502Y-63155820D01*
X175460537Y-63045506D01*
X175381185Y-62948815D01*
X175284494Y-62869463D01*
X175174180Y-62810498D01*
X175054482Y-62774188D01*
X174930000Y-62761928D01*
X173465750Y-62765000D01*
X173307000Y-62923750D01*
X173053000Y-62923750D01*
X172894250Y-62765000D01*
X171430000Y-62761928D01*
X171305518Y-62774188D01*
X171185820Y-62810498D01*
X171075506Y-62869463D01*
X170978815Y-62948815D01*
X170899463Y-63045506D01*
X170840498Y-63155820D01*
X170804188Y-63275518D01*
X170791928Y-63400000D01*
X145732500Y-63400000D01*
X145732500Y-60837607D01*
X145927607Y-60642500D01*
X146172393Y-60642500D01*
X146373368Y-60843475D01*
X146616589Y-61005990D01*
X146886842Y-61117932D01*
X147173740Y-61175000D01*
X147466260Y-61175000D01*
X147753158Y-61117932D01*
X148023411Y-61005990D01*
X148266632Y-60843475D01*
X148473475Y-60636632D01*
X148590000Y-60462240D01*
X148706525Y-60636632D01*
X148913368Y-60843475D01*
X149156589Y-61005990D01*
X149426842Y-61117932D01*
X149713740Y-61175000D01*
X150006260Y-61175000D01*
X150293158Y-61117932D01*
X150563411Y-61005990D01*
X150806632Y-60843475D01*
X151013475Y-60636632D01*
X151175990Y-60393411D01*
X151287932Y-60123158D01*
X151345000Y-59836260D01*
X151345000Y-59543740D01*
X151287932Y-59256842D01*
X151175990Y-58986589D01*
X151013475Y-58743368D01*
X150806632Y-58536525D01*
X150632240Y-58420000D01*
X150806632Y-58303475D01*
X151013475Y-58096632D01*
X151175990Y-57853411D01*
X151287932Y-57583158D01*
X151345000Y-57296260D01*
X151345000Y-57003740D01*
X151287932Y-56716842D01*
X151175990Y-56446589D01*
X151013475Y-56203368D01*
X150806632Y-55996525D01*
X150563411Y-55834010D01*
X150293158Y-55722068D01*
X150006260Y-55665000D01*
X149713740Y-55665000D01*
X149426842Y-55722068D01*
X149156589Y-55834010D01*
X148913368Y-55996525D01*
X148706525Y-56203368D01*
X148590000Y-56377760D01*
X148473475Y-56203368D01*
X148266632Y-55996525D01*
X148023411Y-55834010D01*
X147753158Y-55722068D01*
X147466260Y-55665000D01*
X147173740Y-55665000D01*
X146886842Y-55722068D01*
X146616589Y-55834010D01*
X146373368Y-55996525D01*
X146172393Y-56197500D01*
X145927607Y-56197500D01*
X145726632Y-55996525D01*
X145483411Y-55834010D01*
X145213158Y-55722068D01*
X144926260Y-55665000D01*
X144633740Y-55665000D01*
X144346842Y-55722068D01*
X144076589Y-55834010D01*
X143833368Y-55996525D01*
X143632393Y-56197500D01*
X143387607Y-56197500D01*
X143186632Y-55996525D01*
X142943411Y-55834010D01*
X142673158Y-55722068D01*
X142386260Y-55665000D01*
X142093740Y-55665000D01*
X141806842Y-55722068D01*
X141536589Y-55834010D01*
X141293368Y-55996525D01*
X141086525Y-56203368D01*
X140970000Y-56377760D01*
X140853475Y-56203368D01*
X140646632Y-55996525D01*
X140403411Y-55834010D01*
X140133158Y-55722068D01*
X139846260Y-55665000D01*
X139553740Y-55665000D01*
X139266842Y-55722068D01*
X138996589Y-55834010D01*
X138753368Y-55996525D01*
X138546525Y-56203368D01*
X138384010Y-56446589D01*
X138272068Y-56716842D01*
X138215000Y-57003740D01*
X138215000Y-57296260D01*
X138272068Y-57583158D01*
X138384010Y-57853411D01*
X138546525Y-58096632D01*
X138678380Y-58228487D01*
X138605820Y-58250498D01*
X138495506Y-58309463D01*
X138398815Y-58388815D01*
X138319463Y-58485506D01*
X138260498Y-58595820D01*
X138224188Y-58715518D01*
X138211928Y-58840000D01*
X138211928Y-60540000D01*
X138224188Y-60664482D01*
X138260498Y-60784180D01*
X138319463Y-60894494D01*
X138398815Y-60991185D01*
X138495506Y-61070537D01*
X138605820Y-61129502D01*
X138725518Y-61165812D01*
X138850000Y-61178072D01*
X140550000Y-61178072D01*
X140674482Y-61165812D01*
X140794180Y-61129502D01*
X140904494Y-61070537D01*
X141001185Y-60991185D01*
X141080537Y-60894494D01*
X141139502Y-60784180D01*
X141161513Y-60711620D01*
X141293368Y-60843475D01*
X141536589Y-61005990D01*
X141806842Y-61117932D01*
X142093740Y-61175000D01*
X142386260Y-61175000D01*
X142673158Y-61117932D01*
X142943411Y-61005990D01*
X143186632Y-60843475D01*
X143387607Y-60642500D01*
X143632393Y-60642500D01*
X143827500Y-60837607D01*
X143827500Y-61006784D01*
X143827501Y-61006794D01*
X143827500Y-73359215D01*
X143822892Y-73406000D01*
X143827500Y-73452784D01*
X143841283Y-73592722D01*
X143895748Y-73772268D01*
X143984194Y-73937741D01*
X144016823Y-73977500D01*
X139840539Y-73977500D01*
X138120607Y-72257569D01*
X138090778Y-72221222D01*
X137945741Y-72102194D01*
X137780269Y-72013748D01*
X137600723Y-71959283D01*
X137460785Y-71945500D01*
X137414000Y-71940892D01*
X137367215Y-71945500D01*
X119172785Y-71945500D01*
X119126000Y-71940892D01*
X119079215Y-71945500D01*
X118939277Y-71959283D01*
X118849504Y-71986515D01*
X118759730Y-72013748D01*
X118726747Y-72031378D01*
X118594259Y-72102194D01*
X118449222Y-72221222D01*
X118419393Y-72257569D01*
X113659569Y-77017393D01*
X113623222Y-77047222D01*
X113504194Y-77192259D01*
X113415748Y-77357732D01*
X113393527Y-77430985D01*
X113361283Y-77537278D01*
X113342892Y-77724000D01*
X113347500Y-77770785D01*
X113347501Y-79675953D01*
X113254495Y-79752280D01*
X113249502Y-79735820D01*
X113190537Y-79625506D01*
X113111185Y-79528815D01*
X113014494Y-79449463D01*
X112904180Y-79390498D01*
X112784482Y-79354188D01*
X112660000Y-79341928D01*
X112045750Y-79345000D01*
X111887000Y-79503750D01*
X111887000Y-81153000D01*
X111907000Y-81153000D01*
X111907000Y-81407000D01*
X111887000Y-81407000D01*
X111887000Y-83056250D01*
X112045750Y-83215000D01*
X112660000Y-83218072D01*
X112784482Y-83205812D01*
X112904180Y-83169502D01*
X113014494Y-83110537D01*
X113111185Y-83031185D01*
X113190537Y-82934494D01*
X113249502Y-82824180D01*
X113254495Y-82807720D01*
X113443074Y-82962481D01*
X113709740Y-83105017D01*
X113999088Y-83192790D01*
X114300000Y-83222427D01*
X114600913Y-83192790D01*
X114890261Y-83105017D01*
X115156927Y-82962481D01*
X115390661Y-82770661D01*
X115570000Y-82552135D01*
X115749339Y-82770661D01*
X115983074Y-82962481D01*
X116249740Y-83105017D01*
X116539088Y-83192790D01*
X116840000Y-83222427D01*
X117140913Y-83192790D01*
X117430261Y-83105017D01*
X117696927Y-82962481D01*
X117930661Y-82770661D01*
X118110000Y-82552135D01*
X118289339Y-82770661D01*
X118523074Y-82962481D01*
X118789740Y-83105017D01*
X119079088Y-83192790D01*
X119380000Y-83222427D01*
X119680913Y-83192790D01*
X119970261Y-83105017D01*
X120072656Y-83050286D01*
X122370720Y-85348351D01*
X122394578Y-85377422D01*
X122510608Y-85472645D01*
X122642985Y-85543402D01*
X122786622Y-85586974D01*
X122898574Y-85598000D01*
X122898576Y-85598000D01*
X122935999Y-85601686D01*
X122973422Y-85598000D01*
X140908370Y-85598000D01*
X153290588Y-97980219D01*
X153244240Y-97971000D01*
X153079760Y-97971000D01*
X152918440Y-98003089D01*
X152766479Y-98066033D01*
X152629719Y-98157413D01*
X152513413Y-98273719D01*
X152422033Y-98410479D01*
X152381122Y-98509248D01*
X143956370Y-106934000D01*
X132371422Y-106934000D01*
X132333999Y-106930314D01*
X132296576Y-106934000D01*
X132296574Y-106934000D01*
X132184622Y-106945026D01*
X132040985Y-106988598D01*
X131908608Y-107059355D01*
X131792578Y-107154578D01*
X131768721Y-107183648D01*
X130513248Y-108439122D01*
X130414479Y-108480033D01*
X130277719Y-108571413D01*
X130161413Y-108687719D01*
X130070033Y-108824479D01*
X130007089Y-108976440D01*
X129975000Y-109137760D01*
X129975000Y-109302240D01*
X130007089Y-109463560D01*
X130070033Y-109615521D01*
X130161413Y-109752281D01*
X130277719Y-109868587D01*
X130414479Y-109959967D01*
X130566440Y-110022911D01*
X130727760Y-110055000D01*
X130892240Y-110055000D01*
X131053560Y-110022911D01*
X131205521Y-109959967D01*
X131342281Y-109868587D01*
X131458587Y-109752281D01*
X131549967Y-109615521D01*
X131590878Y-109516752D01*
X132649631Y-108458000D01*
X140627672Y-108458000D01*
X140574479Y-108480033D01*
X140437719Y-108571413D01*
X140321413Y-108687719D01*
X140230033Y-108824479D01*
X140167089Y-108976440D01*
X140135000Y-109137760D01*
X140135000Y-109302240D01*
X140167089Y-109463560D01*
X140230033Y-109615521D01*
X140321413Y-109752281D01*
X140437719Y-109868587D01*
X140574479Y-109959967D01*
X140726440Y-110022911D01*
X140887760Y-110055000D01*
X141052240Y-110055000D01*
X141213560Y-110022911D01*
X141312328Y-109982000D01*
X143726581Y-109982000D01*
X143764004Y-109985686D01*
X143801427Y-109982000D01*
X143801430Y-109982000D01*
X143913382Y-109970974D01*
X144057019Y-109927402D01*
X144189396Y-109856645D01*
X144305426Y-109761422D01*
X144329288Y-109732346D01*
X153458753Y-100602882D01*
X153557521Y-100561971D01*
X153694281Y-100470591D01*
X153810587Y-100354285D01*
X153841055Y-100308686D01*
X154419122Y-100886753D01*
X154460033Y-100985521D01*
X154551413Y-101122281D01*
X154667719Y-101238587D01*
X154804479Y-101329967D01*
X154956440Y-101392911D01*
X155064052Y-101414317D01*
X136590370Y-119888000D01*
X115552423Y-119888000D01*
X115515000Y-119884314D01*
X115477577Y-119888000D01*
X115477574Y-119888000D01*
X115365622Y-119899026D01*
X115221985Y-119942598D01*
X115160364Y-119975535D01*
X115089607Y-120013355D01*
X115006904Y-120081228D01*
X114973578Y-120108578D01*
X114949721Y-120137648D01*
X112249375Y-122837994D01*
X112236912Y-122832832D01*
X111921033Y-122770000D01*
X111598967Y-122770000D01*
X111283088Y-122832832D01*
X110985537Y-122956082D01*
X110717748Y-123135013D01*
X110490013Y-123362748D01*
X110311082Y-123630537D01*
X110187832Y-123928088D01*
X110125000Y-124243967D01*
X106895000Y-124243967D01*
X106832168Y-123928088D01*
X106708918Y-123630537D01*
X106529987Y-123362748D01*
X106302252Y-123135013D01*
X106034463Y-122956082D01*
X105736912Y-122832832D01*
X105421033Y-122770000D01*
X105098967Y-122770000D01*
X104783088Y-122832832D01*
X104485537Y-122956082D01*
X104217748Y-123135013D01*
X103990013Y-123362748D01*
X103811082Y-123630537D01*
X103687832Y-123928088D01*
X103625000Y-124243967D01*
X102362000Y-124243967D01*
X102362000Y-112070421D01*
X104125900Y-112070421D01*
X104125900Y-112490979D01*
X104207947Y-112903456D01*
X104368888Y-113292002D01*
X104602537Y-113641683D01*
X104899917Y-113939063D01*
X105249598Y-114172712D01*
X105638144Y-114333653D01*
X106050621Y-114415700D01*
X106471179Y-114415700D01*
X106883656Y-114333653D01*
X107272202Y-114172712D01*
X107621883Y-113939063D01*
X107919263Y-113641683D01*
X108152912Y-113292002D01*
X108313853Y-112903456D01*
X108395900Y-112490979D01*
X108395900Y-112070421D01*
X108313853Y-111657944D01*
X108152912Y-111269398D01*
X107919263Y-110919717D01*
X107621883Y-110622337D01*
X107272202Y-110388688D01*
X106883656Y-110227747D01*
X106471179Y-110145700D01*
X106050621Y-110145700D01*
X105638144Y-110227747D01*
X105249598Y-110388688D01*
X104899917Y-110622337D01*
X104602537Y-110919717D01*
X104368888Y-111269398D01*
X104207947Y-111657944D01*
X104125900Y-112070421D01*
X102362000Y-112070421D01*
X102362000Y-103380000D01*
X124331928Y-103380000D01*
X124331928Y-104900000D01*
X124344188Y-105024482D01*
X124380498Y-105144180D01*
X124439463Y-105254494D01*
X124518815Y-105351185D01*
X124615506Y-105430537D01*
X124725820Y-105489502D01*
X124845518Y-105525812D01*
X124970000Y-105538072D01*
X126490000Y-105538072D01*
X126614482Y-105525812D01*
X126734180Y-105489502D01*
X126844494Y-105430537D01*
X126941185Y-105351185D01*
X127020537Y-105254494D01*
X127079502Y-105144180D01*
X127115812Y-105024482D01*
X127124474Y-104936533D01*
X127186433Y-105029261D01*
X127380739Y-105223567D01*
X127609220Y-105376233D01*
X127863093Y-105481391D01*
X128132604Y-105535000D01*
X128407396Y-105535000D01*
X128676907Y-105481391D01*
X128930780Y-105376233D01*
X129159261Y-105223567D01*
X129278691Y-105104137D01*
X130025469Y-105104137D01*
X130092206Y-105344025D01*
X130340892Y-105460924D01*
X130607606Y-105527061D01*
X130882097Y-105539895D01*
X131153817Y-105498931D01*
X131412326Y-105405744D01*
X131527794Y-105344025D01*
X131594531Y-105104137D01*
X130810000Y-104319605D01*
X130025469Y-105104137D01*
X129278691Y-105104137D01*
X129353567Y-105029261D01*
X129506233Y-104800780D01*
X129537830Y-104724499D01*
X129544256Y-104742326D01*
X129605975Y-104857794D01*
X129845863Y-104924531D01*
X130630395Y-104140000D01*
X130989605Y-104140000D01*
X131774137Y-104924531D01*
X132014025Y-104857794D01*
X132130924Y-104609108D01*
X132197061Y-104342394D01*
X132209895Y-104067903D01*
X132168931Y-103796183D01*
X132075744Y-103537674D01*
X132014025Y-103422206D01*
X131862315Y-103380000D01*
X134491928Y-103380000D01*
X134491928Y-104900000D01*
X134504188Y-105024482D01*
X134540498Y-105144180D01*
X134599463Y-105254494D01*
X134678815Y-105351185D01*
X134775506Y-105430537D01*
X134885820Y-105489502D01*
X135005518Y-105525812D01*
X135130000Y-105538072D01*
X136650000Y-105538072D01*
X136774482Y-105525812D01*
X136894180Y-105489502D01*
X137004494Y-105430537D01*
X137101185Y-105351185D01*
X137180537Y-105254494D01*
X137239502Y-105144180D01*
X137275812Y-105024482D01*
X137284474Y-104936533D01*
X137346433Y-105029261D01*
X137540739Y-105223567D01*
X137769220Y-105376233D01*
X138023093Y-105481391D01*
X138292604Y-105535000D01*
X138567396Y-105535000D01*
X138836907Y-105481391D01*
X139090780Y-105376233D01*
X139319261Y-105223567D01*
X139438691Y-105104137D01*
X140185469Y-105104137D01*
X140252206Y-105344025D01*
X140500892Y-105460924D01*
X140767606Y-105527061D01*
X141042097Y-105539895D01*
X141313817Y-105498931D01*
X141572326Y-105405744D01*
X141687794Y-105344025D01*
X141754531Y-105104137D01*
X140970000Y-104319605D01*
X140185469Y-105104137D01*
X139438691Y-105104137D01*
X139513567Y-105029261D01*
X139666233Y-104800780D01*
X139697830Y-104724499D01*
X139704256Y-104742326D01*
X139765975Y-104857794D01*
X140005863Y-104924531D01*
X140790395Y-104140000D01*
X141149605Y-104140000D01*
X141934137Y-104924531D01*
X142174025Y-104857794D01*
X142290924Y-104609108D01*
X142357061Y-104342394D01*
X142369895Y-104067903D01*
X142328931Y-103796183D01*
X142235744Y-103537674D01*
X142174025Y-103422206D01*
X141934137Y-103355469D01*
X141149605Y-104140000D01*
X140790395Y-104140000D01*
X140005863Y-103355469D01*
X139765975Y-103422206D01*
X139700400Y-103561707D01*
X139666233Y-103479220D01*
X139513567Y-103250739D01*
X139438691Y-103175863D01*
X140185469Y-103175863D01*
X140970000Y-103960395D01*
X141754531Y-103175863D01*
X141687794Y-102935975D01*
X141439108Y-102819076D01*
X141172394Y-102752939D01*
X140897903Y-102740105D01*
X140626183Y-102781069D01*
X140367674Y-102874256D01*
X140252206Y-102935975D01*
X140185469Y-103175863D01*
X139438691Y-103175863D01*
X139319261Y-103056433D01*
X139090780Y-102903767D01*
X138836907Y-102798609D01*
X138567396Y-102745000D01*
X138292604Y-102745000D01*
X138023093Y-102798609D01*
X137769220Y-102903767D01*
X137540739Y-103056433D01*
X137346433Y-103250739D01*
X137284474Y-103343467D01*
X137275812Y-103255518D01*
X137239502Y-103135820D01*
X137180537Y-103025506D01*
X137101185Y-102928815D01*
X137004494Y-102849463D01*
X136894180Y-102790498D01*
X136774482Y-102754188D01*
X136650000Y-102741928D01*
X135130000Y-102741928D01*
X135005518Y-102754188D01*
X134885820Y-102790498D01*
X134775506Y-102849463D01*
X134678815Y-102928815D01*
X134599463Y-103025506D01*
X134540498Y-103135820D01*
X134504188Y-103255518D01*
X134491928Y-103380000D01*
X131862315Y-103380000D01*
X131774137Y-103355469D01*
X130989605Y-104140000D01*
X130630395Y-104140000D01*
X129845863Y-103355469D01*
X129605975Y-103422206D01*
X129540400Y-103561707D01*
X129506233Y-103479220D01*
X129353567Y-103250739D01*
X129278691Y-103175863D01*
X130025469Y-103175863D01*
X130810000Y-103960395D01*
X131594531Y-103175863D01*
X131527794Y-102935975D01*
X131279108Y-102819076D01*
X131012394Y-102752939D01*
X130737903Y-102740105D01*
X130466183Y-102781069D01*
X130207674Y-102874256D01*
X130092206Y-102935975D01*
X130025469Y-103175863D01*
X129278691Y-103175863D01*
X129159261Y-103056433D01*
X128930780Y-102903767D01*
X128676907Y-102798609D01*
X128407396Y-102745000D01*
X128132604Y-102745000D01*
X127863093Y-102798609D01*
X127609220Y-102903767D01*
X127380739Y-103056433D01*
X127186433Y-103250739D01*
X127124474Y-103343467D01*
X127115812Y-103255518D01*
X127079502Y-103135820D01*
X127020537Y-103025506D01*
X126941185Y-102928815D01*
X126844494Y-102849463D01*
X126734180Y-102790498D01*
X126614482Y-102754188D01*
X126490000Y-102741928D01*
X124970000Y-102741928D01*
X124845518Y-102754188D01*
X124725820Y-102790498D01*
X124615506Y-102849463D01*
X124518815Y-102928815D01*
X124439463Y-103025506D01*
X124380498Y-103135820D01*
X124344188Y-103255518D01*
X124331928Y-103380000D01*
X102362000Y-103380000D01*
X102362000Y-93754344D01*
X108645000Y-93754344D01*
X108645000Y-94125656D01*
X108717439Y-94489834D01*
X108859534Y-94832882D01*
X109065825Y-95141618D01*
X109328382Y-95404175D01*
X109637118Y-95610466D01*
X109980166Y-95752561D01*
X110344344Y-95825000D01*
X110715656Y-95825000D01*
X111079834Y-95752561D01*
X111422882Y-95610466D01*
X111731618Y-95404175D01*
X111994175Y-95141618D01*
X112200466Y-94832882D01*
X112342561Y-94489834D01*
X112415000Y-94125656D01*
X112415000Y-93754344D01*
X112399046Y-93674137D01*
X126215469Y-93674137D01*
X126282206Y-93914025D01*
X126530892Y-94030924D01*
X126797606Y-94097061D01*
X127072097Y-94109895D01*
X127343817Y-94068931D01*
X127602326Y-93975744D01*
X127717794Y-93914025D01*
X127784531Y-93674137D01*
X138915469Y-93674137D01*
X138982206Y-93914025D01*
X139230892Y-94030924D01*
X139497606Y-94097061D01*
X139772097Y-94109895D01*
X140043817Y-94068931D01*
X140302326Y-93975744D01*
X140417794Y-93914025D01*
X140484531Y-93674137D01*
X139700000Y-92889605D01*
X138915469Y-93674137D01*
X127784531Y-93674137D01*
X127000000Y-92889605D01*
X126215469Y-93674137D01*
X112399046Y-93674137D01*
X112342561Y-93390166D01*
X112200466Y-93047118D01*
X112023385Y-92782097D01*
X125600105Y-92782097D01*
X125641069Y-93053817D01*
X125734256Y-93312326D01*
X125795975Y-93427794D01*
X126035863Y-93494531D01*
X126820395Y-92710000D01*
X127179605Y-92710000D01*
X127964137Y-93494531D01*
X128204025Y-93427794D01*
X128320924Y-93179108D01*
X128387061Y-92912394D01*
X128393153Y-92782097D01*
X138300105Y-92782097D01*
X138341069Y-93053817D01*
X138434256Y-93312326D01*
X138495975Y-93427794D01*
X138735863Y-93494531D01*
X139520395Y-92710000D01*
X139879605Y-92710000D01*
X140664137Y-93494531D01*
X140904025Y-93427794D01*
X141020924Y-93179108D01*
X141087061Y-92912394D01*
X141099895Y-92637903D01*
X141058931Y-92366183D01*
X140965744Y-92107674D01*
X140904025Y-91992206D01*
X140664137Y-91925469D01*
X139879605Y-92710000D01*
X139520395Y-92710000D01*
X138735863Y-91925469D01*
X138495975Y-91992206D01*
X138379076Y-92240892D01*
X138312939Y-92507606D01*
X138300105Y-92782097D01*
X128393153Y-92782097D01*
X128399895Y-92637903D01*
X128358931Y-92366183D01*
X128265744Y-92107674D01*
X128204025Y-91992206D01*
X127964137Y-91925469D01*
X127179605Y-92710000D01*
X126820395Y-92710000D01*
X126035863Y-91925469D01*
X125795975Y-91992206D01*
X125679076Y-92240892D01*
X125612939Y-92507606D01*
X125600105Y-92782097D01*
X112023385Y-92782097D01*
X111994175Y-92738382D01*
X111731618Y-92475825D01*
X111422882Y-92269534D01*
X111079834Y-92127439D01*
X110715656Y-92055000D01*
X110344344Y-92055000D01*
X109980166Y-92127439D01*
X109637118Y-92269534D01*
X109328382Y-92475825D01*
X109065825Y-92738382D01*
X108859534Y-93047118D01*
X108717439Y-93390166D01*
X108645000Y-93754344D01*
X102362000Y-93754344D01*
X102362000Y-90213605D01*
X106896000Y-90213605D01*
X107021914Y-90503577D01*
X107354126Y-90669433D01*
X107712312Y-90767290D01*
X108082706Y-90793389D01*
X108451075Y-90746725D01*
X108803262Y-90629094D01*
X109038086Y-90503577D01*
X109164000Y-90213605D01*
X108030000Y-89079605D01*
X106896000Y-90213605D01*
X102362000Y-90213605D01*
X102362000Y-88952706D01*
X106136611Y-88952706D01*
X106183275Y-89321075D01*
X106300906Y-89673262D01*
X106426423Y-89908086D01*
X106716395Y-90034000D01*
X107850395Y-88900000D01*
X108209605Y-88900000D01*
X109343605Y-90034000D01*
X109633577Y-89908086D01*
X109799433Y-89575874D01*
X109897290Y-89217688D01*
X109923389Y-88847294D01*
X109906548Y-88714344D01*
X111145000Y-88714344D01*
X111145000Y-89085656D01*
X111217439Y-89449834D01*
X111359534Y-89792882D01*
X111565825Y-90101618D01*
X111828382Y-90364175D01*
X112137118Y-90570466D01*
X112480166Y-90712561D01*
X112844344Y-90785000D01*
X113215656Y-90785000D01*
X113579834Y-90712561D01*
X113922882Y-90570466D01*
X114231618Y-90364175D01*
X114494175Y-90101618D01*
X114700466Y-89792882D01*
X114842561Y-89449834D01*
X114915000Y-89085656D01*
X114915000Y-88714344D01*
X114842561Y-88350166D01*
X114700466Y-88007118D01*
X114494175Y-87698382D01*
X114231618Y-87435825D01*
X113922882Y-87229534D01*
X113579834Y-87087439D01*
X113215656Y-87015000D01*
X112844344Y-87015000D01*
X112480166Y-87087439D01*
X112137118Y-87229534D01*
X111828382Y-87435825D01*
X111565825Y-87698382D01*
X111359534Y-88007118D01*
X111217439Y-88350166D01*
X111145000Y-88714344D01*
X109906548Y-88714344D01*
X109876725Y-88478925D01*
X109759094Y-88126738D01*
X109633577Y-87891914D01*
X109343605Y-87766000D01*
X108209605Y-88900000D01*
X107850395Y-88900000D01*
X106716395Y-87766000D01*
X106426423Y-87891914D01*
X106260567Y-88224126D01*
X106162710Y-88582312D01*
X106136611Y-88952706D01*
X102362000Y-88952706D01*
X102362000Y-87586395D01*
X106896000Y-87586395D01*
X108030000Y-88720395D01*
X109164000Y-87586395D01*
X109038086Y-87296423D01*
X108705874Y-87130567D01*
X108347688Y-87032710D01*
X107977294Y-87006611D01*
X107608925Y-87053275D01*
X107256738Y-87170906D01*
X107021914Y-87296423D01*
X106896000Y-87586395D01*
X102362000Y-87586395D01*
X102362000Y-86870000D01*
X125601928Y-86870000D01*
X125601928Y-88390000D01*
X125614188Y-88514482D01*
X125650498Y-88634180D01*
X125709463Y-88744494D01*
X125788815Y-88841185D01*
X125885506Y-88920537D01*
X125995820Y-88979502D01*
X126115518Y-89015812D01*
X126203467Y-89024474D01*
X126110739Y-89086433D01*
X125916433Y-89280739D01*
X125763767Y-89509220D01*
X125658609Y-89763093D01*
X125605000Y-90032604D01*
X125605000Y-90307396D01*
X125658609Y-90576907D01*
X125763767Y-90830780D01*
X125916433Y-91059261D01*
X126110739Y-91253567D01*
X126339220Y-91406233D01*
X126415501Y-91437830D01*
X126397674Y-91444256D01*
X126282206Y-91505975D01*
X126215469Y-91745863D01*
X127000000Y-92530395D01*
X127784531Y-91745863D01*
X127717794Y-91505975D01*
X127578293Y-91440400D01*
X127660780Y-91406233D01*
X127889261Y-91253567D01*
X128083567Y-91059261D01*
X128236233Y-90830780D01*
X128341391Y-90576907D01*
X128395000Y-90307396D01*
X128395000Y-90032604D01*
X128341391Y-89763093D01*
X128236233Y-89509220D01*
X128083567Y-89280739D01*
X127889261Y-89086433D01*
X127796533Y-89024474D01*
X127884482Y-89015812D01*
X128004180Y-88979502D01*
X128114494Y-88920537D01*
X128211185Y-88841185D01*
X128290537Y-88744494D01*
X128349502Y-88634180D01*
X128385812Y-88514482D01*
X128398072Y-88390000D01*
X128398072Y-86870000D01*
X138301928Y-86870000D01*
X138301928Y-88390000D01*
X138314188Y-88514482D01*
X138350498Y-88634180D01*
X138409463Y-88744494D01*
X138488815Y-88841185D01*
X138585506Y-88920537D01*
X138695820Y-88979502D01*
X138815518Y-89015812D01*
X138903467Y-89024474D01*
X138810739Y-89086433D01*
X138616433Y-89280739D01*
X138463767Y-89509220D01*
X138358609Y-89763093D01*
X138305000Y-90032604D01*
X138305000Y-90307396D01*
X138358609Y-90576907D01*
X138463767Y-90830780D01*
X138616433Y-91059261D01*
X138810739Y-91253567D01*
X139039220Y-91406233D01*
X139115501Y-91437830D01*
X139097674Y-91444256D01*
X138982206Y-91505975D01*
X138915469Y-91745863D01*
X139700000Y-92530395D01*
X140484531Y-91745863D01*
X140417794Y-91505975D01*
X140278293Y-91440400D01*
X140360780Y-91406233D01*
X140589261Y-91253567D01*
X140783567Y-91059261D01*
X140936233Y-90830780D01*
X141041391Y-90576907D01*
X141095000Y-90307396D01*
X141095000Y-90032604D01*
X141041391Y-89763093D01*
X140936233Y-89509220D01*
X140783567Y-89280739D01*
X140589261Y-89086433D01*
X140496533Y-89024474D01*
X140584482Y-89015812D01*
X140704180Y-88979502D01*
X140814494Y-88920537D01*
X140911185Y-88841185D01*
X140990537Y-88744494D01*
X141049502Y-88634180D01*
X141085812Y-88514482D01*
X141098072Y-88390000D01*
X141098072Y-86870000D01*
X141085812Y-86745518D01*
X141049502Y-86625820D01*
X140990537Y-86515506D01*
X140911185Y-86418815D01*
X140814494Y-86339463D01*
X140704180Y-86280498D01*
X140584482Y-86244188D01*
X140460000Y-86231928D01*
X138940000Y-86231928D01*
X138815518Y-86244188D01*
X138695820Y-86280498D01*
X138585506Y-86339463D01*
X138488815Y-86418815D01*
X138409463Y-86515506D01*
X138350498Y-86625820D01*
X138314188Y-86745518D01*
X138301928Y-86870000D01*
X128398072Y-86870000D01*
X128385812Y-86745518D01*
X128349502Y-86625820D01*
X128290537Y-86515506D01*
X128211185Y-86418815D01*
X128114494Y-86339463D01*
X128004180Y-86280498D01*
X127884482Y-86244188D01*
X127760000Y-86231928D01*
X126240000Y-86231928D01*
X126115518Y-86244188D01*
X125995820Y-86280498D01*
X125885506Y-86339463D01*
X125788815Y-86418815D01*
X125709463Y-86515506D01*
X125650498Y-86625820D01*
X125614188Y-86745518D01*
X125601928Y-86870000D01*
X102362000Y-86870000D01*
X102362000Y-81069721D01*
X104125900Y-81069721D01*
X104125900Y-81490279D01*
X104207947Y-81902756D01*
X104368888Y-82291302D01*
X104602537Y-82640983D01*
X104899917Y-82938363D01*
X105249598Y-83172012D01*
X105638144Y-83332953D01*
X106050621Y-83415000D01*
X106471179Y-83415000D01*
X106883656Y-83332953D01*
X107272202Y-83172012D01*
X107621883Y-82938363D01*
X107919263Y-82640983D01*
X107960010Y-82580000D01*
X110221928Y-82580000D01*
X110234188Y-82704482D01*
X110270498Y-82824180D01*
X110329463Y-82934494D01*
X110408815Y-83031185D01*
X110505506Y-83110537D01*
X110615820Y-83169502D01*
X110735518Y-83205812D01*
X110860000Y-83218072D01*
X111474250Y-83215000D01*
X111633000Y-83056250D01*
X111633000Y-81407000D01*
X110383750Y-81407000D01*
X110225000Y-81565750D01*
X110221928Y-82580000D01*
X107960010Y-82580000D01*
X108152912Y-82291302D01*
X108313853Y-81902756D01*
X108395900Y-81490279D01*
X108395900Y-81069721D01*
X108313853Y-80657244D01*
X108152912Y-80268698D01*
X107960011Y-79980000D01*
X110221928Y-79980000D01*
X110225000Y-80994250D01*
X110383750Y-81153000D01*
X111633000Y-81153000D01*
X111633000Y-79503750D01*
X111474250Y-79345000D01*
X110860000Y-79341928D01*
X110735518Y-79354188D01*
X110615820Y-79390498D01*
X110505506Y-79449463D01*
X110408815Y-79528815D01*
X110329463Y-79625506D01*
X110270498Y-79735820D01*
X110234188Y-79855518D01*
X110221928Y-79980000D01*
X107960011Y-79980000D01*
X107919263Y-79919017D01*
X107621883Y-79621637D01*
X107272202Y-79387988D01*
X106883656Y-79227047D01*
X106471179Y-79145000D01*
X106050621Y-79145000D01*
X105638144Y-79227047D01*
X105249598Y-79387988D01*
X104899917Y-79621637D01*
X104602537Y-79919017D01*
X104368888Y-80268698D01*
X104207947Y-80657244D01*
X104125900Y-81069721D01*
X102362000Y-81069721D01*
X102362000Y-69480000D01*
X111491928Y-69480000D01*
X111504188Y-69604482D01*
X111540498Y-69724180D01*
X111599463Y-69834494D01*
X111678815Y-69931185D01*
X111775506Y-70010537D01*
X111885820Y-70069502D01*
X112005518Y-70105812D01*
X112130000Y-70118072D01*
X112744250Y-70115000D01*
X112903000Y-69956250D01*
X112903000Y-68707000D01*
X111653750Y-68707000D01*
X111495000Y-68865750D01*
X111491928Y-69480000D01*
X102362000Y-69480000D01*
X102362000Y-67680000D01*
X111491928Y-67680000D01*
X111495000Y-68294250D01*
X111653750Y-68453000D01*
X112903000Y-68453000D01*
X112903000Y-67203750D01*
X113157000Y-67203750D01*
X113157000Y-68453000D01*
X113177000Y-68453000D01*
X113177000Y-68707000D01*
X113157000Y-68707000D01*
X113157000Y-69956250D01*
X113315750Y-70115000D01*
X113930000Y-70118072D01*
X114054482Y-70105812D01*
X114174180Y-70069502D01*
X114284494Y-70010537D01*
X114381185Y-69931185D01*
X114460537Y-69834494D01*
X114519502Y-69724180D01*
X114525056Y-69705873D01*
X114591495Y-69772312D01*
X114842905Y-69940299D01*
X115122257Y-70056011D01*
X115418816Y-70115000D01*
X115721184Y-70115000D01*
X116017743Y-70056011D01*
X116297095Y-69940299D01*
X116548505Y-69772312D01*
X116762312Y-69558505D01*
X116814767Y-69480000D01*
X121651928Y-69480000D01*
X121664188Y-69604482D01*
X121700498Y-69724180D01*
X121759463Y-69834494D01*
X121838815Y-69931185D01*
X121935506Y-70010537D01*
X122045820Y-70069502D01*
X122165518Y-70105812D01*
X122290000Y-70118072D01*
X122904250Y-70115000D01*
X123063000Y-69956250D01*
X123063000Y-68707000D01*
X121813750Y-68707000D01*
X121655000Y-68865750D01*
X121651928Y-69480000D01*
X116814767Y-69480000D01*
X116930299Y-69307095D01*
X117046011Y-69027743D01*
X117105000Y-68731184D01*
X117105000Y-68428816D01*
X117046011Y-68132257D01*
X116930299Y-67852905D01*
X116814768Y-67680000D01*
X121651928Y-67680000D01*
X121655000Y-68294250D01*
X121813750Y-68453000D01*
X123063000Y-68453000D01*
X123063000Y-67203750D01*
X123317000Y-67203750D01*
X123317000Y-68453000D01*
X123337000Y-68453000D01*
X123337000Y-68707000D01*
X123317000Y-68707000D01*
X123317000Y-69956250D01*
X123475750Y-70115000D01*
X124090000Y-70118072D01*
X124214482Y-70105812D01*
X124334180Y-70069502D01*
X124444494Y-70010537D01*
X124541185Y-69931185D01*
X124620537Y-69834494D01*
X124679502Y-69724180D01*
X124685056Y-69705873D01*
X124751495Y-69772312D01*
X125002905Y-69940299D01*
X125282257Y-70056011D01*
X125578816Y-70115000D01*
X125881184Y-70115000D01*
X126177743Y-70056011D01*
X126457095Y-69940299D01*
X126708505Y-69772312D01*
X126922312Y-69558505D01*
X126974767Y-69480000D01*
X131811928Y-69480000D01*
X131824188Y-69604482D01*
X131860498Y-69724180D01*
X131919463Y-69834494D01*
X131998815Y-69931185D01*
X132095506Y-70010537D01*
X132205820Y-70069502D01*
X132325518Y-70105812D01*
X132450000Y-70118072D01*
X133064250Y-70115000D01*
X133223000Y-69956250D01*
X133223000Y-68707000D01*
X131973750Y-68707000D01*
X131815000Y-68865750D01*
X131811928Y-69480000D01*
X126974767Y-69480000D01*
X127090299Y-69307095D01*
X127206011Y-69027743D01*
X127265000Y-68731184D01*
X127265000Y-68428816D01*
X127206011Y-68132257D01*
X127090299Y-67852905D01*
X126974768Y-67680000D01*
X131811928Y-67680000D01*
X131815000Y-68294250D01*
X131973750Y-68453000D01*
X133223000Y-68453000D01*
X133223000Y-67203750D01*
X133477000Y-67203750D01*
X133477000Y-68453000D01*
X133497000Y-68453000D01*
X133497000Y-68707000D01*
X133477000Y-68707000D01*
X133477000Y-69956250D01*
X133635750Y-70115000D01*
X134250000Y-70118072D01*
X134374482Y-70105812D01*
X134494180Y-70069502D01*
X134604494Y-70010537D01*
X134701185Y-69931185D01*
X134780537Y-69834494D01*
X134839502Y-69724180D01*
X134845056Y-69705873D01*
X134911495Y-69772312D01*
X135162905Y-69940299D01*
X135442257Y-70056011D01*
X135738816Y-70115000D01*
X136041184Y-70115000D01*
X136337743Y-70056011D01*
X136617095Y-69940299D01*
X136868505Y-69772312D01*
X137082312Y-69558505D01*
X137250299Y-69307095D01*
X137366011Y-69027743D01*
X137425000Y-68731184D01*
X137425000Y-68428816D01*
X137366011Y-68132257D01*
X137250299Y-67852905D01*
X137082312Y-67601495D01*
X136868505Y-67387688D01*
X136617095Y-67219701D01*
X136337743Y-67103989D01*
X136041184Y-67045000D01*
X135738816Y-67045000D01*
X135442257Y-67103989D01*
X135162905Y-67219701D01*
X134911495Y-67387688D01*
X134845056Y-67454127D01*
X134839502Y-67435820D01*
X134780537Y-67325506D01*
X134701185Y-67228815D01*
X134604494Y-67149463D01*
X134494180Y-67090498D01*
X134374482Y-67054188D01*
X134250000Y-67041928D01*
X133635750Y-67045000D01*
X133477000Y-67203750D01*
X133223000Y-67203750D01*
X133064250Y-67045000D01*
X132450000Y-67041928D01*
X132325518Y-67054188D01*
X132205820Y-67090498D01*
X132095506Y-67149463D01*
X131998815Y-67228815D01*
X131919463Y-67325506D01*
X131860498Y-67435820D01*
X131824188Y-67555518D01*
X131811928Y-67680000D01*
X126974768Y-67680000D01*
X126922312Y-67601495D01*
X126708505Y-67387688D01*
X126457095Y-67219701D01*
X126177743Y-67103989D01*
X125881184Y-67045000D01*
X125578816Y-67045000D01*
X125282257Y-67103989D01*
X125002905Y-67219701D01*
X124751495Y-67387688D01*
X124685056Y-67454127D01*
X124679502Y-67435820D01*
X124620537Y-67325506D01*
X124541185Y-67228815D01*
X124444494Y-67149463D01*
X124334180Y-67090498D01*
X124214482Y-67054188D01*
X124090000Y-67041928D01*
X123475750Y-67045000D01*
X123317000Y-67203750D01*
X123063000Y-67203750D01*
X122904250Y-67045000D01*
X122290000Y-67041928D01*
X122165518Y-67054188D01*
X122045820Y-67090498D01*
X121935506Y-67149463D01*
X121838815Y-67228815D01*
X121759463Y-67325506D01*
X121700498Y-67435820D01*
X121664188Y-67555518D01*
X121651928Y-67680000D01*
X116814768Y-67680000D01*
X116762312Y-67601495D01*
X116548505Y-67387688D01*
X116297095Y-67219701D01*
X116017743Y-67103989D01*
X115721184Y-67045000D01*
X115418816Y-67045000D01*
X115122257Y-67103989D01*
X114842905Y-67219701D01*
X114591495Y-67387688D01*
X114525056Y-67454127D01*
X114519502Y-67435820D01*
X114460537Y-67325506D01*
X114381185Y-67228815D01*
X114284494Y-67149463D01*
X114174180Y-67090498D01*
X114054482Y-67054188D01*
X113930000Y-67041928D01*
X113315750Y-67045000D01*
X113157000Y-67203750D01*
X112903000Y-67203750D01*
X112744250Y-67045000D01*
X112130000Y-67041928D01*
X112005518Y-67054188D01*
X111885820Y-67090498D01*
X111775506Y-67149463D01*
X111678815Y-67228815D01*
X111599463Y-67325506D01*
X111540498Y-67435820D01*
X111504188Y-67555518D01*
X111491928Y-67680000D01*
X102362000Y-67680000D01*
X102362000Y-55659872D01*
X103175000Y-55659872D01*
X103175000Y-56100128D01*
X103260890Y-56531925D01*
X103429369Y-56938669D01*
X103673962Y-57304729D01*
X103985271Y-57616038D01*
X104351331Y-57860631D01*
X104758075Y-58029110D01*
X105189872Y-58115000D01*
X105630128Y-58115000D01*
X106061925Y-58029110D01*
X106468669Y-57860631D01*
X106834729Y-57616038D01*
X107146038Y-57304729D01*
X107390631Y-56938669D01*
X107559110Y-56531925D01*
X107645000Y-56100128D01*
X107645000Y-55659872D01*
X180010000Y-55659872D01*
X180010000Y-56100128D01*
X180095890Y-56531925D01*
X180264369Y-56938669D01*
X180508962Y-57304729D01*
X180820271Y-57616038D01*
X181186331Y-57860631D01*
X181593075Y-58029110D01*
X182024872Y-58115000D01*
X182465128Y-58115000D01*
X182896925Y-58029110D01*
X183303669Y-57860631D01*
X183669729Y-57616038D01*
X183981038Y-57304729D01*
X184225631Y-56938669D01*
X184394110Y-56531925D01*
X184480000Y-56100128D01*
X184480000Y-55659872D01*
X184394110Y-55228075D01*
X184225631Y-54821331D01*
X183981038Y-54455271D01*
X183669729Y-54143962D01*
X183303669Y-53899369D01*
X182896925Y-53730890D01*
X182465128Y-53645000D01*
X182024872Y-53645000D01*
X181593075Y-53730890D01*
X181186331Y-53899369D01*
X180820271Y-54143962D01*
X180508962Y-54455271D01*
X180264369Y-54821331D01*
X180095890Y-55228075D01*
X180010000Y-55659872D01*
X107645000Y-55659872D01*
X107559110Y-55228075D01*
X107390631Y-54821331D01*
X107146038Y-54455271D01*
X106834729Y-54143962D01*
X106468669Y-53899369D01*
X106061925Y-53730890D01*
X105630128Y-53645000D01*
X105189872Y-53645000D01*
X104758075Y-53730890D01*
X104351331Y-53899369D01*
X103985271Y-54143962D01*
X103673962Y-54455271D01*
X103429369Y-54821331D01*
X103260890Y-55228075D01*
X103175000Y-55659872D01*
X102362000Y-55659872D01*
X102362000Y-52832000D01*
X185293000Y-52832000D01*
X185293000Y-137668000D01*
G04 #@! TA.AperFunction,Conductor*
D27*
G36*
X185293000Y-137668000D02*
G01*
X102362000Y-137668000D01*
X102362000Y-134399872D01*
X103175000Y-134399872D01*
X103175000Y-134840128D01*
X103260890Y-135271925D01*
X103429369Y-135678669D01*
X103673962Y-136044729D01*
X103985271Y-136356038D01*
X104351331Y-136600631D01*
X104758075Y-136769110D01*
X105189872Y-136855000D01*
X105630128Y-136855000D01*
X106061925Y-136769110D01*
X106468669Y-136600631D01*
X106834729Y-136356038D01*
X107146038Y-136044729D01*
X107390631Y-135678669D01*
X107559110Y-135271925D01*
X107645000Y-134840128D01*
X107645000Y-134399872D01*
X180010000Y-134399872D01*
X180010000Y-134840128D01*
X180095890Y-135271925D01*
X180264369Y-135678669D01*
X180508962Y-136044729D01*
X180820271Y-136356038D01*
X181186331Y-136600631D01*
X181593075Y-136769110D01*
X182024872Y-136855000D01*
X182465128Y-136855000D01*
X182896925Y-136769110D01*
X183303669Y-136600631D01*
X183669729Y-136356038D01*
X183981038Y-136044729D01*
X184225631Y-135678669D01*
X184394110Y-135271925D01*
X184480000Y-134840128D01*
X184480000Y-134399872D01*
X184394110Y-133968075D01*
X184225631Y-133561331D01*
X183981038Y-133195271D01*
X183669729Y-132883962D01*
X183303669Y-132639369D01*
X182896925Y-132470890D01*
X182465128Y-132385000D01*
X182024872Y-132385000D01*
X181593075Y-132470890D01*
X181186331Y-132639369D01*
X180820271Y-132883962D01*
X180508962Y-133195271D01*
X180264369Y-133561331D01*
X180095890Y-133968075D01*
X180010000Y-134399872D01*
X107645000Y-134399872D01*
X107559110Y-133968075D01*
X107390631Y-133561331D01*
X107146038Y-133195271D01*
X106834729Y-132883962D01*
X106468669Y-132639369D01*
X106061925Y-132470890D01*
X105630128Y-132385000D01*
X105189872Y-132385000D01*
X104758075Y-132470890D01*
X104351331Y-132639369D01*
X103985271Y-132883962D01*
X103673962Y-133195271D01*
X103429369Y-133561331D01*
X103260890Y-133968075D01*
X103175000Y-134399872D01*
X102362000Y-134399872D01*
X102362000Y-130040413D01*
X104304192Y-130040413D01*
X104399956Y-130304814D01*
X104689571Y-130445704D01*
X105001108Y-130527384D01*
X105322595Y-130546718D01*
X105641675Y-130502961D01*
X105946088Y-130397795D01*
X106120044Y-130304814D01*
X106215808Y-130040413D01*
X110804192Y-130040413D01*
X110899956Y-130304814D01*
X111189571Y-130445704D01*
X111501108Y-130527384D01*
X111822595Y-130546718D01*
X112141675Y-130502961D01*
X112446088Y-130397795D01*
X112620044Y-130304814D01*
X112715808Y-130040413D01*
X118274192Y-130040413D01*
X118369956Y-130304814D01*
X118659571Y-130445704D01*
X118971108Y-130527384D01*
X119292595Y-130546718D01*
X119611675Y-130502961D01*
X119916088Y-130397795D01*
X120090044Y-130304814D01*
X120185808Y-130040413D01*
X124774192Y-130040413D01*
X124869956Y-130304814D01*
X125159571Y-130445704D01*
X125471108Y-130527384D01*
X125792595Y-130546718D01*
X126111675Y-130502961D01*
X126416088Y-130397795D01*
X126590044Y-130304814D01*
X126685808Y-130040413D01*
X132244192Y-130040413D01*
X132339956Y-130304814D01*
X132629571Y-130445704D01*
X132941108Y-130527384D01*
X133262595Y-130546718D01*
X133581675Y-130502961D01*
X133886088Y-130397795D01*
X134060044Y-130304814D01*
X134155808Y-130040413D01*
X138744192Y-130040413D01*
X138839956Y-130304814D01*
X139129571Y-130445704D01*
X139441108Y-130527384D01*
X139762595Y-130546718D01*
X140081675Y-130502961D01*
X140386088Y-130397795D01*
X140560044Y-130304814D01*
X140655808Y-130040413D01*
X146214192Y-130040413D01*
X146309956Y-130304814D01*
X146599571Y-130445704D01*
X146911108Y-130527384D01*
X147232595Y-130546718D01*
X147551675Y-130502961D01*
X147856088Y-130397795D01*
X148030044Y-130304814D01*
X148125808Y-130040413D01*
X152714192Y-130040413D01*
X152809956Y-130304814D01*
X153099571Y-130445704D01*
X153411108Y-130527384D01*
X153732595Y-130546718D01*
X154051675Y-130502961D01*
X154356088Y-130397795D01*
X154530044Y-130304814D01*
X154625808Y-130040413D01*
X160184192Y-130040413D01*
X160279956Y-130304814D01*
X160569571Y-130445704D01*
X160881108Y-130527384D01*
X161202595Y-130546718D01*
X161521675Y-130502961D01*
X161826088Y-130397795D01*
X162000044Y-130304814D01*
X162095808Y-130040413D01*
X166684192Y-130040413D01*
X166779956Y-130304814D01*
X167069571Y-130445704D01*
X167381108Y-130527384D01*
X167702595Y-130546718D01*
X168021675Y-130502961D01*
X168326088Y-130397795D01*
X168500044Y-130304814D01*
X168575887Y-130095413D01*
X174939192Y-130095413D01*
X175034956Y-130359814D01*
X175324571Y-130500704D01*
X175636108Y-130582384D01*
X175957595Y-130601718D01*
X176276675Y-130557961D01*
X176581088Y-130452795D01*
X176755044Y-130359814D01*
X176850808Y-130095413D01*
X181439192Y-130095413D01*
X181534956Y-130359814D01*
X181824571Y-130500704D01*
X182136108Y-130582384D01*
X182457595Y-130601718D01*
X182776675Y-130557961D01*
X183081088Y-130452795D01*
X183255044Y-130359814D01*
X183350808Y-130095413D01*
X182395000Y-129139605D01*
X181439192Y-130095413D01*
X176850808Y-130095413D01*
X175895000Y-129139605D01*
X174939192Y-130095413D01*
X168575887Y-130095413D01*
X168595808Y-130040413D01*
X167640000Y-129084605D01*
X166684192Y-130040413D01*
X162095808Y-130040413D01*
X161140000Y-129084605D01*
X160184192Y-130040413D01*
X154625808Y-130040413D01*
X153670000Y-129084605D01*
X152714192Y-130040413D01*
X148125808Y-130040413D01*
X147170000Y-129084605D01*
X146214192Y-130040413D01*
X140655808Y-130040413D01*
X139700000Y-129084605D01*
X138744192Y-130040413D01*
X134155808Y-130040413D01*
X133200000Y-129084605D01*
X132244192Y-130040413D01*
X126685808Y-130040413D01*
X125730000Y-129084605D01*
X124774192Y-130040413D01*
X120185808Y-130040413D01*
X119230000Y-129084605D01*
X118274192Y-130040413D01*
X112715808Y-130040413D01*
X111760000Y-129084605D01*
X110804192Y-130040413D01*
X106215808Y-130040413D01*
X105260000Y-129084605D01*
X104304192Y-130040413D01*
X102362000Y-130040413D01*
X102362000Y-128967595D01*
X103618282Y-128967595D01*
X103662039Y-129286675D01*
X103767205Y-129591088D01*
X103860186Y-129765044D01*
X104124587Y-129860808D01*
X105080395Y-128905000D01*
X105439605Y-128905000D01*
X106395413Y-129860808D01*
X106659814Y-129765044D01*
X106800704Y-129475429D01*
X106882384Y-129163892D01*
X106894189Y-128967595D01*
X110118282Y-128967595D01*
X110162039Y-129286675D01*
X110267205Y-129591088D01*
X110360186Y-129765044D01*
X110624587Y-129860808D01*
X111580395Y-128905000D01*
X111939605Y-128905000D01*
X112895413Y-129860808D01*
X113159814Y-129765044D01*
X113300704Y-129475429D01*
X113382384Y-129163892D01*
X113394189Y-128967595D01*
X117588282Y-128967595D01*
X117632039Y-129286675D01*
X117737205Y-129591088D01*
X117830186Y-129765044D01*
X118094587Y-129860808D01*
X119050395Y-128905000D01*
X119409605Y-128905000D01*
X120365413Y-129860808D01*
X120629814Y-129765044D01*
X120770704Y-129475429D01*
X120852384Y-129163892D01*
X120864189Y-128967595D01*
X124088282Y-128967595D01*
X124132039Y-129286675D01*
X124237205Y-129591088D01*
X124330186Y-129765044D01*
X124594587Y-129860808D01*
X125550395Y-128905000D01*
X125909605Y-128905000D01*
X126865413Y-129860808D01*
X127129814Y-129765044D01*
X127270704Y-129475429D01*
X127352384Y-129163892D01*
X127364189Y-128967595D01*
X131558282Y-128967595D01*
X131602039Y-129286675D01*
X131707205Y-129591088D01*
X131800186Y-129765044D01*
X132064587Y-129860808D01*
X133020395Y-128905000D01*
X133379605Y-128905000D01*
X134335413Y-129860808D01*
X134599814Y-129765044D01*
X134740704Y-129475429D01*
X134822384Y-129163892D01*
X134834189Y-128967595D01*
X138058282Y-128967595D01*
X138102039Y-129286675D01*
X138207205Y-129591088D01*
X138300186Y-129765044D01*
X138564587Y-129860808D01*
X139520395Y-128905000D01*
X139879605Y-128905000D01*
X140835413Y-129860808D01*
X141099814Y-129765044D01*
X141240704Y-129475429D01*
X141322384Y-129163892D01*
X141334189Y-128967595D01*
X145528282Y-128967595D01*
X145572039Y-129286675D01*
X145677205Y-129591088D01*
X145770186Y-129765044D01*
X146034587Y-129860808D01*
X146990395Y-128905000D01*
X147349605Y-128905000D01*
X148305413Y-129860808D01*
X148569814Y-129765044D01*
X148710704Y-129475429D01*
X148792384Y-129163892D01*
X148804189Y-128967595D01*
X152028282Y-128967595D01*
X152072039Y-129286675D01*
X152177205Y-129591088D01*
X152270186Y-129765044D01*
X152534587Y-129860808D01*
X153490395Y-128905000D01*
X153849605Y-128905000D01*
X154805413Y-129860808D01*
X155069814Y-129765044D01*
X155210704Y-129475429D01*
X155292384Y-129163892D01*
X155304189Y-128967595D01*
X159498282Y-128967595D01*
X159542039Y-129286675D01*
X159647205Y-129591088D01*
X159740186Y-129765044D01*
X160004587Y-129860808D01*
X160960395Y-128905000D01*
X161319605Y-128905000D01*
X162275413Y-129860808D01*
X162539814Y-129765044D01*
X162680704Y-129475429D01*
X162762384Y-129163892D01*
X162774189Y-128967595D01*
X165998282Y-128967595D01*
X166042039Y-129286675D01*
X166147205Y-129591088D01*
X166240186Y-129765044D01*
X166504587Y-129860808D01*
X167460395Y-128905000D01*
X167819605Y-128905000D01*
X168775413Y-129860808D01*
X169039814Y-129765044D01*
X169180704Y-129475429D01*
X169262384Y-129163892D01*
X169270881Y-129022595D01*
X174253282Y-129022595D01*
X174297039Y-129341675D01*
X174402205Y-129646088D01*
X174495186Y-129820044D01*
X174759587Y-129915808D01*
X175715395Y-128960000D01*
X176074605Y-128960000D01*
X177030413Y-129915808D01*
X177294814Y-129820044D01*
X177435704Y-129530429D01*
X177517384Y-129218892D01*
X177529189Y-129022595D01*
X180753282Y-129022595D01*
X180797039Y-129341675D01*
X180902205Y-129646088D01*
X180995186Y-129820044D01*
X181259587Y-129915808D01*
X182215395Y-128960000D01*
X182574605Y-128960000D01*
X183530413Y-129915808D01*
X183794814Y-129820044D01*
X183935704Y-129530429D01*
X184017384Y-129218892D01*
X184036718Y-128897405D01*
X183992961Y-128578325D01*
X183887795Y-128273912D01*
X183794814Y-128099956D01*
X183530413Y-128004192D01*
X182574605Y-128960000D01*
X182215395Y-128960000D01*
X181259587Y-128004192D01*
X180995186Y-128099956D01*
X180854296Y-128389571D01*
X180772616Y-128701108D01*
X180753282Y-129022595D01*
X177529189Y-129022595D01*
X177536718Y-128897405D01*
X177492961Y-128578325D01*
X177387795Y-128273912D01*
X177294814Y-128099956D01*
X177030413Y-128004192D01*
X176074605Y-128960000D01*
X175715395Y-128960000D01*
X174759587Y-128004192D01*
X174495186Y-128099956D01*
X174354296Y-128389571D01*
X174272616Y-128701108D01*
X174253282Y-129022595D01*
X169270881Y-129022595D01*
X169281718Y-128842405D01*
X169237961Y-128523325D01*
X169132795Y-128218912D01*
X169039814Y-128044956D01*
X168775413Y-127949192D01*
X167819605Y-128905000D01*
X167460395Y-128905000D01*
X166504587Y-127949192D01*
X166240186Y-128044956D01*
X166099296Y-128334571D01*
X166017616Y-128646108D01*
X165998282Y-128967595D01*
X162774189Y-128967595D01*
X162781718Y-128842405D01*
X162737961Y-128523325D01*
X162632795Y-128218912D01*
X162539814Y-128044956D01*
X162275413Y-127949192D01*
X161319605Y-128905000D01*
X160960395Y-128905000D01*
X160004587Y-127949192D01*
X159740186Y-128044956D01*
X159599296Y-128334571D01*
X159517616Y-128646108D01*
X159498282Y-128967595D01*
X155304189Y-128967595D01*
X155311718Y-128842405D01*
X155267961Y-128523325D01*
X155162795Y-128218912D01*
X155069814Y-128044956D01*
X154805413Y-127949192D01*
X153849605Y-128905000D01*
X153490395Y-128905000D01*
X152534587Y-127949192D01*
X152270186Y-128044956D01*
X152129296Y-128334571D01*
X152047616Y-128646108D01*
X152028282Y-128967595D01*
X148804189Y-128967595D01*
X148811718Y-128842405D01*
X148767961Y-128523325D01*
X148662795Y-128218912D01*
X148569814Y-128044956D01*
X148305413Y-127949192D01*
X147349605Y-128905000D01*
X146990395Y-128905000D01*
X146034587Y-127949192D01*
X145770186Y-128044956D01*
X145629296Y-128334571D01*
X145547616Y-128646108D01*
X145528282Y-128967595D01*
X141334189Y-128967595D01*
X141341718Y-128842405D01*
X141297961Y-128523325D01*
X141192795Y-128218912D01*
X141099814Y-128044956D01*
X140835413Y-127949192D01*
X139879605Y-128905000D01*
X139520395Y-128905000D01*
X138564587Y-127949192D01*
X138300186Y-128044956D01*
X138159296Y-128334571D01*
X138077616Y-128646108D01*
X138058282Y-128967595D01*
X134834189Y-128967595D01*
X134841718Y-128842405D01*
X134797961Y-128523325D01*
X134692795Y-128218912D01*
X134599814Y-128044956D01*
X134335413Y-127949192D01*
X133379605Y-128905000D01*
X133020395Y-128905000D01*
X132064587Y-127949192D01*
X131800186Y-128044956D01*
X131659296Y-128334571D01*
X131577616Y-128646108D01*
X131558282Y-128967595D01*
X127364189Y-128967595D01*
X127371718Y-128842405D01*
X127327961Y-128523325D01*
X127222795Y-128218912D01*
X127129814Y-128044956D01*
X126865413Y-127949192D01*
X125909605Y-128905000D01*
X125550395Y-128905000D01*
X124594587Y-127949192D01*
X124330186Y-128044956D01*
X124189296Y-128334571D01*
X124107616Y-128646108D01*
X124088282Y-128967595D01*
X120864189Y-128967595D01*
X120871718Y-128842405D01*
X120827961Y-128523325D01*
X120722795Y-128218912D01*
X120629814Y-128044956D01*
X120365413Y-127949192D01*
X119409605Y-128905000D01*
X119050395Y-128905000D01*
X118094587Y-127949192D01*
X117830186Y-128044956D01*
X117689296Y-128334571D01*
X117607616Y-128646108D01*
X117588282Y-128967595D01*
X113394189Y-128967595D01*
X113401718Y-128842405D01*
X113357961Y-128523325D01*
X113252795Y-128218912D01*
X113159814Y-128044956D01*
X112895413Y-127949192D01*
X111939605Y-128905000D01*
X111580395Y-128905000D01*
X110624587Y-127949192D01*
X110360186Y-128044956D01*
X110219296Y-128334571D01*
X110137616Y-128646108D01*
X110118282Y-128967595D01*
X106894189Y-128967595D01*
X106901718Y-128842405D01*
X106857961Y-128523325D01*
X106752795Y-128218912D01*
X106659814Y-128044956D01*
X106395413Y-127949192D01*
X105439605Y-128905000D01*
X105080395Y-128905000D01*
X104124587Y-127949192D01*
X103860186Y-128044956D01*
X103719296Y-128334571D01*
X103637616Y-128646108D01*
X103618282Y-128967595D01*
X102362000Y-128967595D01*
X102362000Y-127769587D01*
X104304192Y-127769587D01*
X105260000Y-128725395D01*
X106215808Y-127769587D01*
X110804192Y-127769587D01*
X111760000Y-128725395D01*
X112715808Y-127769587D01*
X118274192Y-127769587D01*
X119230000Y-128725395D01*
X120185808Y-127769587D01*
X124774192Y-127769587D01*
X125730000Y-128725395D01*
X126685808Y-127769587D01*
X132244192Y-127769587D01*
X133200000Y-128725395D01*
X134155808Y-127769587D01*
X138744192Y-127769587D01*
X139700000Y-128725395D01*
X140655808Y-127769587D01*
X146214192Y-127769587D01*
X147170000Y-128725395D01*
X148125808Y-127769587D01*
X152714192Y-127769587D01*
X153670000Y-128725395D01*
X154625808Y-127769587D01*
X160184192Y-127769587D01*
X161140000Y-128725395D01*
X162095808Y-127769587D01*
X166684192Y-127769587D01*
X167640000Y-128725395D01*
X168540808Y-127824587D01*
X174939192Y-127824587D01*
X175895000Y-128780395D01*
X176850808Y-127824587D01*
X181439192Y-127824587D01*
X182395000Y-128780395D01*
X183350808Y-127824587D01*
X183255044Y-127560186D01*
X182965429Y-127419296D01*
X182653892Y-127337616D01*
X182332405Y-127318282D01*
X182013325Y-127362039D01*
X181708912Y-127467205D01*
X181534956Y-127560186D01*
X181439192Y-127824587D01*
X176850808Y-127824587D01*
X176755044Y-127560186D01*
X176465429Y-127419296D01*
X176153892Y-127337616D01*
X175832405Y-127318282D01*
X175513325Y-127362039D01*
X175208912Y-127467205D01*
X175034956Y-127560186D01*
X174939192Y-127824587D01*
X168540808Y-127824587D01*
X168595808Y-127769587D01*
X168500044Y-127505186D01*
X168210429Y-127364296D01*
X167898892Y-127282616D01*
X167577405Y-127263282D01*
X167258325Y-127307039D01*
X166953912Y-127412205D01*
X166779956Y-127505186D01*
X166684192Y-127769587D01*
X162095808Y-127769587D01*
X162000044Y-127505186D01*
X161710429Y-127364296D01*
X161398892Y-127282616D01*
X161077405Y-127263282D01*
X160758325Y-127307039D01*
X160453912Y-127412205D01*
X160279956Y-127505186D01*
X160184192Y-127769587D01*
X154625808Y-127769587D01*
X154530044Y-127505186D01*
X154240429Y-127364296D01*
X153928892Y-127282616D01*
X153607405Y-127263282D01*
X153288325Y-127307039D01*
X152983912Y-127412205D01*
X152809956Y-127505186D01*
X152714192Y-127769587D01*
X148125808Y-127769587D01*
X148030044Y-127505186D01*
X147740429Y-127364296D01*
X147428892Y-127282616D01*
X147107405Y-127263282D01*
X146788325Y-127307039D01*
X146483912Y-127412205D01*
X146309956Y-127505186D01*
X146214192Y-127769587D01*
X140655808Y-127769587D01*
X140560044Y-127505186D01*
X140270429Y-127364296D01*
X139958892Y-127282616D01*
X139637405Y-127263282D01*
X139318325Y-127307039D01*
X139013912Y-127412205D01*
X138839956Y-127505186D01*
X138744192Y-127769587D01*
X134155808Y-127769587D01*
X134060044Y-127505186D01*
X133770429Y-127364296D01*
X133458892Y-127282616D01*
X133137405Y-127263282D01*
X132818325Y-127307039D01*
X132513912Y-127412205D01*
X132339956Y-127505186D01*
X132244192Y-127769587D01*
X126685808Y-127769587D01*
X126590044Y-127505186D01*
X126300429Y-127364296D01*
X125988892Y-127282616D01*
X125667405Y-127263282D01*
X125348325Y-127307039D01*
X125043912Y-127412205D01*
X124869956Y-127505186D01*
X124774192Y-127769587D01*
X120185808Y-127769587D01*
X120090044Y-127505186D01*
X119800429Y-127364296D01*
X119488892Y-127282616D01*
X119167405Y-127263282D01*
X118848325Y-127307039D01*
X118543912Y-127412205D01*
X118369956Y-127505186D01*
X118274192Y-127769587D01*
X112715808Y-127769587D01*
X112620044Y-127505186D01*
X112330429Y-127364296D01*
X112018892Y-127282616D01*
X111697405Y-127263282D01*
X111378325Y-127307039D01*
X111073912Y-127412205D01*
X110899956Y-127505186D01*
X110804192Y-127769587D01*
X106215808Y-127769587D01*
X106120044Y-127505186D01*
X105830429Y-127364296D01*
X105518892Y-127282616D01*
X105197405Y-127263282D01*
X104878325Y-127307039D01*
X104573912Y-127412205D01*
X104399956Y-127505186D01*
X104304192Y-127769587D01*
X102362000Y-127769587D01*
X102362000Y-124243967D01*
X103625000Y-124243967D01*
X103625000Y-124566033D01*
X103687832Y-124881912D01*
X103811082Y-125179463D01*
X103990013Y-125447252D01*
X104217748Y-125674987D01*
X104485537Y-125853918D01*
X104783088Y-125977168D01*
X105098967Y-126040000D01*
X105421033Y-126040000D01*
X105736912Y-125977168D01*
X106034463Y-125853918D01*
X106302252Y-125674987D01*
X106529987Y-125447252D01*
X106708918Y-125179463D01*
X106832168Y-124881912D01*
X106895000Y-124566033D01*
X106895000Y-124243967D01*
X110125000Y-124243967D01*
X110125000Y-124566033D01*
X110187832Y-124881912D01*
X110311082Y-125179463D01*
X110490013Y-125447252D01*
X110717748Y-125674987D01*
X110985537Y-125853918D01*
X111283088Y-125977168D01*
X111598967Y-126040000D01*
X111921033Y-126040000D01*
X112236912Y-125977168D01*
X112534463Y-125853918D01*
X112802252Y-125674987D01*
X113029987Y-125447252D01*
X113208918Y-125179463D01*
X113332168Y-124881912D01*
X113395000Y-124566033D01*
X113395000Y-124243967D01*
X117595000Y-124243967D01*
X117595000Y-124566033D01*
X117657832Y-124881912D01*
X117781082Y-125179463D01*
X117960013Y-125447252D01*
X118187748Y-125674987D01*
X118455537Y-125853918D01*
X118753088Y-125977168D01*
X119068967Y-126040000D01*
X119391033Y-126040000D01*
X119706912Y-125977168D01*
X120004463Y-125853918D01*
X120272252Y-125674987D01*
X120499987Y-125447252D01*
X120678918Y-125179463D01*
X120802168Y-124881912D01*
X120865000Y-124566033D01*
X120865000Y-124243967D01*
X124095000Y-124243967D01*
X124095000Y-124566033D01*
X124157832Y-124881912D01*
X124281082Y-125179463D01*
X124460013Y-125447252D01*
X124687748Y-125674987D01*
X124955537Y-125853918D01*
X125253088Y-125977168D01*
X125568967Y-126040000D01*
X125891033Y-126040000D01*
X126206912Y-125977168D01*
X126504463Y-125853918D01*
X126772252Y-125674987D01*
X126999987Y-125447252D01*
X127178918Y-125179463D01*
X127302168Y-124881912D01*
X127365000Y-124566033D01*
X127365000Y-124243967D01*
X131565000Y-124243967D01*
X131565000Y-124566033D01*
X131627832Y-124881912D01*
X131751082Y-125179463D01*
X131930013Y-125447252D01*
X132157748Y-125674987D01*
X132425537Y-125853918D01*
X132723088Y-125977168D01*
X133038967Y-126040000D01*
X133361033Y-126040000D01*
X133676912Y-125977168D01*
X133974463Y-125853918D01*
X134242252Y-125674987D01*
X134469987Y-125447252D01*
X134648918Y-125179463D01*
X134772168Y-124881912D01*
X134835000Y-124566033D01*
X134835000Y-124243967D01*
X138065000Y-124243967D01*
X138065000Y-124566033D01*
X138127832Y-124881912D01*
X138251082Y-125179463D01*
X138430013Y-125447252D01*
X138657748Y-125674987D01*
X138925537Y-125853918D01*
X139223088Y-125977168D01*
X139538967Y-126040000D01*
X139861033Y-126040000D01*
X140176912Y-125977168D01*
X140474463Y-125853918D01*
X140742252Y-125674987D01*
X140969987Y-125447252D01*
X141148918Y-125179463D01*
X141272168Y-124881912D01*
X141335000Y-124566033D01*
X141335000Y-124243967D01*
X145535000Y-124243967D01*
X145535000Y-124566033D01*
X145597832Y-124881912D01*
X145721082Y-125179463D01*
X145900013Y-125447252D01*
X146127748Y-125674987D01*
X146395537Y-125853918D01*
X146693088Y-125977168D01*
X147008967Y-126040000D01*
X147331033Y-126040000D01*
X147646912Y-125977168D01*
X147944463Y-125853918D01*
X148212252Y-125674987D01*
X148439987Y-125447252D01*
X148618918Y-125179463D01*
X148742168Y-124881912D01*
X148805000Y-124566033D01*
X148805000Y-124243967D01*
X152035000Y-124243967D01*
X152035000Y-124566033D01*
X152097832Y-124881912D01*
X152221082Y-125179463D01*
X152400013Y-125447252D01*
X152627748Y-125674987D01*
X152895537Y-125853918D01*
X153193088Y-125977168D01*
X153508967Y-126040000D01*
X153831033Y-126040000D01*
X154146912Y-125977168D01*
X154444463Y-125853918D01*
X154712252Y-125674987D01*
X154939987Y-125447252D01*
X155118918Y-125179463D01*
X155242168Y-124881912D01*
X155305000Y-124566033D01*
X155305000Y-124243967D01*
X159505000Y-124243967D01*
X159505000Y-124566033D01*
X159567832Y-124881912D01*
X159691082Y-125179463D01*
X159870013Y-125447252D01*
X160097748Y-125674987D01*
X160365537Y-125853918D01*
X160663088Y-125977168D01*
X160978967Y-126040000D01*
X161301033Y-126040000D01*
X161616912Y-125977168D01*
X161914463Y-125853918D01*
X162182252Y-125674987D01*
X162409987Y-125447252D01*
X162588918Y-125179463D01*
X162712168Y-124881912D01*
X162775000Y-124566033D01*
X162775000Y-124243967D01*
X166005000Y-124243967D01*
X166005000Y-124566033D01*
X166067832Y-124881912D01*
X166191082Y-125179463D01*
X166370013Y-125447252D01*
X166597748Y-125674987D01*
X166865537Y-125853918D01*
X167163088Y-125977168D01*
X167478967Y-126040000D01*
X167801033Y-126040000D01*
X168116912Y-125977168D01*
X168414463Y-125853918D01*
X168682252Y-125674987D01*
X168909987Y-125447252D01*
X169088918Y-125179463D01*
X169212168Y-124881912D01*
X169275000Y-124566033D01*
X169275000Y-124298967D01*
X174260000Y-124298967D01*
X174260000Y-124621033D01*
X174322832Y-124936912D01*
X174446082Y-125234463D01*
X174625013Y-125502252D01*
X174852748Y-125729987D01*
X175120537Y-125908918D01*
X175418088Y-126032168D01*
X175733967Y-126095000D01*
X176056033Y-126095000D01*
X176371912Y-126032168D01*
X176669463Y-125908918D01*
X176937252Y-125729987D01*
X177164987Y-125502252D01*
X177343918Y-125234463D01*
X177467168Y-124936912D01*
X177530000Y-124621033D01*
X177530000Y-124298967D01*
X180760000Y-124298967D01*
X180760000Y-124621033D01*
X180822832Y-124936912D01*
X180946082Y-125234463D01*
X181125013Y-125502252D01*
X181352748Y-125729987D01*
X181620537Y-125908918D01*
X181918088Y-126032168D01*
X182233967Y-126095000D01*
X182556033Y-126095000D01*
X182871912Y-126032168D01*
X183169463Y-125908918D01*
X183437252Y-125729987D01*
X183664987Y-125502252D01*
X183843918Y-125234463D01*
X183967168Y-124936912D01*
X184030000Y-124621033D01*
X184030000Y-124298967D01*
X183967168Y-123983088D01*
X183843918Y-123685537D01*
X183664987Y-123417748D01*
X183437252Y-123190013D01*
X183169463Y-123011082D01*
X182871912Y-122887832D01*
X182556033Y-122825000D01*
X182233967Y-122825000D01*
X181918088Y-122887832D01*
X181620537Y-123011082D01*
X181352748Y-123190013D01*
X181125013Y-123417748D01*
X180946082Y-123685537D01*
X180822832Y-123983088D01*
X180760000Y-124298967D01*
X177530000Y-124298967D01*
X177467168Y-123983088D01*
X177343918Y-123685537D01*
X177164987Y-123417748D01*
X176937252Y-123190013D01*
X176669463Y-123011082D01*
X176371912Y-122887832D01*
X176056033Y-122825000D01*
X175733967Y-122825000D01*
X175418088Y-122887832D01*
X175120537Y-123011082D01*
X174852748Y-123190013D01*
X174625013Y-123417748D01*
X174446082Y-123685537D01*
X174322832Y-123983088D01*
X174260000Y-124298967D01*
X169275000Y-124298967D01*
X169275000Y-124243967D01*
X169212168Y-123928088D01*
X169088918Y-123630537D01*
X168909987Y-123362748D01*
X168682252Y-123135013D01*
X168414463Y-122956082D01*
X168116912Y-122832832D01*
X167801033Y-122770000D01*
X167478967Y-122770000D01*
X167163088Y-122832832D01*
X166865537Y-122956082D01*
X166597748Y-123135013D01*
X166370013Y-123362748D01*
X166191082Y-123630537D01*
X166067832Y-123928088D01*
X166005000Y-124243967D01*
X162775000Y-124243967D01*
X162712168Y-123928088D01*
X162588918Y-123630537D01*
X162409987Y-123362748D01*
X162182252Y-123135013D01*
X161914463Y-122956082D01*
X161616912Y-122832832D01*
X161301033Y-122770000D01*
X160978967Y-122770000D01*
X160663088Y-122832832D01*
X160365537Y-122956082D01*
X160097748Y-123135013D01*
X159870013Y-123362748D01*
X159691082Y-123630537D01*
X159567832Y-123928088D01*
X159505000Y-124243967D01*
X155305000Y-124243967D01*
X155242168Y-123928088D01*
X155118918Y-123630537D01*
X154939987Y-123362748D01*
X154712252Y-123135013D01*
X154444463Y-122956082D01*
X154146912Y-122832832D01*
X153831033Y-122770000D01*
X153508967Y-122770000D01*
X153193088Y-122832832D01*
X152895537Y-122956082D01*
X152627748Y-123135013D01*
X152400013Y-123362748D01*
X152221082Y-123630537D01*
X152097832Y-123928088D01*
X152035000Y-124243967D01*
X148805000Y-124243967D01*
X148742168Y-123928088D01*
X148618918Y-123630537D01*
X148439987Y-123362748D01*
X148212252Y-123135013D01*
X147944463Y-122956082D01*
X147646912Y-122832832D01*
X147331033Y-122770000D01*
X147008967Y-122770000D01*
X146693088Y-122832832D01*
X146395537Y-122956082D01*
X146127748Y-123135013D01*
X145900013Y-123362748D01*
X145721082Y-123630537D01*
X145597832Y-123928088D01*
X145535000Y-124243967D01*
X141335000Y-124243967D01*
X141272168Y-123928088D01*
X141148918Y-123630537D01*
X140969987Y-123362748D01*
X140742252Y-123135013D01*
X140474463Y-122956082D01*
X140176912Y-122832832D01*
X139861033Y-122770000D01*
X139538967Y-122770000D01*
X139223088Y-122832832D01*
X138925537Y-122956082D01*
X138657748Y-123135013D01*
X138430013Y-123362748D01*
X138251082Y-123630537D01*
X138127832Y-123928088D01*
X138065000Y-124243967D01*
X134835000Y-124243967D01*
X134772168Y-123928088D01*
X134648918Y-123630537D01*
X134469987Y-123362748D01*
X134242252Y-123135013D01*
X133974463Y-122956082D01*
X133676912Y-122832832D01*
X133361033Y-122770000D01*
X133038967Y-122770000D01*
X132723088Y-122832832D01*
X132425537Y-122956082D01*
X132157748Y-123135013D01*
X131930013Y-123362748D01*
X131751082Y-123630537D01*
X131627832Y-123928088D01*
X131565000Y-124243967D01*
X127365000Y-124243967D01*
X127302168Y-123928088D01*
X127178918Y-123630537D01*
X126999987Y-123362748D01*
X126772252Y-123135013D01*
X126504463Y-122956082D01*
X126206912Y-122832832D01*
X125891033Y-122770000D01*
X125568967Y-122770000D01*
X125253088Y-122832832D01*
X124955537Y-122956082D01*
X124687748Y-123135013D01*
X124460013Y-123362748D01*
X124281082Y-123630537D01*
X124157832Y-123928088D01*
X124095000Y-124243967D01*
X120865000Y-124243967D01*
X120802168Y-123928088D01*
X120678918Y-123630537D01*
X120499987Y-123362748D01*
X120272252Y-123135013D01*
X120004463Y-122956082D01*
X119706912Y-122832832D01*
X119391033Y-122770000D01*
X119068967Y-122770000D01*
X118753088Y-122832832D01*
X118455537Y-122956082D01*
X118187748Y-123135013D01*
X117960013Y-123362748D01*
X117781082Y-123630537D01*
X117657832Y-123928088D01*
X117595000Y-124243967D01*
X113395000Y-124243967D01*
X113332168Y-123928088D01*
X113327006Y-123915625D01*
X115830631Y-121412000D01*
X136868577Y-121412000D01*
X136906000Y-121415686D01*
X136943423Y-121412000D01*
X136943426Y-121412000D01*
X137055378Y-121400974D01*
X137199015Y-121357402D01*
X137331392Y-121286645D01*
X137447422Y-121191422D01*
X137471284Y-121162346D01*
X146563209Y-112070421D01*
X179124480Y-112070421D01*
X179124480Y-112490979D01*
X179206527Y-112903456D01*
X179367468Y-113292002D01*
X179601117Y-113641683D01*
X179898497Y-113939063D01*
X180248178Y-114172712D01*
X180636724Y-114333653D01*
X181049201Y-114415700D01*
X181469759Y-114415700D01*
X181882236Y-114333653D01*
X182270782Y-114172712D01*
X182620463Y-113939063D01*
X182917843Y-113641683D01*
X183151492Y-113292002D01*
X183312433Y-112903456D01*
X183394480Y-112490979D01*
X183394480Y-112070421D01*
X183312433Y-111657944D01*
X183151492Y-111269398D01*
X182917843Y-110919717D01*
X182620463Y-110622337D01*
X182270782Y-110388688D01*
X181882236Y-110227747D01*
X181469759Y-110145700D01*
X181049201Y-110145700D01*
X180636724Y-110227747D01*
X180248178Y-110388688D01*
X179898497Y-110622337D01*
X179601117Y-110919717D01*
X179367468Y-111269398D01*
X179206527Y-111657944D01*
X179124480Y-112070421D01*
X146563209Y-112070421D01*
X157728666Y-100904965D01*
X157762033Y-100985521D01*
X157853413Y-101122281D01*
X157969719Y-101238587D01*
X158106479Y-101329967D01*
X158258440Y-101392911D01*
X158419760Y-101425000D01*
X158584240Y-101425000D01*
X158736986Y-101394616D01*
X160720370Y-103378000D01*
X159346328Y-103378000D01*
X159247560Y-103337089D01*
X159086240Y-103305000D01*
X158921760Y-103305000D01*
X158760440Y-103337089D01*
X158608479Y-103400033D01*
X158471719Y-103491413D01*
X158355413Y-103607719D01*
X158264033Y-103744479D01*
X158201089Y-103896440D01*
X158169000Y-104057760D01*
X158169000Y-104222240D01*
X158201089Y-104383560D01*
X158264033Y-104535521D01*
X158355413Y-104672281D01*
X158471719Y-104788587D01*
X158608479Y-104879967D01*
X158760440Y-104942911D01*
X158921760Y-104975000D01*
X159086240Y-104975000D01*
X159247560Y-104942911D01*
X159346328Y-104902000D01*
X172682577Y-104902000D01*
X172720000Y-104905686D01*
X172757423Y-104902000D01*
X172757426Y-104902000D01*
X172869378Y-104890974D01*
X173013015Y-104847402D01*
X173145392Y-104776645D01*
X173261422Y-104681422D01*
X173285284Y-104652346D01*
X176653762Y-101283869D01*
X176853368Y-101483475D01*
X177027760Y-101600000D01*
X176853368Y-101716525D01*
X176646525Y-101923368D01*
X176484010Y-102166589D01*
X176372068Y-102436842D01*
X176315000Y-102723740D01*
X176315000Y-103016260D01*
X176372068Y-103303158D01*
X176484010Y-103573411D01*
X176646525Y-103816632D01*
X176853368Y-104023475D01*
X177096589Y-104185990D01*
X177366842Y-104297932D01*
X177653740Y-104355000D01*
X177946260Y-104355000D01*
X178233158Y-104297932D01*
X178503411Y-104185990D01*
X178746632Y-104023475D01*
X178953475Y-103816632D01*
X179071100Y-103640594D01*
X179242412Y-103870269D01*
X179458645Y-104065178D01*
X179708748Y-104214157D01*
X179983109Y-104311481D01*
X180213000Y-104190814D01*
X180213000Y-102997000D01*
X180467000Y-102997000D01*
X180467000Y-104190814D01*
X180696891Y-104311481D01*
X180971252Y-104214157D01*
X181221355Y-104065178D01*
X181437588Y-103870269D01*
X181611641Y-103636920D01*
X181736825Y-103374099D01*
X181781476Y-103226890D01*
X181660155Y-102997000D01*
X180467000Y-102997000D01*
X180213000Y-102997000D01*
X180193000Y-102997000D01*
X180193000Y-102743000D01*
X180213000Y-102743000D01*
X180213000Y-102723000D01*
X180467000Y-102723000D01*
X180467000Y-102743000D01*
X181660155Y-102743000D01*
X181781476Y-102513110D01*
X181736825Y-102365901D01*
X181611641Y-102103080D01*
X181437588Y-101869731D01*
X181221355Y-101674822D01*
X181104466Y-101605195D01*
X181286632Y-101483475D01*
X181493475Y-101276632D01*
X181655990Y-101033411D01*
X181767932Y-100763158D01*
X181825000Y-100476260D01*
X181825000Y-100183740D01*
X181767932Y-99896842D01*
X181655990Y-99626589D01*
X181493475Y-99383368D01*
X181286632Y-99176525D01*
X181112240Y-99060000D01*
X181286632Y-98943475D01*
X181493475Y-98736632D01*
X181655990Y-98493411D01*
X181767932Y-98223158D01*
X181825000Y-97936260D01*
X181825000Y-97643740D01*
X181767932Y-97356842D01*
X181655990Y-97086589D01*
X181493475Y-96843368D01*
X181286632Y-96636525D01*
X181043411Y-96474010D01*
X180773158Y-96362068D01*
X180486260Y-96305000D01*
X180193740Y-96305000D01*
X179906842Y-96362068D01*
X179636589Y-96474010D01*
X179393368Y-96636525D01*
X179261513Y-96768380D01*
X179239502Y-96695820D01*
X179180537Y-96585506D01*
X179101185Y-96488815D01*
X179004494Y-96409463D01*
X178894180Y-96350498D01*
X178774482Y-96314188D01*
X178650000Y-96301928D01*
X176950000Y-96301928D01*
X176825518Y-96314188D01*
X176705820Y-96350498D01*
X176595506Y-96409463D01*
X176498815Y-96488815D01*
X176419463Y-96585506D01*
X176360498Y-96695820D01*
X176324188Y-96815518D01*
X176311928Y-96940000D01*
X176311928Y-98640000D01*
X176318064Y-98702305D01*
X175013820Y-100006550D01*
X174983967Y-99934479D01*
X174892587Y-99797719D01*
X174776281Y-99681413D01*
X174639521Y-99590033D01*
X174535924Y-99547122D01*
X171067804Y-96079003D01*
X171044001Y-96049999D01*
X170928276Y-95955026D01*
X170796247Y-95884454D01*
X170652986Y-95840997D01*
X170541333Y-95830000D01*
X170541322Y-95830000D01*
X170504000Y-95826324D01*
X170466678Y-95830000D01*
X163957733Y-95830000D01*
X163937426Y-95828000D01*
X163199631Y-95828000D01*
X161864131Y-94492500D01*
X169811215Y-94492500D01*
X169858000Y-94497108D01*
X169904785Y-94492500D01*
X170044723Y-94478717D01*
X170224269Y-94424252D01*
X170389741Y-94335806D01*
X170534778Y-94216778D01*
X170564607Y-94180431D01*
X171209538Y-93535500D01*
X172131785Y-93535500D01*
X172271723Y-93521717D01*
X172451269Y-93467252D01*
X172616741Y-93378806D01*
X172761778Y-93259778D01*
X172880806Y-93114741D01*
X172969252Y-92949269D01*
X173023717Y-92769723D01*
X173042108Y-92583000D01*
X173023717Y-92396277D01*
X172969252Y-92216731D01*
X172880806Y-92051259D01*
X172761778Y-91906222D01*
X172616741Y-91787194D01*
X172451269Y-91698748D01*
X172271723Y-91644283D01*
X172131785Y-91630500D01*
X170861784Y-91630500D01*
X170814999Y-91625892D01*
X170628277Y-91644283D01*
X170448731Y-91698748D01*
X170283259Y-91787194D01*
X170138222Y-91906222D01*
X170108393Y-91942569D01*
X169463462Y-92587500D01*
X161643215Y-92587500D01*
X161503277Y-92601283D01*
X161323731Y-92655748D01*
X161158259Y-92744194D01*
X161013222Y-92863222D01*
X160894194Y-93008259D01*
X160805748Y-93173731D01*
X160751283Y-93353277D01*
X160748918Y-93377287D01*
X154632010Y-87260380D01*
X154632010Y-86223589D01*
X158635000Y-86223589D01*
X158635000Y-86496411D01*
X158688225Y-86763989D01*
X158792629Y-87016043D01*
X158944201Y-87242886D01*
X159137114Y-87435799D01*
X159363957Y-87587371D01*
X159616011Y-87691775D01*
X159883589Y-87745000D01*
X160156411Y-87745000D01*
X160423989Y-87691775D01*
X160676043Y-87587371D01*
X160902886Y-87435799D01*
X161095799Y-87242886D01*
X161247371Y-87016043D01*
X161351775Y-86763989D01*
X161405000Y-86496411D01*
X161405000Y-86223589D01*
X163515000Y-86223589D01*
X163515000Y-86496411D01*
X163568225Y-86763989D01*
X163672629Y-87016043D01*
X163824201Y-87242886D01*
X164017114Y-87435799D01*
X164243957Y-87587371D01*
X164496011Y-87691775D01*
X164763589Y-87745000D01*
X165036411Y-87745000D01*
X165303989Y-87691775D01*
X165556043Y-87587371D01*
X165782886Y-87435799D01*
X165975799Y-87242886D01*
X166127371Y-87016043D01*
X166231775Y-86763989D01*
X166285000Y-86496411D01*
X166285000Y-86223589D01*
X166231775Y-85956011D01*
X166127371Y-85703957D01*
X165975799Y-85477114D01*
X165782886Y-85284201D01*
X165556043Y-85132629D01*
X165303989Y-85028225D01*
X165036411Y-84975000D01*
X164763589Y-84975000D01*
X164496011Y-85028225D01*
X164243957Y-85132629D01*
X164017114Y-85284201D01*
X163824201Y-85477114D01*
X163672629Y-85703957D01*
X163568225Y-85956011D01*
X163515000Y-86223589D01*
X161405000Y-86223589D01*
X161351775Y-85956011D01*
X161247371Y-85703957D01*
X161095799Y-85477114D01*
X160902886Y-85284201D01*
X160676043Y-85132629D01*
X160423989Y-85028225D01*
X160156411Y-84975000D01*
X159883589Y-84975000D01*
X159616011Y-85028225D01*
X159363957Y-85132629D01*
X159137114Y-85284201D01*
X158944201Y-85477114D01*
X158792629Y-85703957D01*
X158688225Y-85956011D01*
X158635000Y-86223589D01*
X154632010Y-86223589D01*
X154632010Y-79993433D01*
X154635696Y-79956010D01*
X154628343Y-79881355D01*
X154620984Y-79806632D01*
X154577412Y-79662995D01*
X154508002Y-79533138D01*
X154506655Y-79530617D01*
X154444583Y-79454983D01*
X154411432Y-79414588D01*
X154382356Y-79390726D01*
X151441284Y-76449654D01*
X151417422Y-76420578D01*
X151301392Y-76325355D01*
X151169015Y-76254598D01*
X151025378Y-76211026D01*
X150913426Y-76200000D01*
X150913423Y-76200000D01*
X150876000Y-76196314D01*
X150838577Y-76200000D01*
X136232328Y-76200000D01*
X136133560Y-76159089D01*
X135972240Y-76127000D01*
X135807760Y-76127000D01*
X135646440Y-76159089D01*
X135494479Y-76222033D01*
X135357719Y-76313413D01*
X135241413Y-76429719D01*
X135150033Y-76566479D01*
X135087089Y-76718440D01*
X135055000Y-76879760D01*
X135055000Y-76962000D01*
X134935631Y-76962000D01*
X134112000Y-76138370D01*
X134112000Y-75047422D01*
X134115686Y-75009999D01*
X134112000Y-74972574D01*
X134105000Y-74901500D01*
X134105000Y-74847760D01*
X134072911Y-74686440D01*
X134009967Y-74534479D01*
X133918587Y-74397719D01*
X133802281Y-74281413D01*
X133665521Y-74190033D01*
X133513560Y-74127089D01*
X133352240Y-74095000D01*
X133187760Y-74095000D01*
X133026440Y-74127089D01*
X132874479Y-74190033D01*
X132737719Y-74281413D01*
X132621413Y-74397719D01*
X132530033Y-74534479D01*
X132467089Y-74686440D01*
X132435000Y-74847760D01*
X132435000Y-75012240D01*
X132467089Y-75173560D01*
X132530033Y-75325521D01*
X132588001Y-75412276D01*
X132588000Y-76416576D01*
X132584314Y-76454000D01*
X132588000Y-76491423D01*
X132588000Y-76491425D01*
X132599026Y-76603377D01*
X132642598Y-76747014D01*
X132675535Y-76808635D01*
X132713355Y-76879392D01*
X132749131Y-76922985D01*
X132808578Y-76995422D01*
X132837654Y-77019284D01*
X133234380Y-77416010D01*
X124467640Y-77416010D01*
X123952000Y-76900370D01*
X123952000Y-75047422D01*
X123955686Y-75009999D01*
X123952000Y-74972574D01*
X123945000Y-74901500D01*
X123945000Y-74847760D01*
X123912911Y-74686440D01*
X123849967Y-74534479D01*
X123758587Y-74397719D01*
X123642281Y-74281413D01*
X123505521Y-74190033D01*
X123353560Y-74127089D01*
X123192240Y-74095000D01*
X123027760Y-74095000D01*
X122866440Y-74127089D01*
X122714479Y-74190033D01*
X122577719Y-74281413D01*
X122461413Y-74397719D01*
X122370033Y-74534479D01*
X122307089Y-74686440D01*
X122275000Y-74847760D01*
X122275000Y-75012240D01*
X122307089Y-75173560D01*
X122370033Y-75325521D01*
X122428001Y-75412276D01*
X122428000Y-77178576D01*
X122424314Y-77216000D01*
X122428000Y-77253423D01*
X122428000Y-77253425D01*
X122439026Y-77365377D01*
X122482598Y-77509014D01*
X122499890Y-77541365D01*
X122553355Y-77641392D01*
X122582755Y-77677216D01*
X122648578Y-77757422D01*
X122677654Y-77781284D01*
X123586726Y-78690356D01*
X123610588Y-78719432D01*
X123684229Y-78779867D01*
X123726617Y-78814655D01*
X123797374Y-78852475D01*
X123858995Y-78885412D01*
X124002632Y-78928984D01*
X124114584Y-78940010D01*
X124114587Y-78940010D01*
X124152010Y-78943696D01*
X124189433Y-78940010D01*
X150252380Y-78940010D01*
X152146001Y-80833631D01*
X152146000Y-88100577D01*
X152142314Y-88138000D01*
X152146000Y-88175423D01*
X152146000Y-88175425D01*
X152157026Y-88287377D01*
X152200598Y-88431014D01*
X152200599Y-88431015D01*
X152271355Y-88563392D01*
X152305077Y-88604482D01*
X152366578Y-88679422D01*
X152395654Y-88703284D01*
X159004001Y-95311631D01*
X159004000Y-95669671D01*
X158963089Y-95768440D01*
X158931000Y-95929760D01*
X158931000Y-96012000D01*
X157795631Y-96012000D01*
X145542000Y-83758370D01*
X145542000Y-83013221D01*
X145636927Y-82962481D01*
X145870661Y-82770661D01*
X146050000Y-82552135D01*
X146229339Y-82770661D01*
X146463074Y-82962481D01*
X146729740Y-83105017D01*
X147019088Y-83192790D01*
X147320000Y-83222427D01*
X147620913Y-83192790D01*
X147910261Y-83105017D01*
X148176927Y-82962481D01*
X148410661Y-82770661D01*
X148594781Y-82546309D01*
X148654252Y-82638396D01*
X148864394Y-82855210D01*
X149112796Y-83026862D01*
X149389913Y-83146755D01*
X149495260Y-83171036D01*
X149733000Y-83050378D01*
X149733000Y-81407000D01*
X149987000Y-81407000D01*
X149987000Y-83050378D01*
X150224740Y-83171036D01*
X150330087Y-83146755D01*
X150607204Y-83026862D01*
X150855606Y-82855210D01*
X151065748Y-82638396D01*
X151229554Y-82384751D01*
X151340729Y-82104023D01*
X151395000Y-81807000D01*
X151395000Y-81407000D01*
X149987000Y-81407000D01*
X149733000Y-81407000D01*
X149713000Y-81407000D01*
X149713000Y-81153000D01*
X149733000Y-81153000D01*
X149733000Y-79509622D01*
X149987000Y-79509622D01*
X149987000Y-81153000D01*
X151395000Y-81153000D01*
X151395000Y-80753000D01*
X151340729Y-80455977D01*
X151229554Y-80175249D01*
X151065748Y-79921604D01*
X150855606Y-79704790D01*
X150607204Y-79533138D01*
X150330087Y-79413245D01*
X150224740Y-79388964D01*
X149987000Y-79509622D01*
X149733000Y-79509622D01*
X149495260Y-79388964D01*
X149389913Y-79413245D01*
X149112796Y-79533138D01*
X148864394Y-79704790D01*
X148654252Y-79921604D01*
X148594781Y-80013691D01*
X148410661Y-79789339D01*
X148176926Y-79597519D01*
X147910260Y-79454983D01*
X147620912Y-79367210D01*
X147320000Y-79337573D01*
X147019087Y-79367210D01*
X146729739Y-79454983D01*
X146463073Y-79597519D01*
X146229339Y-79789339D01*
X146050000Y-80007865D01*
X145870661Y-79789339D01*
X145636926Y-79597519D01*
X145370260Y-79454983D01*
X145080912Y-79367210D01*
X144780000Y-79337573D01*
X144479087Y-79367210D01*
X144189739Y-79454983D01*
X143923073Y-79597519D01*
X143689339Y-79789339D01*
X143510000Y-80007865D01*
X143330661Y-79789339D01*
X143096926Y-79597519D01*
X142830260Y-79454983D01*
X142540912Y-79367210D01*
X142240000Y-79337573D01*
X141939087Y-79367210D01*
X141649739Y-79454983D01*
X141383073Y-79597519D01*
X141149339Y-79789339D01*
X140970000Y-80007865D01*
X140790661Y-79789339D01*
X140556926Y-79597519D01*
X140290260Y-79454983D01*
X140000912Y-79367210D01*
X139700000Y-79337573D01*
X139399087Y-79367210D01*
X139109739Y-79454983D01*
X138843073Y-79597519D01*
X138609339Y-79789339D01*
X138430000Y-80007865D01*
X138250661Y-79789339D01*
X138016926Y-79597519D01*
X137750260Y-79454983D01*
X137460912Y-79367210D01*
X137160000Y-79337573D01*
X136859087Y-79367210D01*
X136569739Y-79454983D01*
X136303073Y-79597519D01*
X136069339Y-79789339D01*
X135890000Y-80007865D01*
X135710661Y-79789339D01*
X135476926Y-79597519D01*
X135210260Y-79454983D01*
X134920912Y-79367210D01*
X134620000Y-79337573D01*
X134319087Y-79367210D01*
X134029739Y-79454983D01*
X133763073Y-79597519D01*
X133529339Y-79789339D01*
X133350000Y-80007865D01*
X133170661Y-79789339D01*
X132936926Y-79597519D01*
X132670260Y-79454983D01*
X132380912Y-79367210D01*
X132080000Y-79337573D01*
X131779087Y-79367210D01*
X131489739Y-79454983D01*
X131223073Y-79597519D01*
X130989339Y-79789339D01*
X130810000Y-80007865D01*
X130630661Y-79789339D01*
X130396926Y-79597519D01*
X130130260Y-79454983D01*
X129840912Y-79367210D01*
X129540000Y-79337573D01*
X129239087Y-79367210D01*
X128949739Y-79454983D01*
X128683073Y-79597519D01*
X128449339Y-79789339D01*
X128270000Y-80007865D01*
X128090661Y-79789339D01*
X127856926Y-79597519D01*
X127590260Y-79454983D01*
X127300912Y-79367210D01*
X127000000Y-79337573D01*
X126699087Y-79367210D01*
X126409739Y-79454983D01*
X126143073Y-79597519D01*
X125909339Y-79789339D01*
X125730000Y-80007865D01*
X125550661Y-79789339D01*
X125316926Y-79597519D01*
X125050260Y-79454983D01*
X124760912Y-79367210D01*
X124460000Y-79337573D01*
X124159087Y-79367210D01*
X123869739Y-79454983D01*
X123603073Y-79597519D01*
X123369339Y-79789339D01*
X123185219Y-80013692D01*
X123125748Y-79921604D01*
X122915606Y-79704790D01*
X122667204Y-79533138D01*
X122390087Y-79413245D01*
X122284740Y-79388964D01*
X122047000Y-79509622D01*
X122047000Y-81153000D01*
X122067000Y-81153000D01*
X122067000Y-81407000D01*
X122047000Y-81407000D01*
X122047000Y-81427000D01*
X121793000Y-81427000D01*
X121793000Y-81407000D01*
X121773000Y-81407000D01*
X121773000Y-81153000D01*
X121793000Y-81153000D01*
X121793000Y-79509622D01*
X121555260Y-79388964D01*
X121449913Y-79413245D01*
X121172796Y-79533138D01*
X120924394Y-79704790D01*
X120714252Y-79921604D01*
X120654781Y-80013691D01*
X120470661Y-79789339D01*
X120236926Y-79597519D01*
X119970260Y-79454983D01*
X119680912Y-79367210D01*
X119380000Y-79337573D01*
X119079087Y-79367210D01*
X118789739Y-79454983D01*
X118523073Y-79597519D01*
X118289339Y-79789339D01*
X118110000Y-80007865D01*
X117930661Y-79789339D01*
X117696926Y-79597519D01*
X117430260Y-79454983D01*
X117140912Y-79367210D01*
X116840000Y-79337573D01*
X116539087Y-79367210D01*
X116249739Y-79454983D01*
X115983073Y-79597519D01*
X115749339Y-79789339D01*
X115570000Y-80007865D01*
X115390661Y-79789339D01*
X115252500Y-79675954D01*
X115252500Y-78118538D01*
X119520538Y-73850500D01*
X137019462Y-73850500D01*
X138739397Y-75570436D01*
X138769222Y-75606778D01*
X138914259Y-75725806D01*
X139079731Y-75814252D01*
X139259277Y-75868717D01*
X139446000Y-75887108D01*
X139492785Y-75882500D01*
X146257214Y-75882500D01*
X146303999Y-75887108D01*
X146350784Y-75882500D01*
X165975462Y-75882500D01*
X175577501Y-85484540D01*
X175577500Y-86482393D01*
X175376525Y-86683368D01*
X175214010Y-86926589D01*
X175102068Y-87196842D01*
X175045000Y-87483740D01*
X175045000Y-87776260D01*
X175102068Y-88063158D01*
X175214010Y-88333411D01*
X175376525Y-88576632D01*
X175583368Y-88783475D01*
X175826589Y-88945990D01*
X176096842Y-89057932D01*
X176383740Y-89115000D01*
X176676260Y-89115000D01*
X176963158Y-89057932D01*
X177233411Y-88945990D01*
X177476632Y-88783475D01*
X177608487Y-88651620D01*
X177630498Y-88724180D01*
X177689463Y-88834494D01*
X177768815Y-88931185D01*
X177865506Y-89010537D01*
X177975820Y-89069502D01*
X178095518Y-89105812D01*
X178220000Y-89118072D01*
X179920000Y-89118072D01*
X180044482Y-89105812D01*
X180164180Y-89069502D01*
X180274494Y-89010537D01*
X180371185Y-88931185D01*
X180450537Y-88834494D01*
X180509502Y-88724180D01*
X180545812Y-88604482D01*
X180558072Y-88480000D01*
X180558072Y-86780000D01*
X180545812Y-86655518D01*
X180509502Y-86535820D01*
X180450537Y-86425506D01*
X180371185Y-86328815D01*
X180274494Y-86249463D01*
X180164180Y-86190498D01*
X180044482Y-86154188D01*
X179920000Y-86141928D01*
X178220000Y-86141928D01*
X178095518Y-86154188D01*
X177975820Y-86190498D01*
X177865506Y-86249463D01*
X177768815Y-86328815D01*
X177689463Y-86425506D01*
X177630498Y-86535820D01*
X177608487Y-86608380D01*
X177482500Y-86482393D01*
X177482500Y-85136785D01*
X177487108Y-85090000D01*
X177468717Y-84903277D01*
X177414252Y-84723730D01*
X177370029Y-84640995D01*
X177325806Y-84558259D01*
X177206778Y-84413222D01*
X177170436Y-84383397D01*
X173856760Y-81069721D01*
X179125000Y-81069721D01*
X179125000Y-81490279D01*
X179207047Y-81902756D01*
X179367988Y-82291302D01*
X179601637Y-82640983D01*
X179899017Y-82938363D01*
X180248698Y-83172012D01*
X180637244Y-83332953D01*
X181049721Y-83415000D01*
X181470279Y-83415000D01*
X181882756Y-83332953D01*
X182271302Y-83172012D01*
X182620983Y-82938363D01*
X182918363Y-82640983D01*
X183152012Y-82291302D01*
X183312953Y-81902756D01*
X183395000Y-81490279D01*
X183395000Y-81069721D01*
X183312953Y-80657244D01*
X183152012Y-80268698D01*
X182918363Y-79919017D01*
X182620983Y-79621637D01*
X182271302Y-79387988D01*
X181882756Y-79227047D01*
X181470279Y-79145000D01*
X181049721Y-79145000D01*
X180637244Y-79227047D01*
X180248698Y-79387988D01*
X179899017Y-79621637D01*
X179601637Y-79919017D01*
X179367988Y-80268698D01*
X179207047Y-80657244D01*
X179125000Y-81069721D01*
X173856760Y-81069721D01*
X167076607Y-74289569D01*
X167046778Y-74253222D01*
X166901741Y-74134194D01*
X166736269Y-74045748D01*
X166556723Y-73991283D01*
X166416785Y-73977500D01*
X166370000Y-73972892D01*
X166323215Y-73977500D01*
X163197999Y-73977500D01*
X163311560Y-73954911D01*
X163463521Y-73891967D01*
X163600281Y-73800587D01*
X163716587Y-73684281D01*
X163807967Y-73547521D01*
X163870911Y-73395560D01*
X163903000Y-73234240D01*
X163903000Y-73069760D01*
X163870911Y-72908440D01*
X163807967Y-72756479D01*
X163716587Y-72619719D01*
X163600281Y-72503413D01*
X163463521Y-72412033D01*
X163311560Y-72349089D01*
X163150240Y-72317000D01*
X162985760Y-72317000D01*
X162824440Y-72349089D01*
X162725672Y-72390000D01*
X154080811Y-72390000D01*
X154155967Y-72277521D01*
X154196878Y-72178752D01*
X155505279Y-70870352D01*
X155505284Y-70870346D01*
X156316471Y-70059159D01*
X156335820Y-70069502D01*
X156455518Y-70105812D01*
X156580000Y-70118072D01*
X158380000Y-70118072D01*
X158504482Y-70105812D01*
X158624180Y-70069502D01*
X158734494Y-70010537D01*
X158831185Y-69931185D01*
X158910537Y-69834494D01*
X158969502Y-69724180D01*
X158975056Y-69705873D01*
X159041495Y-69772312D01*
X159292905Y-69940299D01*
X159572257Y-70056011D01*
X159868816Y-70115000D01*
X160171184Y-70115000D01*
X160467743Y-70056011D01*
X160747095Y-69940299D01*
X160998505Y-69772312D01*
X161212312Y-69558505D01*
X161380299Y-69307095D01*
X161496011Y-69027743D01*
X161555000Y-68731184D01*
X161555000Y-68428816D01*
X161496011Y-68132257D01*
X161482650Y-68100000D01*
X167791928Y-68100000D01*
X167791928Y-71600000D01*
X167804188Y-71724482D01*
X167840498Y-71844180D01*
X167899463Y-71954494D01*
X167978815Y-72051185D01*
X168075506Y-72130537D01*
X168185820Y-72189502D01*
X168305518Y-72225812D01*
X168430000Y-72238072D01*
X171930000Y-72238072D01*
X172054482Y-72225812D01*
X172174180Y-72189502D01*
X172284494Y-72130537D01*
X172381185Y-72051185D01*
X172460537Y-71954494D01*
X172519502Y-71844180D01*
X172555812Y-71724482D01*
X172568072Y-71600000D01*
X173791928Y-71600000D01*
X173804188Y-71724482D01*
X173840498Y-71844180D01*
X173899463Y-71954494D01*
X173978815Y-72051185D01*
X174075506Y-72130537D01*
X174185820Y-72189502D01*
X174305518Y-72225812D01*
X174430000Y-72238072D01*
X175894250Y-72235000D01*
X176053000Y-72076250D01*
X176053000Y-69977000D01*
X176307000Y-69977000D01*
X176307000Y-72076250D01*
X176465750Y-72235000D01*
X177930000Y-72238072D01*
X178054482Y-72225812D01*
X178174180Y-72189502D01*
X178284494Y-72130537D01*
X178381185Y-72051185D01*
X178460537Y-71954494D01*
X178519502Y-71844180D01*
X178555812Y-71724482D01*
X178568072Y-71600000D01*
X178565000Y-70135750D01*
X178406250Y-69977000D01*
X176307000Y-69977000D01*
X176053000Y-69977000D01*
X173953750Y-69977000D01*
X173795000Y-70135750D01*
X173791928Y-71600000D01*
X172568072Y-71600000D01*
X172568072Y-68100000D01*
X172555812Y-67975518D01*
X172519502Y-67855820D01*
X172460537Y-67745506D01*
X172381185Y-67648815D01*
X172284494Y-67569463D01*
X172222655Y-67536409D01*
X172894250Y-67535000D01*
X173053000Y-67376250D01*
X173053000Y-65277000D01*
X173307000Y-65277000D01*
X173307000Y-67376250D01*
X173465750Y-67535000D01*
X174137345Y-67536409D01*
X174075506Y-67569463D01*
X173978815Y-67648815D01*
X173899463Y-67745506D01*
X173840498Y-67855820D01*
X173804188Y-67975518D01*
X173791928Y-68100000D01*
X173795000Y-69564250D01*
X173953750Y-69723000D01*
X176053000Y-69723000D01*
X176053000Y-67623750D01*
X176307000Y-67623750D01*
X176307000Y-69723000D01*
X178406250Y-69723000D01*
X178565000Y-69564250D01*
X178568072Y-68100000D01*
X178555812Y-67975518D01*
X178519502Y-67855820D01*
X178460537Y-67745506D01*
X178381185Y-67648815D01*
X178284494Y-67569463D01*
X178174180Y-67510498D01*
X178054482Y-67474188D01*
X177930000Y-67461928D01*
X176465750Y-67465000D01*
X176307000Y-67623750D01*
X176053000Y-67623750D01*
X175894250Y-67465000D01*
X175222655Y-67463591D01*
X175284494Y-67430537D01*
X175381185Y-67351185D01*
X175460537Y-67254494D01*
X175519502Y-67144180D01*
X175555812Y-67024482D01*
X175568072Y-66900000D01*
X175565000Y-65435750D01*
X175406250Y-65277000D01*
X173307000Y-65277000D01*
X173053000Y-65277000D01*
X170953750Y-65277000D01*
X170795000Y-65435750D01*
X170791928Y-66900000D01*
X170804188Y-67024482D01*
X170840498Y-67144180D01*
X170899463Y-67254494D01*
X170978815Y-67351185D01*
X171075506Y-67430537D01*
X171134233Y-67461928D01*
X168430000Y-67461928D01*
X168305518Y-67474188D01*
X168185820Y-67510498D01*
X168075506Y-67569463D01*
X167978815Y-67648815D01*
X167899463Y-67745506D01*
X167840498Y-67855820D01*
X167804188Y-67975518D01*
X167791928Y-68100000D01*
X161482650Y-68100000D01*
X161380299Y-67852905D01*
X161212312Y-67601495D01*
X160998505Y-67387688D01*
X160747095Y-67219701D01*
X160467743Y-67103989D01*
X160171184Y-67045000D01*
X159868816Y-67045000D01*
X159572257Y-67103989D01*
X159292905Y-67219701D01*
X159041495Y-67387688D01*
X158975056Y-67454127D01*
X158969502Y-67435820D01*
X158910537Y-67325506D01*
X158831185Y-67228815D01*
X158734494Y-67149463D01*
X158624180Y-67090498D01*
X158504482Y-67054188D01*
X158380000Y-67041928D01*
X156580000Y-67041928D01*
X156455518Y-67054188D01*
X156335820Y-67090498D01*
X156225506Y-67149463D01*
X156128815Y-67228815D01*
X156049463Y-67325506D01*
X155990498Y-67435820D01*
X155954188Y-67555518D01*
X155941928Y-67680000D01*
X155941928Y-68278442D01*
X154427654Y-69792716D01*
X154427648Y-69792721D01*
X153119248Y-71101122D01*
X153020479Y-71142033D01*
X152883719Y-71233413D01*
X152767413Y-71349719D01*
X152676033Y-71486479D01*
X152646180Y-71558550D01*
X151202630Y-70115000D01*
X151281184Y-70115000D01*
X151577743Y-70056011D01*
X151857095Y-69940299D01*
X152108505Y-69772312D01*
X152322312Y-69558505D01*
X152490299Y-69307095D01*
X152606011Y-69027743D01*
X152665000Y-68731184D01*
X152665000Y-68428816D01*
X152606011Y-68132257D01*
X152490299Y-67852905D01*
X152322312Y-67601495D01*
X152108505Y-67387688D01*
X151857095Y-67219701D01*
X151577743Y-67103989D01*
X151281184Y-67045000D01*
X150978816Y-67045000D01*
X150682257Y-67103989D01*
X150402905Y-67219701D01*
X150151495Y-67387688D01*
X150085056Y-67454127D01*
X150079502Y-67435820D01*
X150020537Y-67325506D01*
X149941185Y-67228815D01*
X149844494Y-67149463D01*
X149734180Y-67090498D01*
X149614482Y-67054188D01*
X149490000Y-67041928D01*
X147690000Y-67041928D01*
X147565518Y-67054188D01*
X147445820Y-67090498D01*
X147335506Y-67149463D01*
X147238815Y-67228815D01*
X147159463Y-67325506D01*
X147100498Y-67435820D01*
X147064188Y-67555518D01*
X147051928Y-67680000D01*
X147051928Y-69480000D01*
X147064188Y-69604482D01*
X147100498Y-69724180D01*
X147159463Y-69834494D01*
X147238815Y-69931185D01*
X147335506Y-70010537D01*
X147445820Y-70069502D01*
X147565518Y-70105812D01*
X147690000Y-70118072D01*
X149050442Y-70118072D01*
X152596721Y-73664352D01*
X152620578Y-73693422D01*
X152736608Y-73788645D01*
X152868985Y-73859402D01*
X153012622Y-73902974D01*
X153124574Y-73914000D01*
X153124576Y-73914000D01*
X153161999Y-73917686D01*
X153199422Y-73914000D01*
X162725672Y-73914000D01*
X162824440Y-73954911D01*
X162938001Y-73977500D01*
X146698538Y-73977500D01*
X145732500Y-73011462D01*
X145732500Y-63400000D01*
X170791928Y-63400000D01*
X170795000Y-64864250D01*
X170953750Y-65023000D01*
X173053000Y-65023000D01*
X173053000Y-62923750D01*
X173307000Y-62923750D01*
X173307000Y-65023000D01*
X175406250Y-65023000D01*
X175565000Y-64864250D01*
X175568072Y-63400000D01*
X175555812Y-63275518D01*
X175519502Y-63155820D01*
X175460537Y-63045506D01*
X175381185Y-62948815D01*
X175284494Y-62869463D01*
X175174180Y-62810498D01*
X175054482Y-62774188D01*
X174930000Y-62761928D01*
X173465750Y-62765000D01*
X173307000Y-62923750D01*
X173053000Y-62923750D01*
X172894250Y-62765000D01*
X171430000Y-62761928D01*
X171305518Y-62774188D01*
X171185820Y-62810498D01*
X171075506Y-62869463D01*
X170978815Y-62948815D01*
X170899463Y-63045506D01*
X170840498Y-63155820D01*
X170804188Y-63275518D01*
X170791928Y-63400000D01*
X145732500Y-63400000D01*
X145732500Y-60837607D01*
X145927607Y-60642500D01*
X146172393Y-60642500D01*
X146373368Y-60843475D01*
X146616589Y-61005990D01*
X146886842Y-61117932D01*
X147173740Y-61175000D01*
X147466260Y-61175000D01*
X147753158Y-61117932D01*
X148023411Y-61005990D01*
X148266632Y-60843475D01*
X148473475Y-60636632D01*
X148590000Y-60462240D01*
X148706525Y-60636632D01*
X148913368Y-60843475D01*
X149156589Y-61005990D01*
X149426842Y-61117932D01*
X149713740Y-61175000D01*
X150006260Y-61175000D01*
X150293158Y-61117932D01*
X150563411Y-61005990D01*
X150806632Y-60843475D01*
X151013475Y-60636632D01*
X151175990Y-60393411D01*
X151287932Y-60123158D01*
X151345000Y-59836260D01*
X151345000Y-59543740D01*
X151287932Y-59256842D01*
X151175990Y-58986589D01*
X151013475Y-58743368D01*
X150806632Y-58536525D01*
X150632240Y-58420000D01*
X150806632Y-58303475D01*
X151013475Y-58096632D01*
X151175990Y-57853411D01*
X151287932Y-57583158D01*
X151345000Y-57296260D01*
X151345000Y-57003740D01*
X151287932Y-56716842D01*
X151175990Y-56446589D01*
X151013475Y-56203368D01*
X150806632Y-55996525D01*
X150563411Y-55834010D01*
X150293158Y-55722068D01*
X150006260Y-55665000D01*
X149713740Y-55665000D01*
X149426842Y-55722068D01*
X149156589Y-55834010D01*
X148913368Y-55996525D01*
X148706525Y-56203368D01*
X148590000Y-56377760D01*
X148473475Y-56203368D01*
X148266632Y-55996525D01*
X148023411Y-55834010D01*
X147753158Y-55722068D01*
X147466260Y-55665000D01*
X147173740Y-55665000D01*
X146886842Y-55722068D01*
X146616589Y-55834010D01*
X146373368Y-55996525D01*
X146172393Y-56197500D01*
X145927607Y-56197500D01*
X145726632Y-55996525D01*
X145483411Y-55834010D01*
X145213158Y-55722068D01*
X144926260Y-55665000D01*
X144633740Y-55665000D01*
X144346842Y-55722068D01*
X144076589Y-55834010D01*
X143833368Y-55996525D01*
X143632393Y-56197500D01*
X143387607Y-56197500D01*
X143186632Y-55996525D01*
X142943411Y-55834010D01*
X142673158Y-55722068D01*
X142386260Y-55665000D01*
X142093740Y-55665000D01*
X141806842Y-55722068D01*
X141536589Y-55834010D01*
X141293368Y-55996525D01*
X141086525Y-56203368D01*
X140970000Y-56377760D01*
X140853475Y-56203368D01*
X140646632Y-55996525D01*
X140403411Y-55834010D01*
X140133158Y-55722068D01*
X139846260Y-55665000D01*
X139553740Y-55665000D01*
X139266842Y-55722068D01*
X138996589Y-55834010D01*
X138753368Y-55996525D01*
X138546525Y-56203368D01*
X138384010Y-56446589D01*
X138272068Y-56716842D01*
X138215000Y-57003740D01*
X138215000Y-57296260D01*
X138272068Y-57583158D01*
X138384010Y-57853411D01*
X138546525Y-58096632D01*
X138678380Y-58228487D01*
X138605820Y-58250498D01*
X138495506Y-58309463D01*
X138398815Y-58388815D01*
X138319463Y-58485506D01*
X138260498Y-58595820D01*
X138224188Y-58715518D01*
X138211928Y-58840000D01*
X138211928Y-60540000D01*
X138224188Y-60664482D01*
X138260498Y-60784180D01*
X138319463Y-60894494D01*
X138398815Y-60991185D01*
X138495506Y-61070537D01*
X138605820Y-61129502D01*
X138725518Y-61165812D01*
X138850000Y-61178072D01*
X140550000Y-61178072D01*
X140674482Y-61165812D01*
X140794180Y-61129502D01*
X140904494Y-61070537D01*
X141001185Y-60991185D01*
X141080537Y-60894494D01*
X141139502Y-60784180D01*
X141161513Y-60711620D01*
X141293368Y-60843475D01*
X141536589Y-61005990D01*
X141806842Y-61117932D01*
X142093740Y-61175000D01*
X142386260Y-61175000D01*
X142673158Y-61117932D01*
X142943411Y-61005990D01*
X143186632Y-60843475D01*
X143387607Y-60642500D01*
X143632393Y-60642500D01*
X143827500Y-60837607D01*
X143827500Y-61006784D01*
X143827501Y-61006794D01*
X143827500Y-73359215D01*
X143822892Y-73406000D01*
X143827500Y-73452784D01*
X143841283Y-73592722D01*
X143895748Y-73772268D01*
X143984194Y-73937741D01*
X144016823Y-73977500D01*
X139840539Y-73977500D01*
X138120607Y-72257569D01*
X138090778Y-72221222D01*
X137945741Y-72102194D01*
X137780269Y-72013748D01*
X137600723Y-71959283D01*
X137460785Y-71945500D01*
X137414000Y-71940892D01*
X137367215Y-71945500D01*
X119172785Y-71945500D01*
X119126000Y-71940892D01*
X119079215Y-71945500D01*
X118939277Y-71959283D01*
X118849504Y-71986515D01*
X118759730Y-72013748D01*
X118726747Y-72031378D01*
X118594259Y-72102194D01*
X118449222Y-72221222D01*
X118419393Y-72257569D01*
X113659569Y-77017393D01*
X113623222Y-77047222D01*
X113504194Y-77192259D01*
X113415748Y-77357732D01*
X113393527Y-77430985D01*
X113361283Y-77537278D01*
X113342892Y-77724000D01*
X113347500Y-77770785D01*
X113347501Y-79675953D01*
X113254495Y-79752280D01*
X113249502Y-79735820D01*
X113190537Y-79625506D01*
X113111185Y-79528815D01*
X113014494Y-79449463D01*
X112904180Y-79390498D01*
X112784482Y-79354188D01*
X112660000Y-79341928D01*
X112045750Y-79345000D01*
X111887000Y-79503750D01*
X111887000Y-81153000D01*
X111907000Y-81153000D01*
X111907000Y-81407000D01*
X111887000Y-81407000D01*
X111887000Y-83056250D01*
X112045750Y-83215000D01*
X112660000Y-83218072D01*
X112784482Y-83205812D01*
X112904180Y-83169502D01*
X113014494Y-83110537D01*
X113111185Y-83031185D01*
X113190537Y-82934494D01*
X113249502Y-82824180D01*
X113254495Y-82807720D01*
X113443074Y-82962481D01*
X113709740Y-83105017D01*
X113999088Y-83192790D01*
X114300000Y-83222427D01*
X114600913Y-83192790D01*
X114890261Y-83105017D01*
X115156927Y-82962481D01*
X115390661Y-82770661D01*
X115570000Y-82552135D01*
X115749339Y-82770661D01*
X115983074Y-82962481D01*
X116249740Y-83105017D01*
X116539088Y-83192790D01*
X116840000Y-83222427D01*
X117140913Y-83192790D01*
X117430261Y-83105017D01*
X117696927Y-82962481D01*
X117930661Y-82770661D01*
X118110000Y-82552135D01*
X118289339Y-82770661D01*
X118523074Y-82962481D01*
X118789740Y-83105017D01*
X119079088Y-83192790D01*
X119380000Y-83222427D01*
X119680913Y-83192790D01*
X119970261Y-83105017D01*
X120072656Y-83050286D01*
X122370720Y-85348351D01*
X122394578Y-85377422D01*
X122510608Y-85472645D01*
X122642985Y-85543402D01*
X122786622Y-85586974D01*
X122898574Y-85598000D01*
X122898576Y-85598000D01*
X122935999Y-85601686D01*
X122973422Y-85598000D01*
X140908370Y-85598000D01*
X153290588Y-97980219D01*
X153244240Y-97971000D01*
X153079760Y-97971000D01*
X152918440Y-98003089D01*
X152766479Y-98066033D01*
X152629719Y-98157413D01*
X152513413Y-98273719D01*
X152422033Y-98410479D01*
X152381122Y-98509248D01*
X143956370Y-106934000D01*
X132371422Y-106934000D01*
X132333999Y-106930314D01*
X132296576Y-106934000D01*
X132296574Y-106934000D01*
X132184622Y-106945026D01*
X132040985Y-106988598D01*
X131908608Y-107059355D01*
X131792578Y-107154578D01*
X131768721Y-107183648D01*
X130513248Y-108439122D01*
X130414479Y-108480033D01*
X130277719Y-108571413D01*
X130161413Y-108687719D01*
X130070033Y-108824479D01*
X130007089Y-108976440D01*
X129975000Y-109137760D01*
X129975000Y-109302240D01*
X130007089Y-109463560D01*
X130070033Y-109615521D01*
X130161413Y-109752281D01*
X130277719Y-109868587D01*
X130414479Y-109959967D01*
X130566440Y-110022911D01*
X130727760Y-110055000D01*
X130892240Y-110055000D01*
X131053560Y-110022911D01*
X131205521Y-109959967D01*
X131342281Y-109868587D01*
X131458587Y-109752281D01*
X131549967Y-109615521D01*
X131590878Y-109516752D01*
X132649631Y-108458000D01*
X140627672Y-108458000D01*
X140574479Y-108480033D01*
X140437719Y-108571413D01*
X140321413Y-108687719D01*
X140230033Y-108824479D01*
X140167089Y-108976440D01*
X140135000Y-109137760D01*
X140135000Y-109302240D01*
X140167089Y-109463560D01*
X140230033Y-109615521D01*
X140321413Y-109752281D01*
X140437719Y-109868587D01*
X140574479Y-109959967D01*
X140726440Y-110022911D01*
X140887760Y-110055000D01*
X141052240Y-110055000D01*
X141213560Y-110022911D01*
X141312328Y-109982000D01*
X143726581Y-109982000D01*
X143764004Y-109985686D01*
X143801427Y-109982000D01*
X143801430Y-109982000D01*
X143913382Y-109970974D01*
X144057019Y-109927402D01*
X144189396Y-109856645D01*
X144305426Y-109761422D01*
X144329288Y-109732346D01*
X153458753Y-100602882D01*
X153557521Y-100561971D01*
X153694281Y-100470591D01*
X153810587Y-100354285D01*
X153841055Y-100308686D01*
X154419122Y-100886753D01*
X154460033Y-100985521D01*
X154551413Y-101122281D01*
X154667719Y-101238587D01*
X154804479Y-101329967D01*
X154956440Y-101392911D01*
X155064052Y-101414317D01*
X136590370Y-119888000D01*
X115552423Y-119888000D01*
X115515000Y-119884314D01*
X115477577Y-119888000D01*
X115477574Y-119888000D01*
X115365622Y-119899026D01*
X115221985Y-119942598D01*
X115160364Y-119975535D01*
X115089607Y-120013355D01*
X115006904Y-120081228D01*
X114973578Y-120108578D01*
X114949721Y-120137648D01*
X112249375Y-122837994D01*
X112236912Y-122832832D01*
X111921033Y-122770000D01*
X111598967Y-122770000D01*
X111283088Y-122832832D01*
X110985537Y-122956082D01*
X110717748Y-123135013D01*
X110490013Y-123362748D01*
X110311082Y-123630537D01*
X110187832Y-123928088D01*
X110125000Y-124243967D01*
X106895000Y-124243967D01*
X106832168Y-123928088D01*
X106708918Y-123630537D01*
X106529987Y-123362748D01*
X106302252Y-123135013D01*
X106034463Y-122956082D01*
X105736912Y-122832832D01*
X105421033Y-122770000D01*
X105098967Y-122770000D01*
X104783088Y-122832832D01*
X104485537Y-122956082D01*
X104217748Y-123135013D01*
X103990013Y-123362748D01*
X103811082Y-123630537D01*
X103687832Y-123928088D01*
X103625000Y-124243967D01*
X102362000Y-124243967D01*
X102362000Y-112070421D01*
X104125900Y-112070421D01*
X104125900Y-112490979D01*
X104207947Y-112903456D01*
X104368888Y-113292002D01*
X104602537Y-113641683D01*
X104899917Y-113939063D01*
X105249598Y-114172712D01*
X105638144Y-114333653D01*
X106050621Y-114415700D01*
X106471179Y-114415700D01*
X106883656Y-114333653D01*
X107272202Y-114172712D01*
X107621883Y-113939063D01*
X107919263Y-113641683D01*
X108152912Y-113292002D01*
X108313853Y-112903456D01*
X108395900Y-112490979D01*
X108395900Y-112070421D01*
X108313853Y-111657944D01*
X108152912Y-111269398D01*
X107919263Y-110919717D01*
X107621883Y-110622337D01*
X107272202Y-110388688D01*
X106883656Y-110227747D01*
X106471179Y-110145700D01*
X106050621Y-110145700D01*
X105638144Y-110227747D01*
X105249598Y-110388688D01*
X104899917Y-110622337D01*
X104602537Y-110919717D01*
X104368888Y-111269398D01*
X104207947Y-111657944D01*
X104125900Y-112070421D01*
X102362000Y-112070421D01*
X102362000Y-103380000D01*
X124331928Y-103380000D01*
X124331928Y-104900000D01*
X124344188Y-105024482D01*
X124380498Y-105144180D01*
X124439463Y-105254494D01*
X124518815Y-105351185D01*
X124615506Y-105430537D01*
X124725820Y-105489502D01*
X124845518Y-105525812D01*
X124970000Y-105538072D01*
X126490000Y-105538072D01*
X126614482Y-105525812D01*
X126734180Y-105489502D01*
X126844494Y-105430537D01*
X126941185Y-105351185D01*
X127020537Y-105254494D01*
X127079502Y-105144180D01*
X127115812Y-105024482D01*
X127124474Y-104936533D01*
X127186433Y-105029261D01*
X127380739Y-105223567D01*
X127609220Y-105376233D01*
X127863093Y-105481391D01*
X128132604Y-105535000D01*
X128407396Y-105535000D01*
X128676907Y-105481391D01*
X128930780Y-105376233D01*
X129159261Y-105223567D01*
X129278691Y-105104137D01*
X130025469Y-105104137D01*
X130092206Y-105344025D01*
X130340892Y-105460924D01*
X130607606Y-105527061D01*
X130882097Y-105539895D01*
X131153817Y-105498931D01*
X131412326Y-105405744D01*
X131527794Y-105344025D01*
X131594531Y-105104137D01*
X130810000Y-104319605D01*
X130025469Y-105104137D01*
X129278691Y-105104137D01*
X129353567Y-105029261D01*
X129506233Y-104800780D01*
X129537830Y-104724499D01*
X129544256Y-104742326D01*
X129605975Y-104857794D01*
X129845863Y-104924531D01*
X130630395Y-104140000D01*
X130989605Y-104140000D01*
X131774137Y-104924531D01*
X132014025Y-104857794D01*
X132130924Y-104609108D01*
X132197061Y-104342394D01*
X132209895Y-104067903D01*
X132168931Y-103796183D01*
X132075744Y-103537674D01*
X132014025Y-103422206D01*
X131862315Y-103380000D01*
X134491928Y-103380000D01*
X134491928Y-104900000D01*
X134504188Y-105024482D01*
X134540498Y-105144180D01*
X134599463Y-105254494D01*
X134678815Y-105351185D01*
X134775506Y-105430537D01*
X134885820Y-105489502D01*
X135005518Y-105525812D01*
X135130000Y-105538072D01*
X136650000Y-105538072D01*
X136774482Y-105525812D01*
X136894180Y-105489502D01*
X137004494Y-105430537D01*
X137101185Y-105351185D01*
X137180537Y-105254494D01*
X137239502Y-105144180D01*
X137275812Y-105024482D01*
X137284474Y-104936533D01*
X137346433Y-105029261D01*
X137540739Y-105223567D01*
X137769220Y-105376233D01*
X138023093Y-105481391D01*
X138292604Y-105535000D01*
X138567396Y-105535000D01*
X138836907Y-105481391D01*
X139090780Y-105376233D01*
X139319261Y-105223567D01*
X139438691Y-105104137D01*
X140185469Y-105104137D01*
X140252206Y-105344025D01*
X140500892Y-105460924D01*
X140767606Y-105527061D01*
X141042097Y-105539895D01*
X141313817Y-105498931D01*
X141572326Y-105405744D01*
X141687794Y-105344025D01*
X141754531Y-105104137D01*
X140970000Y-104319605D01*
X140185469Y-105104137D01*
X139438691Y-105104137D01*
X139513567Y-105029261D01*
X139666233Y-104800780D01*
X139697830Y-104724499D01*
X139704256Y-104742326D01*
X139765975Y-104857794D01*
X140005863Y-104924531D01*
X140790395Y-104140000D01*
X141149605Y-104140000D01*
X141934137Y-104924531D01*
X142174025Y-104857794D01*
X142290924Y-104609108D01*
X142357061Y-104342394D01*
X142369895Y-104067903D01*
X142328931Y-103796183D01*
X142235744Y-103537674D01*
X142174025Y-103422206D01*
X141934137Y-103355469D01*
X141149605Y-104140000D01*
X140790395Y-104140000D01*
X140005863Y-103355469D01*
X139765975Y-103422206D01*
X139700400Y-103561707D01*
X139666233Y-103479220D01*
X139513567Y-103250739D01*
X139438691Y-103175863D01*
X140185469Y-103175863D01*
X140970000Y-103960395D01*
X141754531Y-103175863D01*
X141687794Y-102935975D01*
X141439108Y-102819076D01*
X141172394Y-102752939D01*
X140897903Y-102740105D01*
X140626183Y-102781069D01*
X140367674Y-102874256D01*
X140252206Y-102935975D01*
X140185469Y-103175863D01*
X139438691Y-103175863D01*
X139319261Y-103056433D01*
X139090780Y-102903767D01*
X138836907Y-102798609D01*
X138567396Y-102745000D01*
X138292604Y-102745000D01*
X138023093Y-102798609D01*
X137769220Y-102903767D01*
X137540739Y-103056433D01*
X137346433Y-103250739D01*
X137284474Y-103343467D01*
X137275812Y-103255518D01*
X137239502Y-103135820D01*
X137180537Y-103025506D01*
X137101185Y-102928815D01*
X137004494Y-102849463D01*
X136894180Y-102790498D01*
X136774482Y-102754188D01*
X136650000Y-102741928D01*
X135130000Y-102741928D01*
X135005518Y-102754188D01*
X134885820Y-102790498D01*
X134775506Y-102849463D01*
X134678815Y-102928815D01*
X134599463Y-103025506D01*
X134540498Y-103135820D01*
X134504188Y-103255518D01*
X134491928Y-103380000D01*
X131862315Y-103380000D01*
X131774137Y-103355469D01*
X130989605Y-104140000D01*
X130630395Y-104140000D01*
X129845863Y-103355469D01*
X129605975Y-103422206D01*
X129540400Y-103561707D01*
X129506233Y-103479220D01*
X129353567Y-103250739D01*
X129278691Y-103175863D01*
X130025469Y-103175863D01*
X130810000Y-103960395D01*
X131594531Y-103175863D01*
X131527794Y-102935975D01*
X131279108Y-102819076D01*
X131012394Y-102752939D01*
X130737903Y-102740105D01*
X130466183Y-102781069D01*
X130207674Y-102874256D01*
X130092206Y-102935975D01*
X130025469Y-103175863D01*
X129278691Y-103175863D01*
X129159261Y-103056433D01*
X128930780Y-102903767D01*
X128676907Y-102798609D01*
X128407396Y-102745000D01*
X128132604Y-102745000D01*
X127863093Y-102798609D01*
X127609220Y-102903767D01*
X127380739Y-103056433D01*
X127186433Y-103250739D01*
X127124474Y-103343467D01*
X127115812Y-103255518D01*
X127079502Y-103135820D01*
X127020537Y-103025506D01*
X126941185Y-102928815D01*
X126844494Y-102849463D01*
X126734180Y-102790498D01*
X126614482Y-102754188D01*
X126490000Y-102741928D01*
X124970000Y-102741928D01*
X124845518Y-102754188D01*
X124725820Y-102790498D01*
X124615506Y-102849463D01*
X124518815Y-102928815D01*
X124439463Y-103025506D01*
X124380498Y-103135820D01*
X124344188Y-103255518D01*
X124331928Y-103380000D01*
X102362000Y-103380000D01*
X102362000Y-93754344D01*
X108645000Y-93754344D01*
X108645000Y-94125656D01*
X108717439Y-94489834D01*
X108859534Y-94832882D01*
X109065825Y-95141618D01*
X109328382Y-95404175D01*
X109637118Y-95610466D01*
X109980166Y-95752561D01*
X110344344Y-95825000D01*
X110715656Y-95825000D01*
X111079834Y-95752561D01*
X111422882Y-95610466D01*
X111731618Y-95404175D01*
X111994175Y-95141618D01*
X112200466Y-94832882D01*
X112342561Y-94489834D01*
X112415000Y-94125656D01*
X112415000Y-93754344D01*
X112399046Y-93674137D01*
X126215469Y-93674137D01*
X126282206Y-93914025D01*
X126530892Y-94030924D01*
X126797606Y-94097061D01*
X127072097Y-94109895D01*
X127343817Y-94068931D01*
X127602326Y-93975744D01*
X127717794Y-93914025D01*
X127784531Y-93674137D01*
X138915469Y-93674137D01*
X138982206Y-93914025D01*
X139230892Y-94030924D01*
X139497606Y-94097061D01*
X139772097Y-94109895D01*
X140043817Y-94068931D01*
X140302326Y-93975744D01*
X140417794Y-93914025D01*
X140484531Y-93674137D01*
X139700000Y-92889605D01*
X138915469Y-93674137D01*
X127784531Y-93674137D01*
X127000000Y-92889605D01*
X126215469Y-93674137D01*
X112399046Y-93674137D01*
X112342561Y-93390166D01*
X112200466Y-93047118D01*
X112023385Y-92782097D01*
X125600105Y-92782097D01*
X125641069Y-93053817D01*
X125734256Y-93312326D01*
X125795975Y-93427794D01*
X126035863Y-93494531D01*
X126820395Y-92710000D01*
X127179605Y-92710000D01*
X127964137Y-93494531D01*
X128204025Y-93427794D01*
X128320924Y-93179108D01*
X128387061Y-92912394D01*
X128393153Y-92782097D01*
X138300105Y-92782097D01*
X138341069Y-93053817D01*
X138434256Y-93312326D01*
X138495975Y-93427794D01*
X138735863Y-93494531D01*
X139520395Y-92710000D01*
X139879605Y-92710000D01*
X140664137Y-93494531D01*
X140904025Y-93427794D01*
X141020924Y-93179108D01*
X141087061Y-92912394D01*
X141099895Y-92637903D01*
X141058931Y-92366183D01*
X140965744Y-92107674D01*
X140904025Y-91992206D01*
X140664137Y-91925469D01*
X139879605Y-92710000D01*
X139520395Y-92710000D01*
X138735863Y-91925469D01*
X138495975Y-91992206D01*
X138379076Y-92240892D01*
X138312939Y-92507606D01*
X138300105Y-92782097D01*
X128393153Y-92782097D01*
X128399895Y-92637903D01*
X128358931Y-92366183D01*
X128265744Y-92107674D01*
X128204025Y-91992206D01*
X127964137Y-91925469D01*
X127179605Y-92710000D01*
X126820395Y-92710000D01*
X126035863Y-91925469D01*
X125795975Y-91992206D01*
X125679076Y-92240892D01*
X125612939Y-92507606D01*
X125600105Y-92782097D01*
X112023385Y-92782097D01*
X111994175Y-92738382D01*
X111731618Y-92475825D01*
X111422882Y-92269534D01*
X111079834Y-92127439D01*
X110715656Y-92055000D01*
X110344344Y-92055000D01*
X109980166Y-92127439D01*
X109637118Y-92269534D01*
X109328382Y-92475825D01*
X109065825Y-92738382D01*
X108859534Y-93047118D01*
X108717439Y-93390166D01*
X108645000Y-93754344D01*
X102362000Y-93754344D01*
X102362000Y-90213605D01*
X106896000Y-90213605D01*
X107021914Y-90503577D01*
X107354126Y-90669433D01*
X107712312Y-90767290D01*
X108082706Y-90793389D01*
X108451075Y-90746725D01*
X108803262Y-90629094D01*
X109038086Y-90503577D01*
X109164000Y-90213605D01*
X108030000Y-89079605D01*
X106896000Y-90213605D01*
X102362000Y-90213605D01*
X102362000Y-88952706D01*
X106136611Y-88952706D01*
X106183275Y-89321075D01*
X106300906Y-89673262D01*
X106426423Y-89908086D01*
X106716395Y-90034000D01*
X107850395Y-88900000D01*
X108209605Y-88900000D01*
X109343605Y-90034000D01*
X109633577Y-89908086D01*
X109799433Y-89575874D01*
X109897290Y-89217688D01*
X109923389Y-88847294D01*
X109906548Y-88714344D01*
X111145000Y-88714344D01*
X111145000Y-89085656D01*
X111217439Y-89449834D01*
X111359534Y-89792882D01*
X111565825Y-90101618D01*
X111828382Y-90364175D01*
X112137118Y-90570466D01*
X112480166Y-90712561D01*
X112844344Y-90785000D01*
X113215656Y-90785000D01*
X113579834Y-90712561D01*
X113922882Y-90570466D01*
X114231618Y-90364175D01*
X114494175Y-90101618D01*
X114700466Y-89792882D01*
X114842561Y-89449834D01*
X114915000Y-89085656D01*
X114915000Y-88714344D01*
X114842561Y-88350166D01*
X114700466Y-88007118D01*
X114494175Y-87698382D01*
X114231618Y-87435825D01*
X113922882Y-87229534D01*
X113579834Y-87087439D01*
X113215656Y-87015000D01*
X112844344Y-87015000D01*
X112480166Y-87087439D01*
X112137118Y-87229534D01*
X111828382Y-87435825D01*
X111565825Y-87698382D01*
X111359534Y-88007118D01*
X111217439Y-88350166D01*
X111145000Y-88714344D01*
X109906548Y-88714344D01*
X109876725Y-88478925D01*
X109759094Y-88126738D01*
X109633577Y-87891914D01*
X109343605Y-87766000D01*
X108209605Y-88900000D01*
X107850395Y-88900000D01*
X106716395Y-87766000D01*
X106426423Y-87891914D01*
X106260567Y-88224126D01*
X106162710Y-88582312D01*
X106136611Y-88952706D01*
X102362000Y-88952706D01*
X102362000Y-87586395D01*
X106896000Y-87586395D01*
X108030000Y-88720395D01*
X109164000Y-87586395D01*
X109038086Y-87296423D01*
X108705874Y-87130567D01*
X108347688Y-87032710D01*
X107977294Y-87006611D01*
X107608925Y-87053275D01*
X107256738Y-87170906D01*
X107021914Y-87296423D01*
X106896000Y-87586395D01*
X102362000Y-87586395D01*
X102362000Y-86870000D01*
X125601928Y-86870000D01*
X125601928Y-88390000D01*
X125614188Y-88514482D01*
X125650498Y-88634180D01*
X125709463Y-88744494D01*
X125788815Y-88841185D01*
X125885506Y-88920537D01*
X125995820Y-88979502D01*
X126115518Y-89015812D01*
X126203467Y-89024474D01*
X126110739Y-89086433D01*
X125916433Y-89280739D01*
X125763767Y-89509220D01*
X125658609Y-89763093D01*
X125605000Y-90032604D01*
X125605000Y-90307396D01*
X125658609Y-90576907D01*
X125763767Y-90830780D01*
X125916433Y-91059261D01*
X126110739Y-91253567D01*
X126339220Y-91406233D01*
X126415501Y-91437830D01*
X126397674Y-91444256D01*
X126282206Y-91505975D01*
X126215469Y-91745863D01*
X127000000Y-92530395D01*
X127784531Y-91745863D01*
X127717794Y-91505975D01*
X127578293Y-91440400D01*
X127660780Y-91406233D01*
X127889261Y-91253567D01*
X128083567Y-91059261D01*
X128236233Y-90830780D01*
X128341391Y-90576907D01*
X128395000Y-90307396D01*
X128395000Y-90032604D01*
X128341391Y-89763093D01*
X128236233Y-89509220D01*
X128083567Y-89280739D01*
X127889261Y-89086433D01*
X127796533Y-89024474D01*
X127884482Y-89015812D01*
X128004180Y-88979502D01*
X128114494Y-88920537D01*
X128211185Y-88841185D01*
X128290537Y-88744494D01*
X128349502Y-88634180D01*
X128385812Y-88514482D01*
X128398072Y-88390000D01*
X128398072Y-86870000D01*
X138301928Y-86870000D01*
X138301928Y-88390000D01*
X138314188Y-88514482D01*
X138350498Y-88634180D01*
X138409463Y-88744494D01*
X138488815Y-88841185D01*
X138585506Y-88920537D01*
X138695820Y-88979502D01*
X138815518Y-89015812D01*
X138903467Y-89024474D01*
X138810739Y-89086433D01*
X138616433Y-89280739D01*
X138463767Y-89509220D01*
X138358609Y-89763093D01*
X138305000Y-90032604D01*
X138305000Y-90307396D01*
X138358609Y-90576907D01*
X138463767Y-90830780D01*
X138616433Y-91059261D01*
X138810739Y-91253567D01*
X139039220Y-91406233D01*
X139115501Y-91437830D01*
X139097674Y-91444256D01*
X138982206Y-91505975D01*
X138915469Y-91745863D01*
X139700000Y-92530395D01*
X140484531Y-91745863D01*
X140417794Y-91505975D01*
X140278293Y-91440400D01*
X140360780Y-91406233D01*
X140589261Y-91253567D01*
X140783567Y-91059261D01*
X140936233Y-90830780D01*
X141041391Y-90576907D01*
X141095000Y-90307396D01*
X141095000Y-90032604D01*
X141041391Y-89763093D01*
X140936233Y-89509220D01*
X140783567Y-89280739D01*
X140589261Y-89086433D01*
X140496533Y-89024474D01*
X140584482Y-89015812D01*
X140704180Y-88979502D01*
X140814494Y-88920537D01*
X140911185Y-88841185D01*
X140990537Y-88744494D01*
X141049502Y-88634180D01*
X141085812Y-88514482D01*
X141098072Y-88390000D01*
X141098072Y-86870000D01*
X141085812Y-86745518D01*
X141049502Y-86625820D01*
X140990537Y-86515506D01*
X140911185Y-86418815D01*
X140814494Y-86339463D01*
X140704180Y-86280498D01*
X140584482Y-86244188D01*
X140460000Y-86231928D01*
X138940000Y-86231928D01*
X138815518Y-86244188D01*
X138695820Y-86280498D01*
X138585506Y-86339463D01*
X138488815Y-86418815D01*
X138409463Y-86515506D01*
X138350498Y-86625820D01*
X138314188Y-86745518D01*
X138301928Y-86870000D01*
X128398072Y-86870000D01*
X128385812Y-86745518D01*
X128349502Y-86625820D01*
X128290537Y-86515506D01*
X128211185Y-86418815D01*
X128114494Y-86339463D01*
X128004180Y-86280498D01*
X127884482Y-86244188D01*
X127760000Y-86231928D01*
X126240000Y-86231928D01*
X126115518Y-86244188D01*
X125995820Y-86280498D01*
X125885506Y-86339463D01*
X125788815Y-86418815D01*
X125709463Y-86515506D01*
X125650498Y-86625820D01*
X125614188Y-86745518D01*
X125601928Y-86870000D01*
X102362000Y-86870000D01*
X102362000Y-81069721D01*
X104125900Y-81069721D01*
X104125900Y-81490279D01*
X104207947Y-81902756D01*
X104368888Y-82291302D01*
X104602537Y-82640983D01*
X104899917Y-82938363D01*
X105249598Y-83172012D01*
X105638144Y-83332953D01*
X106050621Y-83415000D01*
X106471179Y-83415000D01*
X106883656Y-83332953D01*
X107272202Y-83172012D01*
X107621883Y-82938363D01*
X107919263Y-82640983D01*
X107960010Y-82580000D01*
X110221928Y-82580000D01*
X110234188Y-82704482D01*
X110270498Y-82824180D01*
X110329463Y-82934494D01*
X110408815Y-83031185D01*
X110505506Y-83110537D01*
X110615820Y-83169502D01*
X110735518Y-83205812D01*
X110860000Y-83218072D01*
X111474250Y-83215000D01*
X111633000Y-83056250D01*
X111633000Y-81407000D01*
X110383750Y-81407000D01*
X110225000Y-81565750D01*
X110221928Y-82580000D01*
X107960010Y-82580000D01*
X108152912Y-82291302D01*
X108313853Y-81902756D01*
X108395900Y-81490279D01*
X108395900Y-81069721D01*
X108313853Y-80657244D01*
X108152912Y-80268698D01*
X107960011Y-79980000D01*
X110221928Y-79980000D01*
X110225000Y-80994250D01*
X110383750Y-81153000D01*
X111633000Y-81153000D01*
X111633000Y-79503750D01*
X111474250Y-79345000D01*
X110860000Y-79341928D01*
X110735518Y-79354188D01*
X110615820Y-79390498D01*
X110505506Y-79449463D01*
X110408815Y-79528815D01*
X110329463Y-79625506D01*
X110270498Y-79735820D01*
X110234188Y-79855518D01*
X110221928Y-79980000D01*
X107960011Y-79980000D01*
X107919263Y-79919017D01*
X107621883Y-79621637D01*
X107272202Y-79387988D01*
X106883656Y-79227047D01*
X106471179Y-79145000D01*
X106050621Y-79145000D01*
X105638144Y-79227047D01*
X105249598Y-79387988D01*
X104899917Y-79621637D01*
X104602537Y-79919017D01*
X104368888Y-80268698D01*
X104207947Y-80657244D01*
X104125900Y-81069721D01*
X102362000Y-81069721D01*
X102362000Y-69480000D01*
X111491928Y-69480000D01*
X111504188Y-69604482D01*
X111540498Y-69724180D01*
X111599463Y-69834494D01*
X111678815Y-69931185D01*
X111775506Y-70010537D01*
X111885820Y-70069502D01*
X112005518Y-70105812D01*
X112130000Y-70118072D01*
X112744250Y-70115000D01*
X112903000Y-69956250D01*
X112903000Y-68707000D01*
X111653750Y-68707000D01*
X111495000Y-68865750D01*
X111491928Y-69480000D01*
X102362000Y-69480000D01*
X102362000Y-67680000D01*
X111491928Y-67680000D01*
X111495000Y-68294250D01*
X111653750Y-68453000D01*
X112903000Y-68453000D01*
X112903000Y-67203750D01*
X113157000Y-67203750D01*
X113157000Y-68453000D01*
X113177000Y-68453000D01*
X113177000Y-68707000D01*
X113157000Y-68707000D01*
X113157000Y-69956250D01*
X113315750Y-70115000D01*
X113930000Y-70118072D01*
X114054482Y-70105812D01*
X114174180Y-70069502D01*
X114284494Y-70010537D01*
X114381185Y-69931185D01*
X114460537Y-69834494D01*
X114519502Y-69724180D01*
X114525056Y-69705873D01*
X114591495Y-69772312D01*
X114842905Y-69940299D01*
X115122257Y-70056011D01*
X115418816Y-70115000D01*
X115721184Y-70115000D01*
X116017743Y-70056011D01*
X116297095Y-69940299D01*
X116548505Y-69772312D01*
X116762312Y-69558505D01*
X116814767Y-69480000D01*
X121651928Y-69480000D01*
X121664188Y-69604482D01*
X121700498Y-69724180D01*
X121759463Y-69834494D01*
X121838815Y-69931185D01*
X121935506Y-70010537D01*
X122045820Y-70069502D01*
X122165518Y-70105812D01*
X122290000Y-70118072D01*
X122904250Y-70115000D01*
X123063000Y-69956250D01*
X123063000Y-68707000D01*
X121813750Y-68707000D01*
X121655000Y-68865750D01*
X121651928Y-69480000D01*
X116814767Y-69480000D01*
X116930299Y-69307095D01*
X117046011Y-69027743D01*
X117105000Y-68731184D01*
X117105000Y-68428816D01*
X117046011Y-68132257D01*
X116930299Y-67852905D01*
X116814768Y-67680000D01*
X121651928Y-67680000D01*
X121655000Y-68294250D01*
X121813750Y-68453000D01*
X123063000Y-68453000D01*
X123063000Y-67203750D01*
X123317000Y-67203750D01*
X123317000Y-68453000D01*
X123337000Y-68453000D01*
X123337000Y-68707000D01*
X123317000Y-68707000D01*
X123317000Y-69956250D01*
X123475750Y-70115000D01*
X124090000Y-70118072D01*
X124214482Y-70105812D01*
X124334180Y-70069502D01*
X124444494Y-70010537D01*
X124541185Y-69931185D01*
X124620537Y-69834494D01*
X124679502Y-69724180D01*
X124685056Y-69705873D01*
X124751495Y-69772312D01*
X125002905Y-69940299D01*
X125282257Y-70056011D01*
X125578816Y-70115000D01*
X125881184Y-70115000D01*
X126177743Y-70056011D01*
X126457095Y-69940299D01*
X126708505Y-69772312D01*
X126922312Y-69558505D01*
X126974767Y-69480000D01*
X131811928Y-69480000D01*
X131824188Y-69604482D01*
X131860498Y-69724180D01*
X131919463Y-69834494D01*
X131998815Y-69931185D01*
X132095506Y-70010537D01*
X132205820Y-70069502D01*
X132325518Y-70105812D01*
X132450000Y-70118072D01*
X133064250Y-70115000D01*
X133223000Y-69956250D01*
X133223000Y-68707000D01*
X131973750Y-68707000D01*
X131815000Y-68865750D01*
X131811928Y-69480000D01*
X126974767Y-69480000D01*
X127090299Y-69307095D01*
X127206011Y-69027743D01*
X127265000Y-68731184D01*
X127265000Y-68428816D01*
X127206011Y-68132257D01*
X127090299Y-67852905D01*
X126974768Y-67680000D01*
X131811928Y-67680000D01*
X131815000Y-68294250D01*
X131973750Y-68453000D01*
X133223000Y-68453000D01*
X133223000Y-67203750D01*
X133477000Y-67203750D01*
X133477000Y-68453000D01*
X133497000Y-68453000D01*
X133497000Y-68707000D01*
X133477000Y-68707000D01*
X133477000Y-69956250D01*
X133635750Y-70115000D01*
X134250000Y-70118072D01*
X134374482Y-70105812D01*
X134494180Y-70069502D01*
X134604494Y-70010537D01*
X134701185Y-69931185D01*
X134780537Y-69834494D01*
X134839502Y-69724180D01*
X134845056Y-69705873D01*
X134911495Y-69772312D01*
X135162905Y-69940299D01*
X135442257Y-70056011D01*
X135738816Y-70115000D01*
X136041184Y-70115000D01*
X136337743Y-70056011D01*
X136617095Y-69940299D01*
X136868505Y-69772312D01*
X137082312Y-69558505D01*
X137250299Y-69307095D01*
X137366011Y-69027743D01*
X137425000Y-68731184D01*
X137425000Y-68428816D01*
X137366011Y-68132257D01*
X137250299Y-67852905D01*
X137082312Y-67601495D01*
X136868505Y-67387688D01*
X136617095Y-67219701D01*
X136337743Y-67103989D01*
X136041184Y-67045000D01*
X135738816Y-67045000D01*
X135442257Y-67103989D01*
X135162905Y-67219701D01*
X134911495Y-67387688D01*
X134845056Y-67454127D01*
X134839502Y-67435820D01*
X134780537Y-67325506D01*
X134701185Y-67228815D01*
X134604494Y-67149463D01*
X134494180Y-67090498D01*
X134374482Y-67054188D01*
X134250000Y-67041928D01*
X133635750Y-67045000D01*
X133477000Y-67203750D01*
X133223000Y-67203750D01*
X133064250Y-67045000D01*
X132450000Y-67041928D01*
X132325518Y-67054188D01*
X132205820Y-67090498D01*
X132095506Y-67149463D01*
X131998815Y-67228815D01*
X131919463Y-67325506D01*
X131860498Y-67435820D01*
X131824188Y-67555518D01*
X131811928Y-67680000D01*
X126974768Y-67680000D01*
X126922312Y-67601495D01*
X126708505Y-67387688D01*
X126457095Y-67219701D01*
X126177743Y-67103989D01*
X125881184Y-67045000D01*
X125578816Y-67045000D01*
X125282257Y-67103989D01*
X125002905Y-67219701D01*
X124751495Y-67387688D01*
X124685056Y-67454127D01*
X124679502Y-67435820D01*
X124620537Y-67325506D01*
X124541185Y-67228815D01*
X124444494Y-67149463D01*
X124334180Y-67090498D01*
X124214482Y-67054188D01*
X124090000Y-67041928D01*
X123475750Y-67045000D01*
X123317000Y-67203750D01*
X123063000Y-67203750D01*
X122904250Y-67045000D01*
X122290000Y-67041928D01*
X122165518Y-67054188D01*
X122045820Y-67090498D01*
X121935506Y-67149463D01*
X121838815Y-67228815D01*
X121759463Y-67325506D01*
X121700498Y-67435820D01*
X121664188Y-67555518D01*
X121651928Y-67680000D01*
X116814768Y-67680000D01*
X116762312Y-67601495D01*
X116548505Y-67387688D01*
X116297095Y-67219701D01*
X116017743Y-67103989D01*
X115721184Y-67045000D01*
X115418816Y-67045000D01*
X115122257Y-67103989D01*
X114842905Y-67219701D01*
X114591495Y-67387688D01*
X114525056Y-67454127D01*
X114519502Y-67435820D01*
X114460537Y-67325506D01*
X114381185Y-67228815D01*
X114284494Y-67149463D01*
X114174180Y-67090498D01*
X114054482Y-67054188D01*
X113930000Y-67041928D01*
X113315750Y-67045000D01*
X113157000Y-67203750D01*
X112903000Y-67203750D01*
X112744250Y-67045000D01*
X112130000Y-67041928D01*
X112005518Y-67054188D01*
X111885820Y-67090498D01*
X111775506Y-67149463D01*
X111678815Y-67228815D01*
X111599463Y-67325506D01*
X111540498Y-67435820D01*
X111504188Y-67555518D01*
X111491928Y-67680000D01*
X102362000Y-67680000D01*
X102362000Y-55659872D01*
X103175000Y-55659872D01*
X103175000Y-56100128D01*
X103260890Y-56531925D01*
X103429369Y-56938669D01*
X103673962Y-57304729D01*
X103985271Y-57616038D01*
X104351331Y-57860631D01*
X104758075Y-58029110D01*
X105189872Y-58115000D01*
X105630128Y-58115000D01*
X106061925Y-58029110D01*
X106468669Y-57860631D01*
X106834729Y-57616038D01*
X107146038Y-57304729D01*
X107390631Y-56938669D01*
X107559110Y-56531925D01*
X107645000Y-56100128D01*
X107645000Y-55659872D01*
X180010000Y-55659872D01*
X180010000Y-56100128D01*
X180095890Y-56531925D01*
X180264369Y-56938669D01*
X180508962Y-57304729D01*
X180820271Y-57616038D01*
X181186331Y-57860631D01*
X181593075Y-58029110D01*
X182024872Y-58115000D01*
X182465128Y-58115000D01*
X182896925Y-58029110D01*
X183303669Y-57860631D01*
X183669729Y-57616038D01*
X183981038Y-57304729D01*
X184225631Y-56938669D01*
X184394110Y-56531925D01*
X184480000Y-56100128D01*
X184480000Y-55659872D01*
X184394110Y-55228075D01*
X184225631Y-54821331D01*
X183981038Y-54455271D01*
X183669729Y-54143962D01*
X183303669Y-53899369D01*
X182896925Y-53730890D01*
X182465128Y-53645000D01*
X182024872Y-53645000D01*
X181593075Y-53730890D01*
X181186331Y-53899369D01*
X180820271Y-54143962D01*
X180508962Y-54455271D01*
X180264369Y-54821331D01*
X180095890Y-55228075D01*
X180010000Y-55659872D01*
X107645000Y-55659872D01*
X107559110Y-55228075D01*
X107390631Y-54821331D01*
X107146038Y-54455271D01*
X106834729Y-54143962D01*
X106468669Y-53899369D01*
X106061925Y-53730890D01*
X105630128Y-53645000D01*
X105189872Y-53645000D01*
X104758075Y-53730890D01*
X104351331Y-53899369D01*
X103985271Y-54143962D01*
X103673962Y-54455271D01*
X103429369Y-54821331D01*
X103260890Y-55228075D01*
X103175000Y-55659872D01*
X102362000Y-55659872D01*
X102362000Y-52832000D01*
X185293000Y-52832000D01*
X185293000Y-137668000D01*
G37*
G04 #@! TD.AperFunction*
D25*
X173461122Y-100621924D02*
X173504033Y-100725521D01*
X173595413Y-100862281D01*
X173711719Y-100978587D01*
X173848479Y-101069967D01*
X173920550Y-101099820D01*
X173025625Y-101994745D01*
X172998293Y-101967413D01*
X172861533Y-101876033D01*
X172709572Y-101813089D01*
X172548252Y-101781000D01*
X172383772Y-101781000D01*
X172222452Y-101813089D01*
X172070491Y-101876033D01*
X171933731Y-101967413D01*
X171817425Y-102083719D01*
X171726045Y-102220479D01*
X171685134Y-102319248D01*
X171642382Y-102362000D01*
X162621631Y-102362000D01*
X160081630Y-99822000D01*
X160947672Y-99822000D01*
X161046440Y-99862911D01*
X161207760Y-99895000D01*
X161372240Y-99895000D01*
X161533560Y-99862911D01*
X161685521Y-99799967D01*
X161822281Y-99708587D01*
X161849619Y-99681249D01*
X162795122Y-100626753D01*
X162836033Y-100725521D01*
X162927413Y-100862281D01*
X163043719Y-100978587D01*
X163180479Y-101069967D01*
X163332440Y-101132911D01*
X163493760Y-101165000D01*
X163658240Y-101165000D01*
X163819560Y-101132911D01*
X163971521Y-101069967D01*
X164108281Y-100978587D01*
X164224587Y-100862281D01*
X164315967Y-100725521D01*
X164378911Y-100573560D01*
X164411000Y-100412240D01*
X164411000Y-100247760D01*
X164378911Y-100086440D01*
X164321982Y-99949000D01*
X164378911Y-99811560D01*
X164411000Y-99650240D01*
X164411000Y-99485760D01*
X164378911Y-99324440D01*
X164321983Y-99187002D01*
X164378911Y-99049564D01*
X164411000Y-98888244D01*
X164411000Y-98723764D01*
X164378911Y-98562444D01*
X164321981Y-98425002D01*
X164378909Y-98287564D01*
X164410998Y-98126244D01*
X164410998Y-97961764D01*
X164378909Y-97800444D01*
X164315965Y-97648483D01*
X164224585Y-97511723D01*
X164108279Y-97395417D01*
X164040308Y-97350000D01*
X170189199Y-97350000D01*
X173461122Y-100621924D01*
G04 #@! TA.AperFunction,Conductor*
D27*
G36*
X173461122Y-100621924D02*
G01*
X173504033Y-100725521D01*
X173595413Y-100862281D01*
X173711719Y-100978587D01*
X173848479Y-101069967D01*
X173920550Y-101099820D01*
X173025625Y-101994745D01*
X172998293Y-101967413D01*
X172861533Y-101876033D01*
X172709572Y-101813089D01*
X172548252Y-101781000D01*
X172383772Y-101781000D01*
X172222452Y-101813089D01*
X172070491Y-101876033D01*
X171933731Y-101967413D01*
X171817425Y-102083719D01*
X171726045Y-102220479D01*
X171685134Y-102319248D01*
X171642382Y-102362000D01*
X162621631Y-102362000D01*
X160081630Y-99822000D01*
X160947672Y-99822000D01*
X161046440Y-99862911D01*
X161207760Y-99895000D01*
X161372240Y-99895000D01*
X161533560Y-99862911D01*
X161685521Y-99799967D01*
X161822281Y-99708587D01*
X161849619Y-99681249D01*
X162795122Y-100626753D01*
X162836033Y-100725521D01*
X162927413Y-100862281D01*
X163043719Y-100978587D01*
X163180479Y-101069967D01*
X163332440Y-101132911D01*
X163493760Y-101165000D01*
X163658240Y-101165000D01*
X163819560Y-101132911D01*
X163971521Y-101069967D01*
X164108281Y-100978587D01*
X164224587Y-100862281D01*
X164315967Y-100725521D01*
X164378911Y-100573560D01*
X164411000Y-100412240D01*
X164411000Y-100247760D01*
X164378911Y-100086440D01*
X164321982Y-99949000D01*
X164378911Y-99811560D01*
X164411000Y-99650240D01*
X164411000Y-99485760D01*
X164378911Y-99324440D01*
X164321983Y-99187002D01*
X164378911Y-99049564D01*
X164411000Y-98888244D01*
X164411000Y-98723764D01*
X164378911Y-98562444D01*
X164321981Y-98425002D01*
X164378909Y-98287564D01*
X164410998Y-98126244D01*
X164410998Y-97961764D01*
X164378909Y-97800444D01*
X164315965Y-97648483D01*
X164224585Y-97511723D01*
X164108279Y-97395417D01*
X164040308Y-97350000D01*
X170189199Y-97350000D01*
X173461122Y-100621924D01*
G37*
G04 #@! TD.AperFunction*
M02*
