M48
; DRILL file {KiCad (5.1.10-1-10_14)} date Thursday, January 06, 2022 at 01:36:18 PM
; FORMAT={-:-/ absolute / metric / decimal}
; #@! TF.CreationDate,2022-01-06T13:36:18+01:00
; #@! TF.GenerationSoftware,Kicad,Pcbnew,(5.1.10-1-10_14)
; #@! TF.FileFunction,Plated,1,2,PTH
FMAT,2
METRIC
T1C0.300
T2C0.800
T3C0.900
T4C1.000
T5C1.100
T6C1.200
T7C2.500
%
G90
G05
T1
X114.3Y-117.475
X116.205Y-57.15
X122.174Y-86.868
X123.11Y-74.93
X127.635Y-57.15
X130.81Y-109.22
X132.715Y-117.475
X133.27Y-74.93
X135.128Y-87.122
X135.89Y-76.962
X140.335Y-74.93
X140.97Y-109.22
X148.59Y-74.93
X150.622Y-63.246
X152.4Y-117.475
X153.162Y-98.806
X153.162Y-99.822
X153.416Y-71.882
X155.2Y-100.59
X155.226Y-99.79
X157.48Y-74.93
X158.502Y-100.59
X158.972Y-99.79
X159.004Y-104.14
X159.766Y-96.012
X161.036Y-96.012
X161.29Y-99.06
X161.69Y-93.54
X163.068Y-73.152
X163.576Y-98.044
X163.576Y-98.806
X163.576Y-99.568
X163.576Y-100.33
X170.18Y-100.33
X170.815Y-57.785
X172.085Y-92.583
X172.466Y-102.616
X174.244Y-100.33
X176.784Y-93.98
X180.975Y-117.475
T2
X125.73Y-104.14
X127.0Y-87.63
X127.0Y-90.17
X127.0Y-92.71
X128.27Y-104.14
X130.81Y-104.14
X135.89Y-104.14
X138.43Y-104.14
X139.7Y-87.63
X139.7Y-90.17
X139.7Y-92.71
X140.97Y-104.14
X160.02Y-86.36
X164.9Y-86.36
T3
X113.03Y-68.58
X115.57Y-68.58
X123.19Y-68.58
X125.73Y-68.58
X133.35Y-68.58
X135.89Y-68.58
X148.59Y-68.58
X151.13Y-68.58
X157.48Y-68.58
X160.02Y-68.58
T4
X139.7Y-57.15
X139.7Y-59.69
X142.24Y-57.15
X142.24Y-59.69
X144.78Y-57.15
X144.78Y-59.69
X147.32Y-57.15
X147.32Y-59.69
X149.86Y-57.15
X149.86Y-59.69
X176.53Y-87.63
X177.8Y-97.79
X177.8Y-100.33
X177.8Y-102.87
X179.07Y-87.63
X180.34Y-97.79
X180.34Y-100.33
X180.34Y-102.87
T5
X105.26Y-124.405
X105.26Y-128.905
X111.76Y-124.405
X111.76Y-128.905
X119.23Y-124.405
X119.23Y-128.905
X125.73Y-124.405
X125.73Y-128.905
X133.2Y-124.405
X133.2Y-128.905
X139.7Y-124.405
X139.7Y-128.905
X147.17Y-124.405
X147.17Y-128.905
X153.67Y-124.405
X153.67Y-128.905
X161.14Y-124.405
X161.14Y-128.905
X167.64Y-124.405
X167.64Y-128.905
X175.895Y-124.46
X175.895Y-128.96
X182.395Y-124.46
X182.395Y-128.96
T6
X108.03Y-88.9
X110.53Y-93.94
X111.76Y-81.28
X113.03Y-88.9
X114.3Y-81.28
X116.84Y-81.28
X119.38Y-81.28
X121.92Y-81.28
X124.46Y-81.28
X127.0Y-81.28
X129.54Y-81.28
X132.08Y-81.28
X134.62Y-81.28
X137.16Y-81.28
X139.7Y-81.28
X142.24Y-81.28
X144.78Y-81.28
X147.32Y-81.28
X149.86Y-81.28
T7
X106.261Y-81.28
X106.261Y-112.281
X181.259Y-112.281
X181.26Y-81.28
T4
X170.18Y-70.85G85X170.18Y-68.85
G05
X174.18Y-65.15G85X172.18Y-65.15
G05
X176.18Y-70.85G85X176.18Y-68.85
G05
T0
M30
