G04 #@! TF.GenerationSoftware,KiCad,Pcbnew,(5.1.10-1-10_14)*
G04 #@! TF.CreationDate,2022-01-06T13:36:13+01:00*
G04 #@! TF.ProjectId,TrainSpeedo,54726169-6e53-4706-9565-646f2e6b6963,1.0a*
G04 #@! TF.SameCoordinates,Original*
G04 #@! TF.FileFunction,Paste,Top*
G04 #@! TF.FilePolarity,Positive*
%FSLAX46Y46*%
G04 Gerber Fmt 4.6, Leading zero omitted, Abs format (unit mm)*
G04 Created by KiCad (PCBNEW (5.1.10-1-10_14)) date 2022-01-06 13:36:13*
%MOMM*%
%LPD*%
G01*
G04 APERTURE LIST*
%ADD10R,1.500000X1.250000*%
%ADD11R,1.500000X1.300000*%
%ADD12R,1.300000X1.500000*%
%ADD13R,1.600000X0.550000*%
%ADD14R,0.550000X1.600000*%
G04 APERTURE END LIST*
D10*
X165120000Y-81280000D03*
X167620000Y-81280000D03*
X157500000Y-81280000D03*
X160000000Y-81280000D03*
X161270000Y-106680000D03*
X158770000Y-106680000D03*
D11*
X151210000Y-74930000D03*
X148510000Y-74930000D03*
X160100000Y-74930000D03*
X157400000Y-74930000D03*
D12*
X157480000Y-61040000D03*
X157480000Y-58340000D03*
X162560000Y-58340000D03*
X162560000Y-61040000D03*
X120650000Y-90090000D03*
X120650000Y-92790000D03*
X133350000Y-92790000D03*
X133350000Y-90090000D03*
D11*
X120570000Y-97790000D03*
X123270000Y-97790000D03*
X135970000Y-97790000D03*
X133270000Y-97790000D03*
X130890000Y-109220000D03*
X128190000Y-109220000D03*
X141050000Y-109220000D03*
X138350000Y-109220000D03*
D12*
X172085000Y-95330000D03*
X172085000Y-92630000D03*
D11*
X142955000Y-74930000D03*
X140255000Y-74930000D03*
X115650000Y-74930000D03*
X112950000Y-74930000D03*
X123110000Y-74930000D03*
X125810000Y-74930000D03*
X135970000Y-74930000D03*
X133270000Y-74930000D03*
D13*
X165540000Y-94990000D03*
X165540000Y-95790000D03*
X165540000Y-96590000D03*
X165540000Y-97390000D03*
X165540000Y-98190000D03*
X165540000Y-98990000D03*
X165540000Y-99790000D03*
X165540000Y-100590000D03*
D14*
X164090000Y-102040000D03*
X163290000Y-102040000D03*
X162490000Y-102040000D03*
X161690000Y-102040000D03*
X160890000Y-102040000D03*
X160090000Y-102040000D03*
X159290000Y-102040000D03*
X158490000Y-102040000D03*
D13*
X157040000Y-100590000D03*
X157040000Y-99790000D03*
X157040000Y-98990000D03*
X157040000Y-98190000D03*
X157040000Y-97390000D03*
X157040000Y-96590000D03*
X157040000Y-95790000D03*
X157040000Y-94990000D03*
D14*
X158490000Y-93540000D03*
X159290000Y-93540000D03*
X160090000Y-93540000D03*
X160890000Y-93540000D03*
X161690000Y-93540000D03*
X162490000Y-93540000D03*
X163290000Y-93540000D03*
X164090000Y-93540000D03*
M02*
