G04 #@! TF.GenerationSoftware,KiCad,Pcbnew,(5.1.10-1-10_14)*
G04 #@! TF.CreationDate,2022-01-06T13:36:13+01:00*
G04 #@! TF.ProjectId,TrainSpeedo,54726169-6e53-4706-9565-646f2e6b6963,1.0a*
G04 #@! TF.SameCoordinates,Original*
G04 #@! TF.FileFunction,Soldermask,Top*
G04 #@! TF.FilePolarity,Negative*
%FSLAX46Y46*%
G04 Gerber Fmt 4.6, Leading zero omitted, Abs format (unit mm)*
G04 Created by KiCad (PCBNEW (5.1.10-1-10_14)) date 2022-01-06 13:36:13*
%MOMM*%
%LPD*%
G01*
G04 APERTURE LIST*
%ADD10R,1.500000X1.250000*%
%ADD11C,1.800000*%
%ADD12R,1.800000X1.800000*%
%ADD13R,3.500000X3.500000*%
%ADD14O,1.700000X1.700000*%
%ADD15R,1.700000X1.700000*%
%ADD16R,1.500000X1.300000*%
%ADD17R,1.300000X1.500000*%
%ADD18C,2.000000*%
%ADD19C,1.500000*%
%ADD20R,1.600000X0.550000*%
%ADD21R,0.550000X1.600000*%
%ADD22R,1.520000X1.520000*%
%ADD23C,1.520000*%
%ADD24C,3.000000*%
%ADD25O,1.800000X2.600000*%
%ADD26R,1.800000X2.600000*%
%ADD27C,2.500000*%
%ADD28C,3.200000*%
G04 APERTURE END LIST*
D10*
X165120000Y-81280000D03*
X167620000Y-81280000D03*
X157500000Y-81280000D03*
X160000000Y-81280000D03*
X161270000Y-106680000D03*
X158770000Y-106680000D03*
D11*
X151130000Y-68580000D03*
D12*
X148590000Y-68580000D03*
X157480000Y-68580000D03*
D11*
X160020000Y-68580000D03*
X115570000Y-68580000D03*
D12*
X113030000Y-68580000D03*
X123190000Y-68580000D03*
D11*
X125730000Y-68580000D03*
X135890000Y-68580000D03*
D12*
X133350000Y-68580000D03*
D13*
X173180000Y-65150000D03*
X176180000Y-69850000D03*
X170180000Y-69850000D03*
D14*
X149860000Y-57150000D03*
X149860000Y-59690000D03*
X147320000Y-57150000D03*
X147320000Y-59690000D03*
X144780000Y-57150000D03*
X144780000Y-59690000D03*
X142240000Y-57150000D03*
X142240000Y-59690000D03*
X139700000Y-57150000D03*
D15*
X139700000Y-59690000D03*
D14*
X180340000Y-102870000D03*
X177800000Y-102870000D03*
X180340000Y-100330000D03*
X177800000Y-100330000D03*
X180340000Y-97790000D03*
D15*
X177800000Y-97790000D03*
D14*
X176530000Y-87630000D03*
D15*
X179070000Y-87630000D03*
D16*
X151210000Y-74930000D03*
X148510000Y-74930000D03*
X160100000Y-74930000D03*
X157400000Y-74930000D03*
D17*
X157480000Y-61040000D03*
X157480000Y-58340000D03*
X162560000Y-58340000D03*
X162560000Y-61040000D03*
X120650000Y-90090000D03*
X120650000Y-92790000D03*
X133350000Y-92790000D03*
X133350000Y-90090000D03*
D16*
X120570000Y-97790000D03*
X123270000Y-97790000D03*
X135970000Y-97790000D03*
X133270000Y-97790000D03*
X130890000Y-109220000D03*
X128190000Y-109220000D03*
X141050000Y-109220000D03*
X138350000Y-109220000D03*
D17*
X172085000Y-95330000D03*
X172085000Y-92630000D03*
D16*
X142955000Y-74930000D03*
X140255000Y-74930000D03*
X115650000Y-74930000D03*
X112950000Y-74930000D03*
X123110000Y-74930000D03*
X125810000Y-74930000D03*
X135970000Y-74930000D03*
X133270000Y-74930000D03*
D18*
X111760000Y-124405000D03*
X111760000Y-128905000D03*
X105260000Y-124405000D03*
X105260000Y-128905000D03*
X119230000Y-128905000D03*
X119230000Y-124405000D03*
X125730000Y-128905000D03*
X125730000Y-124405000D03*
X139700000Y-124405000D03*
X139700000Y-128905000D03*
X133200000Y-124405000D03*
X133200000Y-128905000D03*
X161140000Y-128905000D03*
X161140000Y-124405000D03*
X167640000Y-128905000D03*
X167640000Y-124405000D03*
X153670000Y-124405000D03*
X153670000Y-128905000D03*
X147170000Y-124405000D03*
X147170000Y-128905000D03*
X182395000Y-124460000D03*
X182395000Y-128960000D03*
X175895000Y-124460000D03*
X175895000Y-128960000D03*
D19*
X164900000Y-86360000D03*
X160020000Y-86360000D03*
D20*
X165540000Y-94990000D03*
X165540000Y-95790000D03*
X165540000Y-96590000D03*
X165540000Y-97390000D03*
X165540000Y-98190000D03*
X165540000Y-98990000D03*
X165540000Y-99790000D03*
X165540000Y-100590000D03*
D21*
X164090000Y-102040000D03*
X163290000Y-102040000D03*
X162490000Y-102040000D03*
X161690000Y-102040000D03*
X160890000Y-102040000D03*
X160090000Y-102040000D03*
X159290000Y-102040000D03*
X158490000Y-102040000D03*
D20*
X157040000Y-100590000D03*
X157040000Y-99790000D03*
X157040000Y-98990000D03*
X157040000Y-98190000D03*
X157040000Y-97390000D03*
X157040000Y-96590000D03*
X157040000Y-95790000D03*
X157040000Y-94990000D03*
D21*
X158490000Y-93540000D03*
X159290000Y-93540000D03*
X160090000Y-93540000D03*
X160890000Y-93540000D03*
X161690000Y-93540000D03*
X162490000Y-93540000D03*
X163290000Y-93540000D03*
X164090000Y-93540000D03*
D22*
X127000000Y-87630000D03*
D23*
X127000000Y-92710000D03*
X127000000Y-90170000D03*
D22*
X139700000Y-87630000D03*
D23*
X139700000Y-92710000D03*
X139700000Y-90170000D03*
X128270000Y-104140000D03*
X130810000Y-104140000D03*
D22*
X125730000Y-104140000D03*
D23*
X138430000Y-104140000D03*
X140970000Y-104140000D03*
D22*
X135890000Y-104140000D03*
D24*
X181260000Y-81280000D03*
X181259480Y-112280700D03*
X106260900Y-112280700D03*
X106260900Y-81280000D03*
D25*
X149860000Y-81280000D03*
X147320000Y-81280000D03*
X144780000Y-81280000D03*
X142240000Y-81280000D03*
X139700000Y-81280000D03*
X137160000Y-81280000D03*
X134620000Y-81280000D03*
X132080000Y-81280000D03*
X129540000Y-81280000D03*
X127000000Y-81280000D03*
X124460000Y-81280000D03*
X121920000Y-81280000D03*
X119380000Y-81280000D03*
X116840000Y-81280000D03*
X114300000Y-81280000D03*
D26*
X111760000Y-81280000D03*
D27*
X113030000Y-88900000D03*
X108030000Y-88900000D03*
X110530000Y-93940000D03*
D28*
X105410000Y-55880000D03*
X182245000Y-55880000D03*
X105410000Y-134620000D03*
X182245000Y-134620000D03*
M02*
